%TF.GenerationSoftware,KiCad,Pcbnew,7.0.10*%
%TF.CreationDate,2026-01-16T09:27:40+01:00*%
%TF.ProjectId,Testplatine,54657374-706c-4617-9469-6e652e6b6963,rev?*%
%TF.SameCoordinates,Original*%
%TF.FileFunction,Drillmap*%
%TF.FilePolarity,Positive*%
%FSLAX45Y45*%
G04 Gerber Fmt 4.5, Leading zero omitted, Abs format (unit mm)*
G04 Created by KiCad (PCBNEW 7.0.10) date 2026-01-16 09:27:40*
%MOMM*%
%LPD*%
G01*
G04 APERTURE LIST*
%ADD10C,0.100000*%
%ADD11C,0.200000*%
%ADD12C,0.102000*%
%ADD13C,0.430000*%
G04 APERTURE END LIST*
D10*
X9000000Y-5650000D02*
X8150000Y-6500000D01*
X8150000Y-6500000D02*
G75*
G03*
X9000000Y-5650000I1850000J-1000000D01*
G01*
D11*
D10*
X9781902Y-7479834D02*
X9821902Y-7519834D01*
X9821902Y-7479834D02*
X9781902Y-7519834D01*
X9855709Y-7561777D02*
X9895709Y-7601777D01*
X9895709Y-7561777D02*
X9855709Y-7601777D01*
X10240000Y-6910000D02*
X10280000Y-6950000D01*
X10280000Y-6910000D02*
X10240000Y-6950000D01*
X10308619Y-7187500D02*
X10348619Y-7227500D01*
X10348619Y-7187500D02*
X10308619Y-7227500D01*
X10435000Y-7115000D02*
X10475000Y-7155000D01*
X10475000Y-7115000D02*
X10435000Y-7155000D01*
X10780000Y-6725000D02*
X10820000Y-6765000D01*
X10820000Y-6725000D02*
X10780000Y-6765000D01*
X8457500Y-7499999D02*
G75*
G03*
X8397500Y-7499999I-30000J0D01*
G01*
X8397500Y-7499999D02*
G75*
G03*
X8457500Y-7499999I30000J0D01*
G01*
X8551958Y-7271958D02*
G75*
G03*
X8491958Y-7271958I-30000J0D01*
G01*
X8491958Y-7271958D02*
G75*
G03*
X8551958Y-7271958I30000J0D01*
G01*
X8551958Y-7728041D02*
G75*
G03*
X8491958Y-7728041I-30000J0D01*
G01*
X8491958Y-7728041D02*
G75*
G03*
X8551958Y-7728041I30000J0D01*
G01*
X8780000Y-7177499D02*
G75*
G03*
X8720000Y-7177499I-30000J0D01*
G01*
X8720000Y-7177499D02*
G75*
G03*
X8780000Y-7177499I30000J0D01*
G01*
X8780000Y-7822499D02*
G75*
G03*
X8720000Y-7822499I-30000J0D01*
G01*
X8720000Y-7822499D02*
G75*
G03*
X8780000Y-7822499I30000J0D01*
G01*
X9008042Y-7271958D02*
G75*
G03*
X8948042Y-7271958I-30000J0D01*
G01*
X8948042Y-7271958D02*
G75*
G03*
X9008042Y-7271958I30000J0D01*
G01*
X9008042Y-7728041D02*
G75*
G03*
X8948042Y-7728041I-30000J0D01*
G01*
X8948042Y-7728041D02*
G75*
G03*
X9008042Y-7728041I30000J0D01*
G01*
X9102500Y-7499999D02*
G75*
G03*
X9042500Y-7499999I-30000J0D01*
G01*
X9042500Y-7499999D02*
G75*
G03*
X9102500Y-7499999I30000J0D01*
G01*
X9707500Y-6250000D02*
G75*
G03*
X9647500Y-6250000I-30000J0D01*
G01*
X9647500Y-6250000D02*
G75*
G03*
X9707500Y-6250000I30000J0D01*
G01*
X9707500Y-8750000D02*
G75*
G03*
X9647500Y-8750000I-30000J0D01*
G01*
X9647500Y-8750000D02*
G75*
G03*
X9707500Y-8750000I30000J0D01*
G01*
X9801958Y-6021958D02*
G75*
G03*
X9741958Y-6021958I-30000J0D01*
G01*
X9741958Y-6021958D02*
G75*
G03*
X9801958Y-6021958I30000J0D01*
G01*
X9801958Y-6478042D02*
G75*
G03*
X9741958Y-6478042I-30000J0D01*
G01*
X9741958Y-6478042D02*
G75*
G03*
X9801958Y-6478042I30000J0D01*
G01*
X9801958Y-8521958D02*
G75*
G03*
X9741958Y-8521958I-30000J0D01*
G01*
X9741958Y-8521958D02*
G75*
G03*
X9801958Y-8521958I30000J0D01*
G01*
X9801958Y-8978042D02*
G75*
G03*
X9741958Y-8978042I-30000J0D01*
G01*
X9741958Y-8978042D02*
G75*
G03*
X9801958Y-8978042I30000J0D01*
G01*
X10030000Y-5927500D02*
G75*
G03*
X9970000Y-5927500I-30000J0D01*
G01*
X9970000Y-5927500D02*
G75*
G03*
X10030000Y-5927500I30000J0D01*
G01*
X10030000Y-6572500D02*
G75*
G03*
X9970000Y-6572500I-30000J0D01*
G01*
X9970000Y-6572500D02*
G75*
G03*
X10030000Y-6572500I30000J0D01*
G01*
X10030000Y-8427500D02*
G75*
G03*
X9970000Y-8427500I-30000J0D01*
G01*
X9970000Y-8427500D02*
G75*
G03*
X10030000Y-8427500I30000J0D01*
G01*
X10030000Y-9072500D02*
G75*
G03*
X9970000Y-9072500I-30000J0D01*
G01*
X9970000Y-9072500D02*
G75*
G03*
X10030000Y-9072500I30000J0D01*
G01*
X10258042Y-6021958D02*
G75*
G03*
X10198042Y-6021958I-30000J0D01*
G01*
X10198042Y-6021958D02*
G75*
G03*
X10258042Y-6021958I30000J0D01*
G01*
X10258042Y-6478042D02*
G75*
G03*
X10198042Y-6478042I-30000J0D01*
G01*
X10198042Y-6478042D02*
G75*
G03*
X10258042Y-6478042I30000J0D01*
G01*
X10258042Y-8521958D02*
G75*
G03*
X10198042Y-8521958I-30000J0D01*
G01*
X10198042Y-8521958D02*
G75*
G03*
X10258042Y-8521958I30000J0D01*
G01*
X10258042Y-8978042D02*
G75*
G03*
X10198042Y-8978042I-30000J0D01*
G01*
X10198042Y-8978042D02*
G75*
G03*
X10258042Y-8978042I30000J0D01*
G01*
X10352500Y-6250000D02*
G75*
G03*
X10292500Y-6250000I-30000J0D01*
G01*
X10292500Y-6250000D02*
G75*
G03*
X10352500Y-6250000I30000J0D01*
G01*
X10352500Y-8750000D02*
G75*
G03*
X10292500Y-8750000I-30000J0D01*
G01*
X10292500Y-8750000D02*
G75*
G03*
X10352500Y-8750000I30000J0D01*
G01*
X10957500Y-7500000D02*
G75*
G03*
X10897500Y-7500000I-30000J0D01*
G01*
X10897500Y-7500000D02*
G75*
G03*
X10957500Y-7500000I30000J0D01*
G01*
X11051958Y-7271958D02*
G75*
G03*
X10991958Y-7271958I-30000J0D01*
G01*
X10991958Y-7271958D02*
G75*
G03*
X11051958Y-7271958I30000J0D01*
G01*
X11051958Y-7728042D02*
G75*
G03*
X10991958Y-7728042I-30000J0D01*
G01*
X10991958Y-7728042D02*
G75*
G03*
X11051958Y-7728042I30000J0D01*
G01*
X11280000Y-7177500D02*
G75*
G03*
X11220000Y-7177500I-30000J0D01*
G01*
X11220000Y-7177500D02*
G75*
G03*
X11280000Y-7177500I30000J0D01*
G01*
X11280000Y-7822500D02*
G75*
G03*
X11220000Y-7822500I-30000J0D01*
G01*
X11220000Y-7822500D02*
G75*
G03*
X11280000Y-7822500I30000J0D01*
G01*
X11508042Y-7271958D02*
G75*
G03*
X11448042Y-7271958I-30000J0D01*
G01*
X11448042Y-7271958D02*
G75*
G03*
X11508042Y-7271958I30000J0D01*
G01*
X11508042Y-7728042D02*
G75*
G03*
X11448042Y-7728042I-30000J0D01*
G01*
X11448042Y-7728042D02*
G75*
G03*
X11508042Y-7728042I30000J0D01*
G01*
X11602500Y-7500000D02*
G75*
G03*
X11542500Y-7500000I-30000J0D01*
G01*
X11542500Y-7500000D02*
G75*
G03*
X11602500Y-7500000I30000J0D01*
G01*
D12*
X8626461Y-6614276D02*
X8626461Y-6716276D01*
X8575461Y-6665276D02*
X8677461Y-6665276D01*
X8806066Y-6434671D02*
X8806066Y-6536671D01*
X8755066Y-6485671D02*
X8857066Y-6485671D01*
X8806066Y-6793881D02*
X8806066Y-6895881D01*
X8755066Y-6844881D02*
X8857066Y-6844881D01*
X8985671Y-6255066D02*
X8985671Y-6357066D01*
X8934671Y-6306066D02*
X9036671Y-6306066D01*
X8985671Y-6614276D02*
X8985671Y-6716276D01*
X8934671Y-6665276D02*
X9036671Y-6665276D01*
X9165276Y-6075461D02*
X9165276Y-6177461D01*
X9114276Y-6126461D02*
X9216276Y-6126461D01*
X9165276Y-6434671D02*
X9165276Y-6536671D01*
X9114276Y-6485671D02*
X9216276Y-6485671D01*
X9344881Y-6255066D02*
X9344881Y-6357066D01*
X9293881Y-6306066D02*
X9395881Y-6306066D01*
D13*
X8902030Y-7652029D02*
X8902030Y-7347970D01*
X8597971Y-7347970D01*
X8597971Y-7652029D01*
X8902030Y-7652029D01*
X10152029Y-6402029D02*
X10152029Y-6097971D01*
X9847971Y-6097971D01*
X9847971Y-6402029D01*
X10152029Y-6402029D01*
X10152029Y-8902029D02*
X10152029Y-8597971D01*
X9847971Y-8597971D01*
X9847971Y-8902029D01*
X10152029Y-8902029D01*
X11402029Y-7652029D02*
X11402029Y-7347971D01*
X11097971Y-7347971D01*
X11097971Y-7652029D01*
X11402029Y-7652029D01*
D11*
X8152803Y-9919458D02*
X8152803Y-9719458D01*
X8152803Y-9719458D02*
X8200422Y-9719458D01*
X8200422Y-9719458D02*
X8228993Y-9728982D01*
X8228993Y-9728982D02*
X8248041Y-9748029D01*
X8248041Y-9748029D02*
X8257565Y-9767077D01*
X8257565Y-9767077D02*
X8267088Y-9805172D01*
X8267088Y-9805172D02*
X8267088Y-9833744D01*
X8267088Y-9833744D02*
X8257565Y-9871839D01*
X8257565Y-9871839D02*
X8248041Y-9890886D01*
X8248041Y-9890886D02*
X8228993Y-9909934D01*
X8228993Y-9909934D02*
X8200422Y-9919458D01*
X8200422Y-9919458D02*
X8152803Y-9919458D01*
X8352803Y-9919458D02*
X8352803Y-9786124D01*
X8352803Y-9824220D02*
X8362327Y-9805172D01*
X8362327Y-9805172D02*
X8371850Y-9795648D01*
X8371850Y-9795648D02*
X8390898Y-9786124D01*
X8390898Y-9786124D02*
X8409946Y-9786124D01*
X8476612Y-9919458D02*
X8476612Y-9786124D01*
X8476612Y-9719458D02*
X8467089Y-9728982D01*
X8467089Y-9728982D02*
X8476612Y-9738505D01*
X8476612Y-9738505D02*
X8486136Y-9728982D01*
X8486136Y-9728982D02*
X8476612Y-9719458D01*
X8476612Y-9719458D02*
X8476612Y-9738505D01*
X8600422Y-9919458D02*
X8581374Y-9909934D01*
X8581374Y-9909934D02*
X8571850Y-9890886D01*
X8571850Y-9890886D02*
X8571850Y-9719458D01*
X8705184Y-9919458D02*
X8686136Y-9909934D01*
X8686136Y-9909934D02*
X8676612Y-9890886D01*
X8676612Y-9890886D02*
X8676612Y-9719458D01*
X8933755Y-9919458D02*
X8933755Y-9719458D01*
X8933755Y-9719458D02*
X9000422Y-9862315D01*
X9000422Y-9862315D02*
X9067089Y-9719458D01*
X9067089Y-9719458D02*
X9067089Y-9919458D01*
X9248041Y-9919458D02*
X9248041Y-9814696D01*
X9248041Y-9814696D02*
X9238517Y-9795648D01*
X9238517Y-9795648D02*
X9219470Y-9786124D01*
X9219470Y-9786124D02*
X9181374Y-9786124D01*
X9181374Y-9786124D02*
X9162327Y-9795648D01*
X9248041Y-9909934D02*
X9228993Y-9919458D01*
X9228993Y-9919458D02*
X9181374Y-9919458D01*
X9181374Y-9919458D02*
X9162327Y-9909934D01*
X9162327Y-9909934D02*
X9152803Y-9890886D01*
X9152803Y-9890886D02*
X9152803Y-9871839D01*
X9152803Y-9871839D02*
X9162327Y-9852791D01*
X9162327Y-9852791D02*
X9181374Y-9843267D01*
X9181374Y-9843267D02*
X9228993Y-9843267D01*
X9228993Y-9843267D02*
X9248041Y-9833744D01*
X9343279Y-9786124D02*
X9343279Y-9986124D01*
X9343279Y-9795648D02*
X9362327Y-9786124D01*
X9362327Y-9786124D02*
X9400422Y-9786124D01*
X9400422Y-9786124D02*
X9419470Y-9795648D01*
X9419470Y-9795648D02*
X9428993Y-9805172D01*
X9428993Y-9805172D02*
X9438517Y-9824220D01*
X9438517Y-9824220D02*
X9438517Y-9881363D01*
X9438517Y-9881363D02*
X9428993Y-9900410D01*
X9428993Y-9900410D02*
X9419470Y-9909934D01*
X9419470Y-9909934D02*
X9400422Y-9919458D01*
X9400422Y-9919458D02*
X9362327Y-9919458D01*
X9362327Y-9919458D02*
X9343279Y-9909934D01*
X9524231Y-9900410D02*
X9533755Y-9909934D01*
X9533755Y-9909934D02*
X9524231Y-9919458D01*
X9524231Y-9919458D02*
X9514708Y-9909934D01*
X9514708Y-9909934D02*
X9524231Y-9900410D01*
X9524231Y-9900410D02*
X9524231Y-9919458D01*
X9524231Y-9795648D02*
X9533755Y-9805172D01*
X9533755Y-9805172D02*
X9524231Y-9814696D01*
X9524231Y-9814696D02*
X9514708Y-9805172D01*
X9514708Y-9805172D02*
X9524231Y-9795648D01*
X9524231Y-9795648D02*
X9524231Y-9814696D01*
D10*
X7852026Y-10227974D02*
X7892026Y-10267974D01*
X7892026Y-10227974D02*
X7852026Y-10267974D01*
D11*
X8190898Y-10139458D02*
X8209946Y-10139458D01*
X8209946Y-10139458D02*
X8228993Y-10148982D01*
X8228993Y-10148982D02*
X8238517Y-10158505D01*
X8238517Y-10158505D02*
X8248041Y-10177553D01*
X8248041Y-10177553D02*
X8257565Y-10215648D01*
X8257565Y-10215648D02*
X8257565Y-10263267D01*
X8257565Y-10263267D02*
X8248041Y-10301363D01*
X8248041Y-10301363D02*
X8238517Y-10320410D01*
X8238517Y-10320410D02*
X8228993Y-10329934D01*
X8228993Y-10329934D02*
X8209946Y-10339458D01*
X8209946Y-10339458D02*
X8190898Y-10339458D01*
X8190898Y-10339458D02*
X8171850Y-10329934D01*
X8171850Y-10329934D02*
X8162327Y-10320410D01*
X8162327Y-10320410D02*
X8152803Y-10301363D01*
X8152803Y-10301363D02*
X8143279Y-10263267D01*
X8143279Y-10263267D02*
X8143279Y-10215648D01*
X8143279Y-10215648D02*
X8152803Y-10177553D01*
X8152803Y-10177553D02*
X8162327Y-10158505D01*
X8162327Y-10158505D02*
X8171850Y-10148982D01*
X8171850Y-10148982D02*
X8190898Y-10139458D01*
X8343279Y-10320410D02*
X8352803Y-10329934D01*
X8352803Y-10329934D02*
X8343279Y-10339458D01*
X8343279Y-10339458D02*
X8333755Y-10329934D01*
X8333755Y-10329934D02*
X8343279Y-10320410D01*
X8343279Y-10320410D02*
X8343279Y-10339458D01*
X8524231Y-10206124D02*
X8524231Y-10339458D01*
X8476612Y-10129934D02*
X8428993Y-10272791D01*
X8428993Y-10272791D02*
X8552803Y-10272791D01*
X8667089Y-10139458D02*
X8686136Y-10139458D01*
X8686136Y-10139458D02*
X8705184Y-10148982D01*
X8705184Y-10148982D02*
X8714708Y-10158505D01*
X8714708Y-10158505D02*
X8724231Y-10177553D01*
X8724231Y-10177553D02*
X8733755Y-10215648D01*
X8733755Y-10215648D02*
X8733755Y-10263267D01*
X8733755Y-10263267D02*
X8724231Y-10301363D01*
X8724231Y-10301363D02*
X8714708Y-10320410D01*
X8714708Y-10320410D02*
X8705184Y-10329934D01*
X8705184Y-10329934D02*
X8686136Y-10339458D01*
X8686136Y-10339458D02*
X8667089Y-10339458D01*
X8667089Y-10339458D02*
X8648041Y-10329934D01*
X8648041Y-10329934D02*
X8638517Y-10320410D01*
X8638517Y-10320410D02*
X8628993Y-10301363D01*
X8628993Y-10301363D02*
X8619470Y-10263267D01*
X8619470Y-10263267D02*
X8619470Y-10215648D01*
X8619470Y-10215648D02*
X8628993Y-10177553D01*
X8628993Y-10177553D02*
X8638517Y-10158505D01*
X8638517Y-10158505D02*
X8648041Y-10148982D01*
X8648041Y-10148982D02*
X8667089Y-10139458D01*
X8857565Y-10139458D02*
X8876612Y-10139458D01*
X8876612Y-10139458D02*
X8895660Y-10148982D01*
X8895660Y-10148982D02*
X8905184Y-10158505D01*
X8905184Y-10158505D02*
X8914708Y-10177553D01*
X8914708Y-10177553D02*
X8924231Y-10215648D01*
X8924231Y-10215648D02*
X8924231Y-10263267D01*
X8924231Y-10263267D02*
X8914708Y-10301363D01*
X8914708Y-10301363D02*
X8905184Y-10320410D01*
X8905184Y-10320410D02*
X8895660Y-10329934D01*
X8895660Y-10329934D02*
X8876612Y-10339458D01*
X8876612Y-10339458D02*
X8857565Y-10339458D01*
X8857565Y-10339458D02*
X8838517Y-10329934D01*
X8838517Y-10329934D02*
X8828993Y-10320410D01*
X8828993Y-10320410D02*
X8819470Y-10301363D01*
X8819470Y-10301363D02*
X8809946Y-10263267D01*
X8809946Y-10263267D02*
X8809946Y-10215648D01*
X8809946Y-10215648D02*
X8819470Y-10177553D01*
X8819470Y-10177553D02*
X8828993Y-10158505D01*
X8828993Y-10158505D02*
X8838517Y-10148982D01*
X8838517Y-10148982D02*
X8857565Y-10139458D01*
X9009946Y-10339458D02*
X9009946Y-10206124D01*
X9009946Y-10225172D02*
X9019470Y-10215648D01*
X9019470Y-10215648D02*
X9038517Y-10206124D01*
X9038517Y-10206124D02*
X9067089Y-10206124D01*
X9067089Y-10206124D02*
X9086136Y-10215648D01*
X9086136Y-10215648D02*
X9095660Y-10234696D01*
X9095660Y-10234696D02*
X9095660Y-10339458D01*
X9095660Y-10234696D02*
X9105184Y-10215648D01*
X9105184Y-10215648D02*
X9124231Y-10206124D01*
X9124231Y-10206124D02*
X9152803Y-10206124D01*
X9152803Y-10206124D02*
X9171851Y-10215648D01*
X9171851Y-10215648D02*
X9181374Y-10234696D01*
X9181374Y-10234696D02*
X9181374Y-10339458D01*
X9276612Y-10339458D02*
X9276612Y-10206124D01*
X9276612Y-10225172D02*
X9286136Y-10215648D01*
X9286136Y-10215648D02*
X9305184Y-10206124D01*
X9305184Y-10206124D02*
X9333755Y-10206124D01*
X9333755Y-10206124D02*
X9352803Y-10215648D01*
X9352803Y-10215648D02*
X9362327Y-10234696D01*
X9362327Y-10234696D02*
X9362327Y-10339458D01*
X9362327Y-10234696D02*
X9371851Y-10215648D01*
X9371851Y-10215648D02*
X9390898Y-10206124D01*
X9390898Y-10206124D02*
X9419470Y-10206124D01*
X9419470Y-10206124D02*
X9438517Y-10215648D01*
X9438517Y-10215648D02*
X9448041Y-10234696D01*
X9448041Y-10234696D02*
X9448041Y-10339458D01*
X9838517Y-10129934D02*
X9667089Y-10387077D01*
X10095660Y-10139458D02*
X10114708Y-10139458D01*
X10114708Y-10139458D02*
X10133755Y-10148982D01*
X10133755Y-10148982D02*
X10143279Y-10158505D01*
X10143279Y-10158505D02*
X10152803Y-10177553D01*
X10152803Y-10177553D02*
X10162327Y-10215648D01*
X10162327Y-10215648D02*
X10162327Y-10263267D01*
X10162327Y-10263267D02*
X10152803Y-10301363D01*
X10152803Y-10301363D02*
X10143279Y-10320410D01*
X10143279Y-10320410D02*
X10133755Y-10329934D01*
X10133755Y-10329934D02*
X10114708Y-10339458D01*
X10114708Y-10339458D02*
X10095660Y-10339458D01*
X10095660Y-10339458D02*
X10076613Y-10329934D01*
X10076613Y-10329934D02*
X10067089Y-10320410D01*
X10067089Y-10320410D02*
X10057565Y-10301363D01*
X10057565Y-10301363D02*
X10048041Y-10263267D01*
X10048041Y-10263267D02*
X10048041Y-10215648D01*
X10048041Y-10215648D02*
X10057565Y-10177553D01*
X10057565Y-10177553D02*
X10067089Y-10158505D01*
X10067089Y-10158505D02*
X10076613Y-10148982D01*
X10076613Y-10148982D02*
X10095660Y-10139458D01*
X10248041Y-10320410D02*
X10257565Y-10329934D01*
X10257565Y-10329934D02*
X10248041Y-10339458D01*
X10248041Y-10339458D02*
X10238517Y-10329934D01*
X10238517Y-10329934D02*
X10248041Y-10320410D01*
X10248041Y-10320410D02*
X10248041Y-10339458D01*
X10381374Y-10139458D02*
X10400422Y-10139458D01*
X10400422Y-10139458D02*
X10419470Y-10148982D01*
X10419470Y-10148982D02*
X10428994Y-10158505D01*
X10428994Y-10158505D02*
X10438517Y-10177553D01*
X10438517Y-10177553D02*
X10448041Y-10215648D01*
X10448041Y-10215648D02*
X10448041Y-10263267D01*
X10448041Y-10263267D02*
X10438517Y-10301363D01*
X10438517Y-10301363D02*
X10428994Y-10320410D01*
X10428994Y-10320410D02*
X10419470Y-10329934D01*
X10419470Y-10329934D02*
X10400422Y-10339458D01*
X10400422Y-10339458D02*
X10381374Y-10339458D01*
X10381374Y-10339458D02*
X10362327Y-10329934D01*
X10362327Y-10329934D02*
X10352803Y-10320410D01*
X10352803Y-10320410D02*
X10343279Y-10301363D01*
X10343279Y-10301363D02*
X10333755Y-10263267D01*
X10333755Y-10263267D02*
X10333755Y-10215648D01*
X10333755Y-10215648D02*
X10343279Y-10177553D01*
X10343279Y-10177553D02*
X10352803Y-10158505D01*
X10352803Y-10158505D02*
X10362327Y-10148982D01*
X10362327Y-10148982D02*
X10381374Y-10139458D01*
X10638517Y-10339458D02*
X10524232Y-10339458D01*
X10581374Y-10339458D02*
X10581374Y-10139458D01*
X10581374Y-10139458D02*
X10562327Y-10168029D01*
X10562327Y-10168029D02*
X10543279Y-10187077D01*
X10543279Y-10187077D02*
X10524232Y-10196601D01*
X10819470Y-10139458D02*
X10724232Y-10139458D01*
X10724232Y-10139458D02*
X10714708Y-10234696D01*
X10714708Y-10234696D02*
X10724232Y-10225172D01*
X10724232Y-10225172D02*
X10743279Y-10215648D01*
X10743279Y-10215648D02*
X10790898Y-10215648D01*
X10790898Y-10215648D02*
X10809946Y-10225172D01*
X10809946Y-10225172D02*
X10819470Y-10234696D01*
X10819470Y-10234696D02*
X10828994Y-10253744D01*
X10828994Y-10253744D02*
X10828994Y-10301363D01*
X10828994Y-10301363D02*
X10819470Y-10320410D01*
X10819470Y-10320410D02*
X10809946Y-10329934D01*
X10809946Y-10329934D02*
X10790898Y-10339458D01*
X10790898Y-10339458D02*
X10743279Y-10339458D01*
X10743279Y-10339458D02*
X10724232Y-10329934D01*
X10724232Y-10329934D02*
X10714708Y-10320410D01*
X10895660Y-10139458D02*
X11028994Y-10139458D01*
X11028994Y-10139458D02*
X10943279Y-10339458D01*
X11095660Y-10139458D02*
X11095660Y-10177553D01*
X11171851Y-10139458D02*
X11171851Y-10177553D01*
X11467089Y-10415648D02*
X11457565Y-10406124D01*
X11457565Y-10406124D02*
X11438517Y-10377553D01*
X11438517Y-10377553D02*
X11428994Y-10358505D01*
X11428994Y-10358505D02*
X11419470Y-10329934D01*
X11419470Y-10329934D02*
X11409946Y-10282315D01*
X11409946Y-10282315D02*
X11409946Y-10244220D01*
X11409946Y-10244220D02*
X11419470Y-10196601D01*
X11419470Y-10196601D02*
X11428994Y-10168029D01*
X11428994Y-10168029D02*
X11438517Y-10148982D01*
X11438517Y-10148982D02*
X11457565Y-10120410D01*
X11457565Y-10120410D02*
X11467089Y-10110886D01*
X11628994Y-10139458D02*
X11590898Y-10139458D01*
X11590898Y-10139458D02*
X11571851Y-10148982D01*
X11571851Y-10148982D02*
X11562327Y-10158505D01*
X11562327Y-10158505D02*
X11543279Y-10187077D01*
X11543279Y-10187077D02*
X11533755Y-10225172D01*
X11533755Y-10225172D02*
X11533755Y-10301363D01*
X11533755Y-10301363D02*
X11543279Y-10320410D01*
X11543279Y-10320410D02*
X11552803Y-10329934D01*
X11552803Y-10329934D02*
X11571851Y-10339458D01*
X11571851Y-10339458D02*
X11609946Y-10339458D01*
X11609946Y-10339458D02*
X11628994Y-10329934D01*
X11628994Y-10329934D02*
X11638517Y-10320410D01*
X11638517Y-10320410D02*
X11648041Y-10301363D01*
X11648041Y-10301363D02*
X11648041Y-10253744D01*
X11648041Y-10253744D02*
X11638517Y-10234696D01*
X11638517Y-10234696D02*
X11628994Y-10225172D01*
X11628994Y-10225172D02*
X11609946Y-10215648D01*
X11609946Y-10215648D02*
X11571851Y-10215648D01*
X11571851Y-10215648D02*
X11552803Y-10225172D01*
X11552803Y-10225172D02*
X11543279Y-10234696D01*
X11543279Y-10234696D02*
X11533755Y-10253744D01*
X11886136Y-10339458D02*
X11886136Y-10139458D01*
X11971851Y-10339458D02*
X11971851Y-10234696D01*
X11971851Y-10234696D02*
X11962327Y-10215648D01*
X11962327Y-10215648D02*
X11943279Y-10206124D01*
X11943279Y-10206124D02*
X11914708Y-10206124D01*
X11914708Y-10206124D02*
X11895660Y-10215648D01*
X11895660Y-10215648D02*
X11886136Y-10225172D01*
X12095660Y-10339458D02*
X12076613Y-10329934D01*
X12076613Y-10329934D02*
X12067089Y-10320410D01*
X12067089Y-10320410D02*
X12057565Y-10301363D01*
X12057565Y-10301363D02*
X12057565Y-10244220D01*
X12057565Y-10244220D02*
X12067089Y-10225172D01*
X12067089Y-10225172D02*
X12076613Y-10215648D01*
X12076613Y-10215648D02*
X12095660Y-10206124D01*
X12095660Y-10206124D02*
X12124232Y-10206124D01*
X12124232Y-10206124D02*
X12143279Y-10215648D01*
X12143279Y-10215648D02*
X12152803Y-10225172D01*
X12152803Y-10225172D02*
X12162327Y-10244220D01*
X12162327Y-10244220D02*
X12162327Y-10301363D01*
X12162327Y-10301363D02*
X12152803Y-10320410D01*
X12152803Y-10320410D02*
X12143279Y-10329934D01*
X12143279Y-10329934D02*
X12124232Y-10339458D01*
X12124232Y-10339458D02*
X12095660Y-10339458D01*
X12276613Y-10339458D02*
X12257565Y-10329934D01*
X12257565Y-10329934D02*
X12248041Y-10310886D01*
X12248041Y-10310886D02*
X12248041Y-10139458D01*
X12428994Y-10329934D02*
X12409946Y-10339458D01*
X12409946Y-10339458D02*
X12371851Y-10339458D01*
X12371851Y-10339458D02*
X12352803Y-10329934D01*
X12352803Y-10329934D02*
X12343279Y-10310886D01*
X12343279Y-10310886D02*
X12343279Y-10234696D01*
X12343279Y-10234696D02*
X12352803Y-10215648D01*
X12352803Y-10215648D02*
X12371851Y-10206124D01*
X12371851Y-10206124D02*
X12409946Y-10206124D01*
X12409946Y-10206124D02*
X12428994Y-10215648D01*
X12428994Y-10215648D02*
X12438517Y-10234696D01*
X12438517Y-10234696D02*
X12438517Y-10253744D01*
X12438517Y-10253744D02*
X12343279Y-10272791D01*
X12514708Y-10329934D02*
X12533756Y-10339458D01*
X12533756Y-10339458D02*
X12571851Y-10339458D01*
X12571851Y-10339458D02*
X12590898Y-10329934D01*
X12590898Y-10329934D02*
X12600422Y-10310886D01*
X12600422Y-10310886D02*
X12600422Y-10301363D01*
X12600422Y-10301363D02*
X12590898Y-10282315D01*
X12590898Y-10282315D02*
X12571851Y-10272791D01*
X12571851Y-10272791D02*
X12543279Y-10272791D01*
X12543279Y-10272791D02*
X12524232Y-10263267D01*
X12524232Y-10263267D02*
X12514708Y-10244220D01*
X12514708Y-10244220D02*
X12514708Y-10234696D01*
X12514708Y-10234696D02*
X12524232Y-10215648D01*
X12524232Y-10215648D02*
X12543279Y-10206124D01*
X12543279Y-10206124D02*
X12571851Y-10206124D01*
X12571851Y-10206124D02*
X12590898Y-10215648D01*
X12667089Y-10415648D02*
X12676613Y-10406124D01*
X12676613Y-10406124D02*
X12695660Y-10377553D01*
X12695660Y-10377553D02*
X12705184Y-10358505D01*
X12705184Y-10358505D02*
X12714708Y-10329934D01*
X12714708Y-10329934D02*
X12724232Y-10282315D01*
X12724232Y-10282315D02*
X12724232Y-10244220D01*
X12724232Y-10244220D02*
X12714708Y-10196601D01*
X12714708Y-10196601D02*
X12705184Y-10168029D01*
X12705184Y-10168029D02*
X12695660Y-10148982D01*
X12695660Y-10148982D02*
X12676613Y-10120410D01*
X12676613Y-10120410D02*
X12667089Y-10110886D01*
D10*
X7892026Y-10511974D02*
G75*
G03*
X7832026Y-10511974I-30000J0D01*
G01*
X7832026Y-10511974D02*
G75*
G03*
X7892026Y-10511974I30000J0D01*
G01*
D11*
X8190898Y-10403458D02*
X8209946Y-10403458D01*
X8209946Y-10403458D02*
X8228993Y-10412982D01*
X8228993Y-10412982D02*
X8238517Y-10422505D01*
X8238517Y-10422505D02*
X8248041Y-10441553D01*
X8248041Y-10441553D02*
X8257565Y-10479648D01*
X8257565Y-10479648D02*
X8257565Y-10527267D01*
X8257565Y-10527267D02*
X8248041Y-10565363D01*
X8248041Y-10565363D02*
X8238517Y-10584410D01*
X8238517Y-10584410D02*
X8228993Y-10593934D01*
X8228993Y-10593934D02*
X8209946Y-10603458D01*
X8209946Y-10603458D02*
X8190898Y-10603458D01*
X8190898Y-10603458D02*
X8171850Y-10593934D01*
X8171850Y-10593934D02*
X8162327Y-10584410D01*
X8162327Y-10584410D02*
X8152803Y-10565363D01*
X8152803Y-10565363D02*
X8143279Y-10527267D01*
X8143279Y-10527267D02*
X8143279Y-10479648D01*
X8143279Y-10479648D02*
X8152803Y-10441553D01*
X8152803Y-10441553D02*
X8162327Y-10422505D01*
X8162327Y-10422505D02*
X8171850Y-10412982D01*
X8171850Y-10412982D02*
X8190898Y-10403458D01*
X8343279Y-10584410D02*
X8352803Y-10593934D01*
X8352803Y-10593934D02*
X8343279Y-10603458D01*
X8343279Y-10603458D02*
X8333755Y-10593934D01*
X8333755Y-10593934D02*
X8343279Y-10584410D01*
X8343279Y-10584410D02*
X8343279Y-10603458D01*
X8524231Y-10403458D02*
X8486136Y-10403458D01*
X8486136Y-10403458D02*
X8467089Y-10412982D01*
X8467089Y-10412982D02*
X8457565Y-10422505D01*
X8457565Y-10422505D02*
X8438517Y-10451077D01*
X8438517Y-10451077D02*
X8428993Y-10489172D01*
X8428993Y-10489172D02*
X8428993Y-10565363D01*
X8428993Y-10565363D02*
X8438517Y-10584410D01*
X8438517Y-10584410D02*
X8448041Y-10593934D01*
X8448041Y-10593934D02*
X8467089Y-10603458D01*
X8467089Y-10603458D02*
X8505184Y-10603458D01*
X8505184Y-10603458D02*
X8524231Y-10593934D01*
X8524231Y-10593934D02*
X8533755Y-10584410D01*
X8533755Y-10584410D02*
X8543279Y-10565363D01*
X8543279Y-10565363D02*
X8543279Y-10517744D01*
X8543279Y-10517744D02*
X8533755Y-10498696D01*
X8533755Y-10498696D02*
X8524231Y-10489172D01*
X8524231Y-10489172D02*
X8505184Y-10479648D01*
X8505184Y-10479648D02*
X8467089Y-10479648D01*
X8467089Y-10479648D02*
X8448041Y-10489172D01*
X8448041Y-10489172D02*
X8438517Y-10498696D01*
X8438517Y-10498696D02*
X8428993Y-10517744D01*
X8667089Y-10403458D02*
X8686136Y-10403458D01*
X8686136Y-10403458D02*
X8705184Y-10412982D01*
X8705184Y-10412982D02*
X8714708Y-10422505D01*
X8714708Y-10422505D02*
X8724231Y-10441553D01*
X8724231Y-10441553D02*
X8733755Y-10479648D01*
X8733755Y-10479648D02*
X8733755Y-10527267D01*
X8733755Y-10527267D02*
X8724231Y-10565363D01*
X8724231Y-10565363D02*
X8714708Y-10584410D01*
X8714708Y-10584410D02*
X8705184Y-10593934D01*
X8705184Y-10593934D02*
X8686136Y-10603458D01*
X8686136Y-10603458D02*
X8667089Y-10603458D01*
X8667089Y-10603458D02*
X8648041Y-10593934D01*
X8648041Y-10593934D02*
X8638517Y-10584410D01*
X8638517Y-10584410D02*
X8628993Y-10565363D01*
X8628993Y-10565363D02*
X8619470Y-10527267D01*
X8619470Y-10527267D02*
X8619470Y-10479648D01*
X8619470Y-10479648D02*
X8628993Y-10441553D01*
X8628993Y-10441553D02*
X8638517Y-10422505D01*
X8638517Y-10422505D02*
X8648041Y-10412982D01*
X8648041Y-10412982D02*
X8667089Y-10403458D01*
X8857565Y-10403458D02*
X8876612Y-10403458D01*
X8876612Y-10403458D02*
X8895660Y-10412982D01*
X8895660Y-10412982D02*
X8905184Y-10422505D01*
X8905184Y-10422505D02*
X8914708Y-10441553D01*
X8914708Y-10441553D02*
X8924231Y-10479648D01*
X8924231Y-10479648D02*
X8924231Y-10527267D01*
X8924231Y-10527267D02*
X8914708Y-10565363D01*
X8914708Y-10565363D02*
X8905184Y-10584410D01*
X8905184Y-10584410D02*
X8895660Y-10593934D01*
X8895660Y-10593934D02*
X8876612Y-10603458D01*
X8876612Y-10603458D02*
X8857565Y-10603458D01*
X8857565Y-10603458D02*
X8838517Y-10593934D01*
X8838517Y-10593934D02*
X8828993Y-10584410D01*
X8828993Y-10584410D02*
X8819470Y-10565363D01*
X8819470Y-10565363D02*
X8809946Y-10527267D01*
X8809946Y-10527267D02*
X8809946Y-10479648D01*
X8809946Y-10479648D02*
X8819470Y-10441553D01*
X8819470Y-10441553D02*
X8828993Y-10422505D01*
X8828993Y-10422505D02*
X8838517Y-10412982D01*
X8838517Y-10412982D02*
X8857565Y-10403458D01*
X9009946Y-10603458D02*
X9009946Y-10470124D01*
X9009946Y-10489172D02*
X9019470Y-10479648D01*
X9019470Y-10479648D02*
X9038517Y-10470124D01*
X9038517Y-10470124D02*
X9067089Y-10470124D01*
X9067089Y-10470124D02*
X9086136Y-10479648D01*
X9086136Y-10479648D02*
X9095660Y-10498696D01*
X9095660Y-10498696D02*
X9095660Y-10603458D01*
X9095660Y-10498696D02*
X9105184Y-10479648D01*
X9105184Y-10479648D02*
X9124231Y-10470124D01*
X9124231Y-10470124D02*
X9152803Y-10470124D01*
X9152803Y-10470124D02*
X9171851Y-10479648D01*
X9171851Y-10479648D02*
X9181374Y-10498696D01*
X9181374Y-10498696D02*
X9181374Y-10603458D01*
X9276612Y-10603458D02*
X9276612Y-10470124D01*
X9276612Y-10489172D02*
X9286136Y-10479648D01*
X9286136Y-10479648D02*
X9305184Y-10470124D01*
X9305184Y-10470124D02*
X9333755Y-10470124D01*
X9333755Y-10470124D02*
X9352803Y-10479648D01*
X9352803Y-10479648D02*
X9362327Y-10498696D01*
X9362327Y-10498696D02*
X9362327Y-10603458D01*
X9362327Y-10498696D02*
X9371851Y-10479648D01*
X9371851Y-10479648D02*
X9390898Y-10470124D01*
X9390898Y-10470124D02*
X9419470Y-10470124D01*
X9419470Y-10470124D02*
X9438517Y-10479648D01*
X9438517Y-10479648D02*
X9448041Y-10498696D01*
X9448041Y-10498696D02*
X9448041Y-10603458D01*
X9838517Y-10393934D02*
X9667089Y-10651077D01*
X10095660Y-10403458D02*
X10114708Y-10403458D01*
X10114708Y-10403458D02*
X10133755Y-10412982D01*
X10133755Y-10412982D02*
X10143279Y-10422505D01*
X10143279Y-10422505D02*
X10152803Y-10441553D01*
X10152803Y-10441553D02*
X10162327Y-10479648D01*
X10162327Y-10479648D02*
X10162327Y-10527267D01*
X10162327Y-10527267D02*
X10152803Y-10565363D01*
X10152803Y-10565363D02*
X10143279Y-10584410D01*
X10143279Y-10584410D02*
X10133755Y-10593934D01*
X10133755Y-10593934D02*
X10114708Y-10603458D01*
X10114708Y-10603458D02*
X10095660Y-10603458D01*
X10095660Y-10603458D02*
X10076613Y-10593934D01*
X10076613Y-10593934D02*
X10067089Y-10584410D01*
X10067089Y-10584410D02*
X10057565Y-10565363D01*
X10057565Y-10565363D02*
X10048041Y-10527267D01*
X10048041Y-10527267D02*
X10048041Y-10479648D01*
X10048041Y-10479648D02*
X10057565Y-10441553D01*
X10057565Y-10441553D02*
X10067089Y-10422505D01*
X10067089Y-10422505D02*
X10076613Y-10412982D01*
X10076613Y-10412982D02*
X10095660Y-10403458D01*
X10248041Y-10584410D02*
X10257565Y-10593934D01*
X10257565Y-10593934D02*
X10248041Y-10603458D01*
X10248041Y-10603458D02*
X10238517Y-10593934D01*
X10238517Y-10593934D02*
X10248041Y-10584410D01*
X10248041Y-10584410D02*
X10248041Y-10603458D01*
X10381374Y-10403458D02*
X10400422Y-10403458D01*
X10400422Y-10403458D02*
X10419470Y-10412982D01*
X10419470Y-10412982D02*
X10428994Y-10422505D01*
X10428994Y-10422505D02*
X10438517Y-10441553D01*
X10438517Y-10441553D02*
X10448041Y-10479648D01*
X10448041Y-10479648D02*
X10448041Y-10527267D01*
X10448041Y-10527267D02*
X10438517Y-10565363D01*
X10438517Y-10565363D02*
X10428994Y-10584410D01*
X10428994Y-10584410D02*
X10419470Y-10593934D01*
X10419470Y-10593934D02*
X10400422Y-10603458D01*
X10400422Y-10603458D02*
X10381374Y-10603458D01*
X10381374Y-10603458D02*
X10362327Y-10593934D01*
X10362327Y-10593934D02*
X10352803Y-10584410D01*
X10352803Y-10584410D02*
X10343279Y-10565363D01*
X10343279Y-10565363D02*
X10333755Y-10527267D01*
X10333755Y-10527267D02*
X10333755Y-10479648D01*
X10333755Y-10479648D02*
X10343279Y-10441553D01*
X10343279Y-10441553D02*
X10352803Y-10422505D01*
X10352803Y-10422505D02*
X10362327Y-10412982D01*
X10362327Y-10412982D02*
X10381374Y-10403458D01*
X10524232Y-10422505D02*
X10533755Y-10412982D01*
X10533755Y-10412982D02*
X10552803Y-10403458D01*
X10552803Y-10403458D02*
X10600422Y-10403458D01*
X10600422Y-10403458D02*
X10619470Y-10412982D01*
X10619470Y-10412982D02*
X10628994Y-10422505D01*
X10628994Y-10422505D02*
X10638517Y-10441553D01*
X10638517Y-10441553D02*
X10638517Y-10460601D01*
X10638517Y-10460601D02*
X10628994Y-10489172D01*
X10628994Y-10489172D02*
X10514708Y-10603458D01*
X10514708Y-10603458D02*
X10638517Y-10603458D01*
X10705184Y-10403458D02*
X10828994Y-10403458D01*
X10828994Y-10403458D02*
X10762327Y-10479648D01*
X10762327Y-10479648D02*
X10790898Y-10479648D01*
X10790898Y-10479648D02*
X10809946Y-10489172D01*
X10809946Y-10489172D02*
X10819470Y-10498696D01*
X10819470Y-10498696D02*
X10828994Y-10517744D01*
X10828994Y-10517744D02*
X10828994Y-10565363D01*
X10828994Y-10565363D02*
X10819470Y-10584410D01*
X10819470Y-10584410D02*
X10809946Y-10593934D01*
X10809946Y-10593934D02*
X10790898Y-10603458D01*
X10790898Y-10603458D02*
X10733755Y-10603458D01*
X10733755Y-10603458D02*
X10714708Y-10593934D01*
X10714708Y-10593934D02*
X10705184Y-10584410D01*
X11000422Y-10403458D02*
X10962327Y-10403458D01*
X10962327Y-10403458D02*
X10943279Y-10412982D01*
X10943279Y-10412982D02*
X10933755Y-10422505D01*
X10933755Y-10422505D02*
X10914708Y-10451077D01*
X10914708Y-10451077D02*
X10905184Y-10489172D01*
X10905184Y-10489172D02*
X10905184Y-10565363D01*
X10905184Y-10565363D02*
X10914708Y-10584410D01*
X10914708Y-10584410D02*
X10924232Y-10593934D01*
X10924232Y-10593934D02*
X10943279Y-10603458D01*
X10943279Y-10603458D02*
X10981375Y-10603458D01*
X10981375Y-10603458D02*
X11000422Y-10593934D01*
X11000422Y-10593934D02*
X11009946Y-10584410D01*
X11009946Y-10584410D02*
X11019470Y-10565363D01*
X11019470Y-10565363D02*
X11019470Y-10517744D01*
X11019470Y-10517744D02*
X11009946Y-10498696D01*
X11009946Y-10498696D02*
X11000422Y-10489172D01*
X11000422Y-10489172D02*
X10981375Y-10479648D01*
X10981375Y-10479648D02*
X10943279Y-10479648D01*
X10943279Y-10479648D02*
X10924232Y-10489172D01*
X10924232Y-10489172D02*
X10914708Y-10498696D01*
X10914708Y-10498696D02*
X10905184Y-10517744D01*
X11095660Y-10403458D02*
X11095660Y-10441553D01*
X11171851Y-10403458D02*
X11171851Y-10441553D01*
X11467089Y-10679648D02*
X11457565Y-10670124D01*
X11457565Y-10670124D02*
X11438517Y-10641553D01*
X11438517Y-10641553D02*
X11428994Y-10622505D01*
X11428994Y-10622505D02*
X11419470Y-10593934D01*
X11419470Y-10593934D02*
X11409946Y-10546315D01*
X11409946Y-10546315D02*
X11409946Y-10508220D01*
X11409946Y-10508220D02*
X11419470Y-10460601D01*
X11419470Y-10460601D02*
X11428994Y-10432029D01*
X11428994Y-10432029D02*
X11438517Y-10412982D01*
X11438517Y-10412982D02*
X11457565Y-10384410D01*
X11457565Y-10384410D02*
X11467089Y-10374886D01*
X11524232Y-10403458D02*
X11648041Y-10403458D01*
X11648041Y-10403458D02*
X11581374Y-10479648D01*
X11581374Y-10479648D02*
X11609946Y-10479648D01*
X11609946Y-10479648D02*
X11628994Y-10489172D01*
X11628994Y-10489172D02*
X11638517Y-10498696D01*
X11638517Y-10498696D02*
X11648041Y-10517744D01*
X11648041Y-10517744D02*
X11648041Y-10565363D01*
X11648041Y-10565363D02*
X11638517Y-10584410D01*
X11638517Y-10584410D02*
X11628994Y-10593934D01*
X11628994Y-10593934D02*
X11609946Y-10603458D01*
X11609946Y-10603458D02*
X11552803Y-10603458D01*
X11552803Y-10603458D02*
X11533755Y-10593934D01*
X11533755Y-10593934D02*
X11524232Y-10584410D01*
X11724232Y-10422505D02*
X11733755Y-10412982D01*
X11733755Y-10412982D02*
X11752803Y-10403458D01*
X11752803Y-10403458D02*
X11800422Y-10403458D01*
X11800422Y-10403458D02*
X11819470Y-10412982D01*
X11819470Y-10412982D02*
X11828994Y-10422505D01*
X11828994Y-10422505D02*
X11838517Y-10441553D01*
X11838517Y-10441553D02*
X11838517Y-10460601D01*
X11838517Y-10460601D02*
X11828994Y-10489172D01*
X11828994Y-10489172D02*
X11714708Y-10603458D01*
X11714708Y-10603458D02*
X11838517Y-10603458D01*
X12076613Y-10603458D02*
X12076613Y-10403458D01*
X12162327Y-10603458D02*
X12162327Y-10498696D01*
X12162327Y-10498696D02*
X12152803Y-10479648D01*
X12152803Y-10479648D02*
X12133756Y-10470124D01*
X12133756Y-10470124D02*
X12105184Y-10470124D01*
X12105184Y-10470124D02*
X12086136Y-10479648D01*
X12086136Y-10479648D02*
X12076613Y-10489172D01*
X12286136Y-10603458D02*
X12267089Y-10593934D01*
X12267089Y-10593934D02*
X12257565Y-10584410D01*
X12257565Y-10584410D02*
X12248041Y-10565363D01*
X12248041Y-10565363D02*
X12248041Y-10508220D01*
X12248041Y-10508220D02*
X12257565Y-10489172D01*
X12257565Y-10489172D02*
X12267089Y-10479648D01*
X12267089Y-10479648D02*
X12286136Y-10470124D01*
X12286136Y-10470124D02*
X12314708Y-10470124D01*
X12314708Y-10470124D02*
X12333756Y-10479648D01*
X12333756Y-10479648D02*
X12343279Y-10489172D01*
X12343279Y-10489172D02*
X12352803Y-10508220D01*
X12352803Y-10508220D02*
X12352803Y-10565363D01*
X12352803Y-10565363D02*
X12343279Y-10584410D01*
X12343279Y-10584410D02*
X12333756Y-10593934D01*
X12333756Y-10593934D02*
X12314708Y-10603458D01*
X12314708Y-10603458D02*
X12286136Y-10603458D01*
X12467089Y-10603458D02*
X12448041Y-10593934D01*
X12448041Y-10593934D02*
X12438517Y-10574886D01*
X12438517Y-10574886D02*
X12438517Y-10403458D01*
X12619470Y-10593934D02*
X12600422Y-10603458D01*
X12600422Y-10603458D02*
X12562327Y-10603458D01*
X12562327Y-10603458D02*
X12543279Y-10593934D01*
X12543279Y-10593934D02*
X12533756Y-10574886D01*
X12533756Y-10574886D02*
X12533756Y-10498696D01*
X12533756Y-10498696D02*
X12543279Y-10479648D01*
X12543279Y-10479648D02*
X12562327Y-10470124D01*
X12562327Y-10470124D02*
X12600422Y-10470124D01*
X12600422Y-10470124D02*
X12619470Y-10479648D01*
X12619470Y-10479648D02*
X12628994Y-10498696D01*
X12628994Y-10498696D02*
X12628994Y-10517744D01*
X12628994Y-10517744D02*
X12533756Y-10536791D01*
X12705184Y-10593934D02*
X12724232Y-10603458D01*
X12724232Y-10603458D02*
X12762327Y-10603458D01*
X12762327Y-10603458D02*
X12781375Y-10593934D01*
X12781375Y-10593934D02*
X12790898Y-10574886D01*
X12790898Y-10574886D02*
X12790898Y-10565363D01*
X12790898Y-10565363D02*
X12781375Y-10546315D01*
X12781375Y-10546315D02*
X12762327Y-10536791D01*
X12762327Y-10536791D02*
X12733756Y-10536791D01*
X12733756Y-10536791D02*
X12714708Y-10527267D01*
X12714708Y-10527267D02*
X12705184Y-10508220D01*
X12705184Y-10508220D02*
X12705184Y-10498696D01*
X12705184Y-10498696D02*
X12714708Y-10479648D01*
X12714708Y-10479648D02*
X12733756Y-10470124D01*
X12733756Y-10470124D02*
X12762327Y-10470124D01*
X12762327Y-10470124D02*
X12781375Y-10479648D01*
X12857565Y-10679648D02*
X12867089Y-10670124D01*
X12867089Y-10670124D02*
X12886137Y-10641553D01*
X12886137Y-10641553D02*
X12895660Y-10622505D01*
X12895660Y-10622505D02*
X12905184Y-10593934D01*
X12905184Y-10593934D02*
X12914708Y-10546315D01*
X12914708Y-10546315D02*
X12914708Y-10508220D01*
X12914708Y-10508220D02*
X12905184Y-10460601D01*
X12905184Y-10460601D02*
X12895660Y-10432029D01*
X12895660Y-10432029D02*
X12886137Y-10412982D01*
X12886137Y-10412982D02*
X12867089Y-10384410D01*
X12867089Y-10384410D02*
X12857565Y-10374886D01*
D12*
X7841026Y-10724974D02*
X7841026Y-10826974D01*
X7790026Y-10775974D02*
X7892026Y-10775974D01*
D11*
X8257565Y-10867458D02*
X8143279Y-10867458D01*
X8200422Y-10867458D02*
X8200422Y-10667458D01*
X8200422Y-10667458D02*
X8181374Y-10696029D01*
X8181374Y-10696029D02*
X8162327Y-10715077D01*
X8162327Y-10715077D02*
X8143279Y-10724601D01*
X8343279Y-10848410D02*
X8352803Y-10857934D01*
X8352803Y-10857934D02*
X8343279Y-10867458D01*
X8343279Y-10867458D02*
X8333755Y-10857934D01*
X8333755Y-10857934D02*
X8343279Y-10848410D01*
X8343279Y-10848410D02*
X8343279Y-10867458D01*
X8476612Y-10667458D02*
X8495660Y-10667458D01*
X8495660Y-10667458D02*
X8514708Y-10676982D01*
X8514708Y-10676982D02*
X8524231Y-10686505D01*
X8524231Y-10686505D02*
X8533755Y-10705553D01*
X8533755Y-10705553D02*
X8543279Y-10743648D01*
X8543279Y-10743648D02*
X8543279Y-10791267D01*
X8543279Y-10791267D02*
X8533755Y-10829363D01*
X8533755Y-10829363D02*
X8524231Y-10848410D01*
X8524231Y-10848410D02*
X8514708Y-10857934D01*
X8514708Y-10857934D02*
X8495660Y-10867458D01*
X8495660Y-10867458D02*
X8476612Y-10867458D01*
X8476612Y-10867458D02*
X8457565Y-10857934D01*
X8457565Y-10857934D02*
X8448041Y-10848410D01*
X8448041Y-10848410D02*
X8438517Y-10829363D01*
X8438517Y-10829363D02*
X8428993Y-10791267D01*
X8428993Y-10791267D02*
X8428993Y-10743648D01*
X8428993Y-10743648D02*
X8438517Y-10705553D01*
X8438517Y-10705553D02*
X8448041Y-10686505D01*
X8448041Y-10686505D02*
X8457565Y-10676982D01*
X8457565Y-10676982D02*
X8476612Y-10667458D01*
X8619470Y-10686505D02*
X8628993Y-10676982D01*
X8628993Y-10676982D02*
X8648041Y-10667458D01*
X8648041Y-10667458D02*
X8695660Y-10667458D01*
X8695660Y-10667458D02*
X8714708Y-10676982D01*
X8714708Y-10676982D02*
X8724231Y-10686505D01*
X8724231Y-10686505D02*
X8733755Y-10705553D01*
X8733755Y-10705553D02*
X8733755Y-10724601D01*
X8733755Y-10724601D02*
X8724231Y-10753172D01*
X8724231Y-10753172D02*
X8609946Y-10867458D01*
X8609946Y-10867458D02*
X8733755Y-10867458D01*
X8857565Y-10667458D02*
X8876612Y-10667458D01*
X8876612Y-10667458D02*
X8895660Y-10676982D01*
X8895660Y-10676982D02*
X8905184Y-10686505D01*
X8905184Y-10686505D02*
X8914708Y-10705553D01*
X8914708Y-10705553D02*
X8924231Y-10743648D01*
X8924231Y-10743648D02*
X8924231Y-10791267D01*
X8924231Y-10791267D02*
X8914708Y-10829363D01*
X8914708Y-10829363D02*
X8905184Y-10848410D01*
X8905184Y-10848410D02*
X8895660Y-10857934D01*
X8895660Y-10857934D02*
X8876612Y-10867458D01*
X8876612Y-10867458D02*
X8857565Y-10867458D01*
X8857565Y-10867458D02*
X8838517Y-10857934D01*
X8838517Y-10857934D02*
X8828993Y-10848410D01*
X8828993Y-10848410D02*
X8819470Y-10829363D01*
X8819470Y-10829363D02*
X8809946Y-10791267D01*
X8809946Y-10791267D02*
X8809946Y-10743648D01*
X8809946Y-10743648D02*
X8819470Y-10705553D01*
X8819470Y-10705553D02*
X8828993Y-10686505D01*
X8828993Y-10686505D02*
X8838517Y-10676982D01*
X8838517Y-10676982D02*
X8857565Y-10667458D01*
X9009946Y-10867458D02*
X9009946Y-10734124D01*
X9009946Y-10753172D02*
X9019470Y-10743648D01*
X9019470Y-10743648D02*
X9038517Y-10734124D01*
X9038517Y-10734124D02*
X9067089Y-10734124D01*
X9067089Y-10734124D02*
X9086136Y-10743648D01*
X9086136Y-10743648D02*
X9095660Y-10762696D01*
X9095660Y-10762696D02*
X9095660Y-10867458D01*
X9095660Y-10762696D02*
X9105184Y-10743648D01*
X9105184Y-10743648D02*
X9124231Y-10734124D01*
X9124231Y-10734124D02*
X9152803Y-10734124D01*
X9152803Y-10734124D02*
X9171851Y-10743648D01*
X9171851Y-10743648D02*
X9181374Y-10762696D01*
X9181374Y-10762696D02*
X9181374Y-10867458D01*
X9276612Y-10867458D02*
X9276612Y-10734124D01*
X9276612Y-10753172D02*
X9286136Y-10743648D01*
X9286136Y-10743648D02*
X9305184Y-10734124D01*
X9305184Y-10734124D02*
X9333755Y-10734124D01*
X9333755Y-10734124D02*
X9352803Y-10743648D01*
X9352803Y-10743648D02*
X9362327Y-10762696D01*
X9362327Y-10762696D02*
X9362327Y-10867458D01*
X9362327Y-10762696D02*
X9371851Y-10743648D01*
X9371851Y-10743648D02*
X9390898Y-10734124D01*
X9390898Y-10734124D02*
X9419470Y-10734124D01*
X9419470Y-10734124D02*
X9438517Y-10743648D01*
X9438517Y-10743648D02*
X9448041Y-10762696D01*
X9448041Y-10762696D02*
X9448041Y-10867458D01*
X9838517Y-10657934D02*
X9667089Y-10915077D01*
X10095660Y-10667458D02*
X10114708Y-10667458D01*
X10114708Y-10667458D02*
X10133755Y-10676982D01*
X10133755Y-10676982D02*
X10143279Y-10686505D01*
X10143279Y-10686505D02*
X10152803Y-10705553D01*
X10152803Y-10705553D02*
X10162327Y-10743648D01*
X10162327Y-10743648D02*
X10162327Y-10791267D01*
X10162327Y-10791267D02*
X10152803Y-10829363D01*
X10152803Y-10829363D02*
X10143279Y-10848410D01*
X10143279Y-10848410D02*
X10133755Y-10857934D01*
X10133755Y-10857934D02*
X10114708Y-10867458D01*
X10114708Y-10867458D02*
X10095660Y-10867458D01*
X10095660Y-10867458D02*
X10076613Y-10857934D01*
X10076613Y-10857934D02*
X10067089Y-10848410D01*
X10067089Y-10848410D02*
X10057565Y-10829363D01*
X10057565Y-10829363D02*
X10048041Y-10791267D01*
X10048041Y-10791267D02*
X10048041Y-10743648D01*
X10048041Y-10743648D02*
X10057565Y-10705553D01*
X10057565Y-10705553D02*
X10067089Y-10686505D01*
X10067089Y-10686505D02*
X10076613Y-10676982D01*
X10076613Y-10676982D02*
X10095660Y-10667458D01*
X10248041Y-10848410D02*
X10257565Y-10857934D01*
X10257565Y-10857934D02*
X10248041Y-10867458D01*
X10248041Y-10867458D02*
X10238517Y-10857934D01*
X10238517Y-10857934D02*
X10248041Y-10848410D01*
X10248041Y-10848410D02*
X10248041Y-10867458D01*
X10381374Y-10667458D02*
X10400422Y-10667458D01*
X10400422Y-10667458D02*
X10419470Y-10676982D01*
X10419470Y-10676982D02*
X10428994Y-10686505D01*
X10428994Y-10686505D02*
X10438517Y-10705553D01*
X10438517Y-10705553D02*
X10448041Y-10743648D01*
X10448041Y-10743648D02*
X10448041Y-10791267D01*
X10448041Y-10791267D02*
X10438517Y-10829363D01*
X10438517Y-10829363D02*
X10428994Y-10848410D01*
X10428994Y-10848410D02*
X10419470Y-10857934D01*
X10419470Y-10857934D02*
X10400422Y-10867458D01*
X10400422Y-10867458D02*
X10381374Y-10867458D01*
X10381374Y-10867458D02*
X10362327Y-10857934D01*
X10362327Y-10857934D02*
X10352803Y-10848410D01*
X10352803Y-10848410D02*
X10343279Y-10829363D01*
X10343279Y-10829363D02*
X10333755Y-10791267D01*
X10333755Y-10791267D02*
X10333755Y-10743648D01*
X10333755Y-10743648D02*
X10343279Y-10705553D01*
X10343279Y-10705553D02*
X10352803Y-10686505D01*
X10352803Y-10686505D02*
X10362327Y-10676982D01*
X10362327Y-10676982D02*
X10381374Y-10667458D01*
X10619470Y-10734124D02*
X10619470Y-10867458D01*
X10571851Y-10657934D02*
X10524232Y-10800791D01*
X10524232Y-10800791D02*
X10648041Y-10800791D01*
X10762327Y-10667458D02*
X10781375Y-10667458D01*
X10781375Y-10667458D02*
X10800422Y-10676982D01*
X10800422Y-10676982D02*
X10809946Y-10686505D01*
X10809946Y-10686505D02*
X10819470Y-10705553D01*
X10819470Y-10705553D02*
X10828994Y-10743648D01*
X10828994Y-10743648D02*
X10828994Y-10791267D01*
X10828994Y-10791267D02*
X10819470Y-10829363D01*
X10819470Y-10829363D02*
X10809946Y-10848410D01*
X10809946Y-10848410D02*
X10800422Y-10857934D01*
X10800422Y-10857934D02*
X10781375Y-10867458D01*
X10781375Y-10867458D02*
X10762327Y-10867458D01*
X10762327Y-10867458D02*
X10743279Y-10857934D01*
X10743279Y-10857934D02*
X10733755Y-10848410D01*
X10733755Y-10848410D02*
X10724232Y-10829363D01*
X10724232Y-10829363D02*
X10714708Y-10791267D01*
X10714708Y-10791267D02*
X10714708Y-10743648D01*
X10714708Y-10743648D02*
X10724232Y-10705553D01*
X10724232Y-10705553D02*
X10733755Y-10686505D01*
X10733755Y-10686505D02*
X10743279Y-10676982D01*
X10743279Y-10676982D02*
X10762327Y-10667458D01*
X10905184Y-10686505D02*
X10914708Y-10676982D01*
X10914708Y-10676982D02*
X10933755Y-10667458D01*
X10933755Y-10667458D02*
X10981375Y-10667458D01*
X10981375Y-10667458D02*
X11000422Y-10676982D01*
X11000422Y-10676982D02*
X11009946Y-10686505D01*
X11009946Y-10686505D02*
X11019470Y-10705553D01*
X11019470Y-10705553D02*
X11019470Y-10724601D01*
X11019470Y-10724601D02*
X11009946Y-10753172D01*
X11009946Y-10753172D02*
X10895660Y-10867458D01*
X10895660Y-10867458D02*
X11019470Y-10867458D01*
X11095660Y-10667458D02*
X11095660Y-10705553D01*
X11171851Y-10667458D02*
X11171851Y-10705553D01*
X11467089Y-10943648D02*
X11457565Y-10934124D01*
X11457565Y-10934124D02*
X11438517Y-10905553D01*
X11438517Y-10905553D02*
X11428994Y-10886505D01*
X11428994Y-10886505D02*
X11419470Y-10857934D01*
X11419470Y-10857934D02*
X11409946Y-10810315D01*
X11409946Y-10810315D02*
X11409946Y-10772220D01*
X11409946Y-10772220D02*
X11419470Y-10724601D01*
X11419470Y-10724601D02*
X11428994Y-10696029D01*
X11428994Y-10696029D02*
X11438517Y-10676982D01*
X11438517Y-10676982D02*
X11457565Y-10648410D01*
X11457565Y-10648410D02*
X11467089Y-10638886D01*
X11571851Y-10753172D02*
X11552803Y-10743648D01*
X11552803Y-10743648D02*
X11543279Y-10734124D01*
X11543279Y-10734124D02*
X11533755Y-10715077D01*
X11533755Y-10715077D02*
X11533755Y-10705553D01*
X11533755Y-10705553D02*
X11543279Y-10686505D01*
X11543279Y-10686505D02*
X11552803Y-10676982D01*
X11552803Y-10676982D02*
X11571851Y-10667458D01*
X11571851Y-10667458D02*
X11609946Y-10667458D01*
X11609946Y-10667458D02*
X11628994Y-10676982D01*
X11628994Y-10676982D02*
X11638517Y-10686505D01*
X11638517Y-10686505D02*
X11648041Y-10705553D01*
X11648041Y-10705553D02*
X11648041Y-10715077D01*
X11648041Y-10715077D02*
X11638517Y-10734124D01*
X11638517Y-10734124D02*
X11628994Y-10743648D01*
X11628994Y-10743648D02*
X11609946Y-10753172D01*
X11609946Y-10753172D02*
X11571851Y-10753172D01*
X11571851Y-10753172D02*
X11552803Y-10762696D01*
X11552803Y-10762696D02*
X11543279Y-10772220D01*
X11543279Y-10772220D02*
X11533755Y-10791267D01*
X11533755Y-10791267D02*
X11533755Y-10829363D01*
X11533755Y-10829363D02*
X11543279Y-10848410D01*
X11543279Y-10848410D02*
X11552803Y-10857934D01*
X11552803Y-10857934D02*
X11571851Y-10867458D01*
X11571851Y-10867458D02*
X11609946Y-10867458D01*
X11609946Y-10867458D02*
X11628994Y-10857934D01*
X11628994Y-10857934D02*
X11638517Y-10848410D01*
X11638517Y-10848410D02*
X11648041Y-10829363D01*
X11648041Y-10829363D02*
X11648041Y-10791267D01*
X11648041Y-10791267D02*
X11638517Y-10772220D01*
X11638517Y-10772220D02*
X11628994Y-10762696D01*
X11628994Y-10762696D02*
X11609946Y-10753172D01*
X11886136Y-10867458D02*
X11886136Y-10667458D01*
X11971851Y-10867458D02*
X11971851Y-10762696D01*
X11971851Y-10762696D02*
X11962327Y-10743648D01*
X11962327Y-10743648D02*
X11943279Y-10734124D01*
X11943279Y-10734124D02*
X11914708Y-10734124D01*
X11914708Y-10734124D02*
X11895660Y-10743648D01*
X11895660Y-10743648D02*
X11886136Y-10753172D01*
X12095660Y-10867458D02*
X12076613Y-10857934D01*
X12076613Y-10857934D02*
X12067089Y-10848410D01*
X12067089Y-10848410D02*
X12057565Y-10829363D01*
X12057565Y-10829363D02*
X12057565Y-10772220D01*
X12057565Y-10772220D02*
X12067089Y-10753172D01*
X12067089Y-10753172D02*
X12076613Y-10743648D01*
X12076613Y-10743648D02*
X12095660Y-10734124D01*
X12095660Y-10734124D02*
X12124232Y-10734124D01*
X12124232Y-10734124D02*
X12143279Y-10743648D01*
X12143279Y-10743648D02*
X12152803Y-10753172D01*
X12152803Y-10753172D02*
X12162327Y-10772220D01*
X12162327Y-10772220D02*
X12162327Y-10829363D01*
X12162327Y-10829363D02*
X12152803Y-10848410D01*
X12152803Y-10848410D02*
X12143279Y-10857934D01*
X12143279Y-10857934D02*
X12124232Y-10867458D01*
X12124232Y-10867458D02*
X12095660Y-10867458D01*
X12276613Y-10867458D02*
X12257565Y-10857934D01*
X12257565Y-10857934D02*
X12248041Y-10838886D01*
X12248041Y-10838886D02*
X12248041Y-10667458D01*
X12428994Y-10857934D02*
X12409946Y-10867458D01*
X12409946Y-10867458D02*
X12371851Y-10867458D01*
X12371851Y-10867458D02*
X12352803Y-10857934D01*
X12352803Y-10857934D02*
X12343279Y-10838886D01*
X12343279Y-10838886D02*
X12343279Y-10762696D01*
X12343279Y-10762696D02*
X12352803Y-10743648D01*
X12352803Y-10743648D02*
X12371851Y-10734124D01*
X12371851Y-10734124D02*
X12409946Y-10734124D01*
X12409946Y-10734124D02*
X12428994Y-10743648D01*
X12428994Y-10743648D02*
X12438517Y-10762696D01*
X12438517Y-10762696D02*
X12438517Y-10781744D01*
X12438517Y-10781744D02*
X12343279Y-10800791D01*
X12514708Y-10857934D02*
X12533756Y-10867458D01*
X12533756Y-10867458D02*
X12571851Y-10867458D01*
X12571851Y-10867458D02*
X12590898Y-10857934D01*
X12590898Y-10857934D02*
X12600422Y-10838886D01*
X12600422Y-10838886D02*
X12600422Y-10829363D01*
X12600422Y-10829363D02*
X12590898Y-10810315D01*
X12590898Y-10810315D02*
X12571851Y-10800791D01*
X12571851Y-10800791D02*
X12543279Y-10800791D01*
X12543279Y-10800791D02*
X12524232Y-10791267D01*
X12524232Y-10791267D02*
X12514708Y-10772220D01*
X12514708Y-10772220D02*
X12514708Y-10762696D01*
X12514708Y-10762696D02*
X12524232Y-10743648D01*
X12524232Y-10743648D02*
X12543279Y-10734124D01*
X12543279Y-10734124D02*
X12571851Y-10734124D01*
X12571851Y-10734124D02*
X12590898Y-10743648D01*
X12667089Y-10943648D02*
X12676613Y-10934124D01*
X12676613Y-10934124D02*
X12695660Y-10905553D01*
X12695660Y-10905553D02*
X12705184Y-10886505D01*
X12705184Y-10886505D02*
X12714708Y-10857934D01*
X12714708Y-10857934D02*
X12724232Y-10810315D01*
X12724232Y-10810315D02*
X12724232Y-10772220D01*
X12724232Y-10772220D02*
X12714708Y-10724601D01*
X12714708Y-10724601D02*
X12705184Y-10696029D01*
X12705184Y-10696029D02*
X12695660Y-10676982D01*
X12695660Y-10676982D02*
X12676613Y-10648410D01*
X12676613Y-10648410D02*
X12667089Y-10638886D01*
X7862737Y-11110685D02*
X7862737Y-10969263D01*
X7721315Y-10969263D01*
X7721315Y-11110685D01*
X7862737Y-11110685D01*
X8238517Y-10998124D02*
X8238517Y-11131458D01*
X8190898Y-10921934D02*
X8143279Y-11064791D01*
X8143279Y-11064791D02*
X8267088Y-11064791D01*
X8343279Y-11112410D02*
X8352803Y-11121934D01*
X8352803Y-11121934D02*
X8343279Y-11131458D01*
X8343279Y-11131458D02*
X8333755Y-11121934D01*
X8333755Y-11121934D02*
X8343279Y-11112410D01*
X8343279Y-11112410D02*
X8343279Y-11131458D01*
X8419470Y-10931458D02*
X8543279Y-10931458D01*
X8543279Y-10931458D02*
X8476612Y-11007648D01*
X8476612Y-11007648D02*
X8505184Y-11007648D01*
X8505184Y-11007648D02*
X8524231Y-11017172D01*
X8524231Y-11017172D02*
X8533755Y-11026696D01*
X8533755Y-11026696D02*
X8543279Y-11045744D01*
X8543279Y-11045744D02*
X8543279Y-11093363D01*
X8543279Y-11093363D02*
X8533755Y-11112410D01*
X8533755Y-11112410D02*
X8524231Y-11121934D01*
X8524231Y-11121934D02*
X8505184Y-11131458D01*
X8505184Y-11131458D02*
X8448041Y-11131458D01*
X8448041Y-11131458D02*
X8428993Y-11121934D01*
X8428993Y-11121934D02*
X8419470Y-11112410D01*
X8667089Y-10931458D02*
X8686136Y-10931458D01*
X8686136Y-10931458D02*
X8705184Y-10940982D01*
X8705184Y-10940982D02*
X8714708Y-10950505D01*
X8714708Y-10950505D02*
X8724231Y-10969553D01*
X8724231Y-10969553D02*
X8733755Y-11007648D01*
X8733755Y-11007648D02*
X8733755Y-11055267D01*
X8733755Y-11055267D02*
X8724231Y-11093363D01*
X8724231Y-11093363D02*
X8714708Y-11112410D01*
X8714708Y-11112410D02*
X8705184Y-11121934D01*
X8705184Y-11121934D02*
X8686136Y-11131458D01*
X8686136Y-11131458D02*
X8667089Y-11131458D01*
X8667089Y-11131458D02*
X8648041Y-11121934D01*
X8648041Y-11121934D02*
X8638517Y-11112410D01*
X8638517Y-11112410D02*
X8628993Y-11093363D01*
X8628993Y-11093363D02*
X8619470Y-11055267D01*
X8619470Y-11055267D02*
X8619470Y-11007648D01*
X8619470Y-11007648D02*
X8628993Y-10969553D01*
X8628993Y-10969553D02*
X8638517Y-10950505D01*
X8638517Y-10950505D02*
X8648041Y-10940982D01*
X8648041Y-10940982D02*
X8667089Y-10931458D01*
X8857565Y-10931458D02*
X8876612Y-10931458D01*
X8876612Y-10931458D02*
X8895660Y-10940982D01*
X8895660Y-10940982D02*
X8905184Y-10950505D01*
X8905184Y-10950505D02*
X8914708Y-10969553D01*
X8914708Y-10969553D02*
X8924231Y-11007648D01*
X8924231Y-11007648D02*
X8924231Y-11055267D01*
X8924231Y-11055267D02*
X8914708Y-11093363D01*
X8914708Y-11093363D02*
X8905184Y-11112410D01*
X8905184Y-11112410D02*
X8895660Y-11121934D01*
X8895660Y-11121934D02*
X8876612Y-11131458D01*
X8876612Y-11131458D02*
X8857565Y-11131458D01*
X8857565Y-11131458D02*
X8838517Y-11121934D01*
X8838517Y-11121934D02*
X8828993Y-11112410D01*
X8828993Y-11112410D02*
X8819470Y-11093363D01*
X8819470Y-11093363D02*
X8809946Y-11055267D01*
X8809946Y-11055267D02*
X8809946Y-11007648D01*
X8809946Y-11007648D02*
X8819470Y-10969553D01*
X8819470Y-10969553D02*
X8828993Y-10950505D01*
X8828993Y-10950505D02*
X8838517Y-10940982D01*
X8838517Y-10940982D02*
X8857565Y-10931458D01*
X9009946Y-11131458D02*
X9009946Y-10998124D01*
X9009946Y-11017172D02*
X9019470Y-11007648D01*
X9019470Y-11007648D02*
X9038517Y-10998124D01*
X9038517Y-10998124D02*
X9067089Y-10998124D01*
X9067089Y-10998124D02*
X9086136Y-11007648D01*
X9086136Y-11007648D02*
X9095660Y-11026696D01*
X9095660Y-11026696D02*
X9095660Y-11131458D01*
X9095660Y-11026696D02*
X9105184Y-11007648D01*
X9105184Y-11007648D02*
X9124231Y-10998124D01*
X9124231Y-10998124D02*
X9152803Y-10998124D01*
X9152803Y-10998124D02*
X9171851Y-11007648D01*
X9171851Y-11007648D02*
X9181374Y-11026696D01*
X9181374Y-11026696D02*
X9181374Y-11131458D01*
X9276612Y-11131458D02*
X9276612Y-10998124D01*
X9276612Y-11017172D02*
X9286136Y-11007648D01*
X9286136Y-11007648D02*
X9305184Y-10998124D01*
X9305184Y-10998124D02*
X9333755Y-10998124D01*
X9333755Y-10998124D02*
X9352803Y-11007648D01*
X9352803Y-11007648D02*
X9362327Y-11026696D01*
X9362327Y-11026696D02*
X9362327Y-11131458D01*
X9362327Y-11026696D02*
X9371851Y-11007648D01*
X9371851Y-11007648D02*
X9390898Y-10998124D01*
X9390898Y-10998124D02*
X9419470Y-10998124D01*
X9419470Y-10998124D02*
X9438517Y-11007648D01*
X9438517Y-11007648D02*
X9448041Y-11026696D01*
X9448041Y-11026696D02*
X9448041Y-11131458D01*
X9838517Y-10921934D02*
X9667089Y-11179077D01*
X10095660Y-10931458D02*
X10114708Y-10931458D01*
X10114708Y-10931458D02*
X10133755Y-10940982D01*
X10133755Y-10940982D02*
X10143279Y-10950505D01*
X10143279Y-10950505D02*
X10152803Y-10969553D01*
X10152803Y-10969553D02*
X10162327Y-11007648D01*
X10162327Y-11007648D02*
X10162327Y-11055267D01*
X10162327Y-11055267D02*
X10152803Y-11093363D01*
X10152803Y-11093363D02*
X10143279Y-11112410D01*
X10143279Y-11112410D02*
X10133755Y-11121934D01*
X10133755Y-11121934D02*
X10114708Y-11131458D01*
X10114708Y-11131458D02*
X10095660Y-11131458D01*
X10095660Y-11131458D02*
X10076613Y-11121934D01*
X10076613Y-11121934D02*
X10067089Y-11112410D01*
X10067089Y-11112410D02*
X10057565Y-11093363D01*
X10057565Y-11093363D02*
X10048041Y-11055267D01*
X10048041Y-11055267D02*
X10048041Y-11007648D01*
X10048041Y-11007648D02*
X10057565Y-10969553D01*
X10057565Y-10969553D02*
X10067089Y-10950505D01*
X10067089Y-10950505D02*
X10076613Y-10940982D01*
X10076613Y-10940982D02*
X10095660Y-10931458D01*
X10248041Y-11112410D02*
X10257565Y-11121934D01*
X10257565Y-11121934D02*
X10248041Y-11131458D01*
X10248041Y-11131458D02*
X10238517Y-11121934D01*
X10238517Y-11121934D02*
X10248041Y-11112410D01*
X10248041Y-11112410D02*
X10248041Y-11131458D01*
X10448041Y-11131458D02*
X10333755Y-11131458D01*
X10390898Y-11131458D02*
X10390898Y-10931458D01*
X10390898Y-10931458D02*
X10371851Y-10960029D01*
X10371851Y-10960029D02*
X10352803Y-10979077D01*
X10352803Y-10979077D02*
X10333755Y-10988601D01*
X10619470Y-10931458D02*
X10581374Y-10931458D01*
X10581374Y-10931458D02*
X10562327Y-10940982D01*
X10562327Y-10940982D02*
X10552803Y-10950505D01*
X10552803Y-10950505D02*
X10533755Y-10979077D01*
X10533755Y-10979077D02*
X10524232Y-11017172D01*
X10524232Y-11017172D02*
X10524232Y-11093363D01*
X10524232Y-11093363D02*
X10533755Y-11112410D01*
X10533755Y-11112410D02*
X10543279Y-11121934D01*
X10543279Y-11121934D02*
X10562327Y-11131458D01*
X10562327Y-11131458D02*
X10600422Y-11131458D01*
X10600422Y-11131458D02*
X10619470Y-11121934D01*
X10619470Y-11121934D02*
X10628994Y-11112410D01*
X10628994Y-11112410D02*
X10638517Y-11093363D01*
X10638517Y-11093363D02*
X10638517Y-11045744D01*
X10638517Y-11045744D02*
X10628994Y-11026696D01*
X10628994Y-11026696D02*
X10619470Y-11017172D01*
X10619470Y-11017172D02*
X10600422Y-11007648D01*
X10600422Y-11007648D02*
X10562327Y-11007648D01*
X10562327Y-11007648D02*
X10543279Y-11017172D01*
X10543279Y-11017172D02*
X10533755Y-11026696D01*
X10533755Y-11026696D02*
X10524232Y-11045744D01*
X10733755Y-11131458D02*
X10771851Y-11131458D01*
X10771851Y-11131458D02*
X10790898Y-11121934D01*
X10790898Y-11121934D02*
X10800422Y-11112410D01*
X10800422Y-11112410D02*
X10819470Y-11083839D01*
X10819470Y-11083839D02*
X10828994Y-11045744D01*
X10828994Y-11045744D02*
X10828994Y-10969553D01*
X10828994Y-10969553D02*
X10819470Y-10950505D01*
X10819470Y-10950505D02*
X10809946Y-10940982D01*
X10809946Y-10940982D02*
X10790898Y-10931458D01*
X10790898Y-10931458D02*
X10752803Y-10931458D01*
X10752803Y-10931458D02*
X10733755Y-10940982D01*
X10733755Y-10940982D02*
X10724232Y-10950505D01*
X10724232Y-10950505D02*
X10714708Y-10969553D01*
X10714708Y-10969553D02*
X10714708Y-11017172D01*
X10714708Y-11017172D02*
X10724232Y-11036220D01*
X10724232Y-11036220D02*
X10733755Y-11045744D01*
X10733755Y-11045744D02*
X10752803Y-11055267D01*
X10752803Y-11055267D02*
X10790898Y-11055267D01*
X10790898Y-11055267D02*
X10809946Y-11045744D01*
X10809946Y-11045744D02*
X10819470Y-11036220D01*
X10819470Y-11036220D02*
X10828994Y-11017172D01*
X10895660Y-10931458D02*
X11019470Y-10931458D01*
X11019470Y-10931458D02*
X10952803Y-11007648D01*
X10952803Y-11007648D02*
X10981375Y-11007648D01*
X10981375Y-11007648D02*
X11000422Y-11017172D01*
X11000422Y-11017172D02*
X11009946Y-11026696D01*
X11009946Y-11026696D02*
X11019470Y-11045744D01*
X11019470Y-11045744D02*
X11019470Y-11093363D01*
X11019470Y-11093363D02*
X11009946Y-11112410D01*
X11009946Y-11112410D02*
X11000422Y-11121934D01*
X11000422Y-11121934D02*
X10981375Y-11131458D01*
X10981375Y-11131458D02*
X10924232Y-11131458D01*
X10924232Y-11131458D02*
X10905184Y-11121934D01*
X10905184Y-11121934D02*
X10895660Y-11112410D01*
X11095660Y-10931458D02*
X11095660Y-10969553D01*
X11171851Y-10931458D02*
X11171851Y-10969553D01*
X11467089Y-11207648D02*
X11457565Y-11198124D01*
X11457565Y-11198124D02*
X11438517Y-11169553D01*
X11438517Y-11169553D02*
X11428994Y-11150505D01*
X11428994Y-11150505D02*
X11419470Y-11121934D01*
X11419470Y-11121934D02*
X11409946Y-11074315D01*
X11409946Y-11074315D02*
X11409946Y-11036220D01*
X11409946Y-11036220D02*
X11419470Y-10988601D01*
X11419470Y-10988601D02*
X11428994Y-10960029D01*
X11428994Y-10960029D02*
X11438517Y-10940982D01*
X11438517Y-10940982D02*
X11457565Y-10912410D01*
X11457565Y-10912410D02*
X11467089Y-10902886D01*
X11628994Y-10998124D02*
X11628994Y-11131458D01*
X11581374Y-10921934D02*
X11533755Y-11064791D01*
X11533755Y-11064791D02*
X11657565Y-11064791D01*
X11886136Y-11131458D02*
X11886136Y-10931458D01*
X11971851Y-11131458D02*
X11971851Y-11026696D01*
X11971851Y-11026696D02*
X11962327Y-11007648D01*
X11962327Y-11007648D02*
X11943279Y-10998124D01*
X11943279Y-10998124D02*
X11914708Y-10998124D01*
X11914708Y-10998124D02*
X11895660Y-11007648D01*
X11895660Y-11007648D02*
X11886136Y-11017172D01*
X12095660Y-11131458D02*
X12076613Y-11121934D01*
X12076613Y-11121934D02*
X12067089Y-11112410D01*
X12067089Y-11112410D02*
X12057565Y-11093363D01*
X12057565Y-11093363D02*
X12057565Y-11036220D01*
X12057565Y-11036220D02*
X12067089Y-11017172D01*
X12067089Y-11017172D02*
X12076613Y-11007648D01*
X12076613Y-11007648D02*
X12095660Y-10998124D01*
X12095660Y-10998124D02*
X12124232Y-10998124D01*
X12124232Y-10998124D02*
X12143279Y-11007648D01*
X12143279Y-11007648D02*
X12152803Y-11017172D01*
X12152803Y-11017172D02*
X12162327Y-11036220D01*
X12162327Y-11036220D02*
X12162327Y-11093363D01*
X12162327Y-11093363D02*
X12152803Y-11112410D01*
X12152803Y-11112410D02*
X12143279Y-11121934D01*
X12143279Y-11121934D02*
X12124232Y-11131458D01*
X12124232Y-11131458D02*
X12095660Y-11131458D01*
X12276613Y-11131458D02*
X12257565Y-11121934D01*
X12257565Y-11121934D02*
X12248041Y-11102886D01*
X12248041Y-11102886D02*
X12248041Y-10931458D01*
X12428994Y-11121934D02*
X12409946Y-11131458D01*
X12409946Y-11131458D02*
X12371851Y-11131458D01*
X12371851Y-11131458D02*
X12352803Y-11121934D01*
X12352803Y-11121934D02*
X12343279Y-11102886D01*
X12343279Y-11102886D02*
X12343279Y-11026696D01*
X12343279Y-11026696D02*
X12352803Y-11007648D01*
X12352803Y-11007648D02*
X12371851Y-10998124D01*
X12371851Y-10998124D02*
X12409946Y-10998124D01*
X12409946Y-10998124D02*
X12428994Y-11007648D01*
X12428994Y-11007648D02*
X12438517Y-11026696D01*
X12438517Y-11026696D02*
X12438517Y-11045744D01*
X12438517Y-11045744D02*
X12343279Y-11064791D01*
X12514708Y-11121934D02*
X12533756Y-11131458D01*
X12533756Y-11131458D02*
X12571851Y-11131458D01*
X12571851Y-11131458D02*
X12590898Y-11121934D01*
X12590898Y-11121934D02*
X12600422Y-11102886D01*
X12600422Y-11102886D02*
X12600422Y-11093363D01*
X12600422Y-11093363D02*
X12590898Y-11074315D01*
X12590898Y-11074315D02*
X12571851Y-11064791D01*
X12571851Y-11064791D02*
X12543279Y-11064791D01*
X12543279Y-11064791D02*
X12524232Y-11055267D01*
X12524232Y-11055267D02*
X12514708Y-11036220D01*
X12514708Y-11036220D02*
X12514708Y-11026696D01*
X12514708Y-11026696D02*
X12524232Y-11007648D01*
X12524232Y-11007648D02*
X12543279Y-10998124D01*
X12543279Y-10998124D02*
X12571851Y-10998124D01*
X12571851Y-10998124D02*
X12590898Y-11007648D01*
X12667089Y-11207648D02*
X12676613Y-11198124D01*
X12676613Y-11198124D02*
X12695660Y-11169553D01*
X12695660Y-11169553D02*
X12705184Y-11150505D01*
X12705184Y-11150505D02*
X12714708Y-11121934D01*
X12714708Y-11121934D02*
X12724232Y-11074315D01*
X12724232Y-11074315D02*
X12724232Y-11036220D01*
X12724232Y-11036220D02*
X12714708Y-10988601D01*
X12714708Y-10988601D02*
X12705184Y-10960029D01*
X12705184Y-10960029D02*
X12695660Y-10940982D01*
X12695660Y-10940982D02*
X12676613Y-10912410D01*
X12676613Y-10912410D02*
X12667089Y-10902886D01*
M02*
