%TF.GenerationSoftware,KiCad,Pcbnew,7.0.10*%
%TF.CreationDate,2026-01-16T09:27:40+01:00*%
%TF.ProjectId,Testplatine,54657374-706c-4617-9469-6e652e6b6963,rev?*%
%TF.SameCoordinates,Original*%
%TF.FileFunction,Drillmap*%
%TF.FilePolarity,Positive*%
%FSLAX45Y45*%
G04 Gerber Fmt 4.5, Leading zero omitted, Abs format (unit mm)*
G04 Created by KiCad (PCBNEW 7.0.10) date 2026-01-16 09:27:40*
%MOMM*%
%LPD*%
G01*
G04 APERTURE LIST*
%ADD10C,0.100000*%
%ADD11C,0.200000*%
G04 APERTURE END LIST*
D10*
X9000000Y-5650000D02*
X8150000Y-6500000D01*
X8150000Y-6500000D02*
G75*
G03*
X9000000Y-5650000I1850000J-1000000D01*
G01*
D11*
X8152803Y-9919458D02*
X8152803Y-9719458D01*
X8152803Y-9719458D02*
X8200422Y-9719458D01*
X8200422Y-9719458D02*
X8228993Y-9728982D01*
X8228993Y-9728982D02*
X8248041Y-9748029D01*
X8248041Y-9748029D02*
X8257565Y-9767077D01*
X8257565Y-9767077D02*
X8267088Y-9805172D01*
X8267088Y-9805172D02*
X8267088Y-9833744D01*
X8267088Y-9833744D02*
X8257565Y-9871839D01*
X8257565Y-9871839D02*
X8248041Y-9890886D01*
X8248041Y-9890886D02*
X8228993Y-9909934D01*
X8228993Y-9909934D02*
X8200422Y-9919458D01*
X8200422Y-9919458D02*
X8152803Y-9919458D01*
X8352803Y-9919458D02*
X8352803Y-9786124D01*
X8352803Y-9824220D02*
X8362327Y-9805172D01*
X8362327Y-9805172D02*
X8371850Y-9795648D01*
X8371850Y-9795648D02*
X8390898Y-9786124D01*
X8390898Y-9786124D02*
X8409946Y-9786124D01*
X8476612Y-9919458D02*
X8476612Y-9786124D01*
X8476612Y-9719458D02*
X8467089Y-9728982D01*
X8467089Y-9728982D02*
X8476612Y-9738505D01*
X8476612Y-9738505D02*
X8486136Y-9728982D01*
X8486136Y-9728982D02*
X8476612Y-9719458D01*
X8476612Y-9719458D02*
X8476612Y-9738505D01*
X8600422Y-9919458D02*
X8581374Y-9909934D01*
X8581374Y-9909934D02*
X8571850Y-9890886D01*
X8571850Y-9890886D02*
X8571850Y-9719458D01*
X8705184Y-9919458D02*
X8686136Y-9909934D01*
X8686136Y-9909934D02*
X8676612Y-9890886D01*
X8676612Y-9890886D02*
X8676612Y-9719458D01*
X8933755Y-9919458D02*
X8933755Y-9719458D01*
X8933755Y-9719458D02*
X9000422Y-9862315D01*
X9000422Y-9862315D02*
X9067089Y-9719458D01*
X9067089Y-9719458D02*
X9067089Y-9919458D01*
X9248041Y-9919458D02*
X9248041Y-9814696D01*
X9248041Y-9814696D02*
X9238517Y-9795648D01*
X9238517Y-9795648D02*
X9219470Y-9786124D01*
X9219470Y-9786124D02*
X9181374Y-9786124D01*
X9181374Y-9786124D02*
X9162327Y-9795648D01*
X9248041Y-9909934D02*
X9228993Y-9919458D01*
X9228993Y-9919458D02*
X9181374Y-9919458D01*
X9181374Y-9919458D02*
X9162327Y-9909934D01*
X9162327Y-9909934D02*
X9152803Y-9890886D01*
X9152803Y-9890886D02*
X9152803Y-9871839D01*
X9152803Y-9871839D02*
X9162327Y-9852791D01*
X9162327Y-9852791D02*
X9181374Y-9843267D01*
X9181374Y-9843267D02*
X9228993Y-9843267D01*
X9228993Y-9843267D02*
X9248041Y-9833744D01*
X9343279Y-9786124D02*
X9343279Y-9986124D01*
X9343279Y-9795648D02*
X9362327Y-9786124D01*
X9362327Y-9786124D02*
X9400422Y-9786124D01*
X9400422Y-9786124D02*
X9419470Y-9795648D01*
X9419470Y-9795648D02*
X9428993Y-9805172D01*
X9428993Y-9805172D02*
X9438517Y-9824220D01*
X9438517Y-9824220D02*
X9438517Y-9881363D01*
X9438517Y-9881363D02*
X9428993Y-9900410D01*
X9428993Y-9900410D02*
X9419470Y-9909934D01*
X9419470Y-9909934D02*
X9400422Y-9919458D01*
X9400422Y-9919458D02*
X9362327Y-9919458D01*
X9362327Y-9919458D02*
X9343279Y-9909934D01*
X9524231Y-9900410D02*
X9533755Y-9909934D01*
X9533755Y-9909934D02*
X9524231Y-9919458D01*
X9524231Y-9919458D02*
X9514708Y-9909934D01*
X9514708Y-9909934D02*
X9524231Y-9900410D01*
X9524231Y-9900410D02*
X9524231Y-9919458D01*
X9524231Y-9795648D02*
X9533755Y-9805172D01*
X9533755Y-9805172D02*
X9524231Y-9814696D01*
X9524231Y-9814696D02*
X9514708Y-9805172D01*
X9514708Y-9805172D02*
X9524231Y-9795648D01*
X9524231Y-9795648D02*
X9524231Y-9814696D01*
M02*
