M48
; DRILL file {KiCad 7.0.10} date Fri Jan 16 09:27:37 2026
; FORMAT={-:-/ absolute / inch / decimal}
; #@! TF.CreationDate,2026-01-16T09:27:37+01:00
; #@! TF.GenerationSoftware,Kicad,Pcbnew,7.0.10
; #@! TF.FileFunction,Plated,1,2,PTH
FMAT,2
INCH
; #@! TA.AperFunction,Plated,PTH,ViaDrill
T1C0.0157
; #@! TA.AperFunction,Plated,PTH,ComponentDrill
T2C0.0236
; #@! TA.AperFunction,Plated,PTH,ComponentDrill
T3C0.0402
; #@! TA.AperFunction,Plated,PTH,ComponentDrill
T4C0.1693
%
G90
G05
T1
X3.859Y-2.9527
X3.8881Y-2.985
X4.0394Y-2.7283
X4.0664Y-2.8376
X4.1161Y-2.8091
X4.252Y-2.6555
T2
X3.3179Y-2.9528
X3.3551Y-2.863
X3.3551Y-3.0425
X3.4449Y-2.8258
X3.4449Y-3.0797
X3.5347Y-2.863
X3.5347Y-3.0425
X3.5719Y-2.9528
X3.81Y-2.4606
X3.81Y-3.4449
X3.8472Y-2.3708
X3.8472Y-2.5504
X3.8472Y-3.3551
X3.8472Y-3.5347
X3.937Y-2.3337
X3.937Y-2.5876
X3.937Y-3.3179
X3.937Y-3.5719
X4.0268Y-2.3708
X4.0268Y-2.5504
X4.0268Y-3.3551
X4.0268Y-3.5347
X4.064Y-2.4606
X4.064Y-3.4449
X4.3022Y-2.9528
X4.3394Y-2.863
X4.3394Y-3.0425
X4.4291Y-2.8258
X4.4291Y-3.0797
X4.5189Y-2.863
X4.5189Y-3.0425
X4.5561Y-2.9528
T3
X3.3962Y-2.6241
X3.467Y-2.5534
X3.467Y-2.6948
X3.5377Y-2.4827
X3.5377Y-2.6241
X3.6084Y-2.412
X3.6084Y-2.5534
X3.6791Y-2.4827
T4
X3.4449Y-2.9528
X3.937Y-2.4606
X3.937Y-3.4449
X4.4291Y-2.9528
M30
