%TF.GenerationSoftware,KiCad,Pcbnew,7.0.10*%
%TF.CreationDate,2026-07-28T14:56:23+02:00*%
%TF.ProjectId,Testplatine,54657374-706c-4617-9469-6e652e6b6963,rev?*%
%TF.SameCoordinates,Original*%
%TF.FileFunction,Paste,Bot*%
%TF.FilePolarity,Positive*%
%FSLAX46Y46*%
G04 Gerber Fmt 4.6, Leading zero omitted, Abs format (unit mm)*
G04 Created by KiCad (PCBNEW 7.0.10) date 2026-07-28 14:56:23*
%MOMM*%
%LPD*%
G01*
G04 APERTURE LIST*
G04 Aperture macros list*
%AMRoundRect*
0 Rectangle with rounded corners*
0 $1 Rounding radius*
0 $2 $3 $4 $5 $6 $7 $8 $9 X,Y pos of 4 corners*
0 Add a 4 corners polygon primitive as box body*
4,1,4,$2,$3,$4,$5,$6,$7,$8,$9,$2,$3,0*
0 Add four circle primitives for the rounded corners*
1,1,$1+$1,$2,$3*
1,1,$1+$1,$4,$5*
1,1,$1+$1,$6,$7*
1,1,$1+$1,$8,$9*
0 Add four rect primitives between the rounded corners*
20,1,$1+$1,$2,$3,$4,$5,0*
20,1,$1+$1,$4,$5,$6,$7,0*
20,1,$1+$1,$6,$7,$8,$9,0*
20,1,$1+$1,$8,$9,$2,$3,0*%
G04 Aperture macros list end*
%ADD10RoundRect,0.237500X0.237500X-0.250000X0.237500X0.250000X-0.237500X0.250000X-0.237500X-0.250000X0*%
%ADD11RoundRect,0.237500X-0.237500X0.300000X-0.237500X-0.300000X0.237500X-0.300000X0.237500X0.300000X0*%
%ADD12RoundRect,0.100000X0.100000X-0.637500X0.100000X0.637500X-0.100000X0.637500X-0.100000X-0.637500X0*%
%ADD13RoundRect,0.250000X-0.412500X-1.100000X0.412500X-1.100000X0.412500X1.100000X-0.412500X1.100000X0*%
%ADD14RoundRect,0.237500X-0.237500X0.250000X-0.237500X-0.250000X0.237500X-0.250000X0.237500X0.250000X0*%
%ADD15RoundRect,0.250000X0.475000X-0.337500X0.475000X0.337500X-0.475000X0.337500X-0.475000X-0.337500X0*%
%ADD16RoundRect,0.237500X0.237500X-0.300000X0.237500X0.300000X-0.237500X0.300000X-0.237500X-0.300000X0*%
%ADD17RoundRect,0.237500X-0.300000X-0.237500X0.300000X-0.237500X0.300000X0.237500X-0.300000X0.237500X0*%
%ADD18RoundRect,0.250000X-0.337500X-0.475000X0.337500X-0.475000X0.337500X0.475000X-0.337500X0.475000X0*%
%ADD19RoundRect,0.250000X0.850000X0.350000X-0.850000X0.350000X-0.850000X-0.350000X0.850000X-0.350000X0*%
%ADD20RoundRect,0.250000X1.275000X1.125000X-1.275000X1.125000X-1.275000X-1.125000X1.275000X-1.125000X0*%
%ADD21R,1.000000X0.600000*%
%ADD22R,0.350000X0.650000*%
%ADD23RoundRect,0.237500X0.250000X0.237500X-0.250000X0.237500X-0.250000X-0.237500X0.250000X-0.237500X0*%
G04 APERTURE END LIST*
D10*
%TO.C,R33*%
X75498821Y-166223814D03*
X75498821Y-164398814D03*
%TD*%
D11*
%TO.C,C75*%
X49098820Y-111911314D03*
X49098820Y-113636314D03*
%TD*%
D12*
%TO.C,U1*%
X144198821Y-51786314D03*
X143548821Y-51786314D03*
X142898821Y-51786314D03*
X142248821Y-51786314D03*
X141598821Y-51786314D03*
X140948821Y-51786314D03*
X140298821Y-51786314D03*
X140298821Y-46061314D03*
X140948821Y-46061314D03*
X141598821Y-46061314D03*
X142248821Y-46061314D03*
X142898821Y-46061314D03*
X143548821Y-46061314D03*
X144198821Y-46061314D03*
%TD*%
D13*
%TO.C,C17*%
X161436321Y-174873814D03*
X164561321Y-174873814D03*
%TD*%
D14*
%TO.C,R19*%
X149998821Y-94911314D03*
X149998821Y-96736314D03*
%TD*%
D10*
%TO.C,R35*%
X44948821Y-113686314D03*
X44948821Y-111861314D03*
%TD*%
D11*
%TO.C,C67*%
X151698821Y-140461314D03*
X151698821Y-142186314D03*
%TD*%
D14*
%TO.C,R41*%
X37148820Y-103461314D03*
X37148820Y-105286314D03*
%TD*%
D15*
%TO.C,C22*%
X158623822Y-142076316D03*
X158623822Y-140001316D03*
%TD*%
D16*
%TO.C,C73*%
X66898822Y-166173814D03*
X66898822Y-164448814D03*
%TD*%
%TO.C,C70*%
X77098821Y-166173814D03*
X77098821Y-164448814D03*
%TD*%
D17*
%TO.C,C72*%
X64036322Y-174467564D03*
X65761322Y-174467564D03*
%TD*%
D13*
%TO.C,C14*%
X161436321Y-160973814D03*
X164561321Y-160973814D03*
%TD*%
D18*
%TO.C,C18*%
X161961321Y-167873814D03*
X164036321Y-167873814D03*
%TD*%
D11*
%TO.C,C52*%
X151698821Y-98461314D03*
X151698821Y-100186314D03*
%TD*%
D19*
%TO.C,U4*%
X167348823Y-144333814D03*
D20*
X162723823Y-148138814D03*
X162723823Y-145088814D03*
X159373823Y-148138814D03*
X159373823Y-145088814D03*
D19*
X167348823Y-148893814D03*
%TD*%
D14*
%TO.C,R12*%
X149998821Y-115911314D03*
X149998821Y-117736314D03*
%TD*%
D11*
%TO.C,C37*%
X151698821Y-119461314D03*
X151698821Y-121186314D03*
%TD*%
%TO.C,C23*%
X79961320Y-172861314D03*
X79961320Y-174586314D03*
%TD*%
D10*
%TO.C,R36*%
X47498822Y-113686314D03*
X47498822Y-111861314D03*
%TD*%
D14*
%TO.C,R48*%
X43699043Y-90598049D03*
X43699043Y-92423049D03*
%TD*%
%TO.C,R5*%
X81548821Y-169398814D03*
X81548821Y-171223814D03*
%TD*%
D13*
%TO.C,C15*%
X161436321Y-164473814D03*
X164561321Y-164473814D03*
%TD*%
D16*
%TO.C,C71*%
X71298821Y-166186314D03*
X71298821Y-164461314D03*
%TD*%
%TO.C,C76*%
X41899043Y-97923049D03*
X41899043Y-96198049D03*
%TD*%
D14*
%TO.C,R27*%
X149998821Y-140411314D03*
X149998821Y-142236314D03*
%TD*%
D17*
%TO.C,C77*%
X43751321Y-100648813D03*
X45476321Y-100648813D03*
%TD*%
D14*
%TO.C,R32*%
X65298821Y-164398814D03*
X65298821Y-166223814D03*
%TD*%
%TO.C,R40*%
X35398821Y-101761314D03*
X35398821Y-103586314D03*
%TD*%
%TO.C,R6*%
X81548821Y-172811314D03*
X81548821Y-174636314D03*
%TD*%
D11*
%TO.C,C74*%
X43348820Y-111911314D03*
X43348820Y-113636314D03*
%TD*%
D13*
%TO.C,C16*%
X161436321Y-171273814D03*
X164561321Y-171273814D03*
%TD*%
D18*
%TO.C,C19*%
X166886322Y-152911316D03*
X168961322Y-152911316D03*
%TD*%
D21*
%TO.C,U12*%
X44013821Y-97448049D03*
X45213821Y-97448049D03*
X44013821Y-96673049D03*
X45213821Y-96673049D03*
D22*
X45588821Y-98610549D03*
X44938821Y-98610549D03*
X44288821Y-98610549D03*
X43638821Y-98610549D03*
X43638821Y-95510549D03*
X44288821Y-95510549D03*
X44938821Y-95510549D03*
X45588821Y-95510549D03*
%TD*%
D10*
%TO.C,R34*%
X72898821Y-166236314D03*
X72898821Y-164411314D03*
%TD*%
%TO.C,R47*%
X45549043Y-92423049D03*
X45549043Y-90598049D03*
%TD*%
%TO.C,R39*%
X51348821Y-105286314D03*
X51348821Y-103461314D03*
%TD*%
D16*
%TO.C,C21*%
X160523822Y-142101314D03*
X160523822Y-140376314D03*
%TD*%
D10*
%TO.C,R38*%
X53948821Y-105273814D03*
X53948821Y-103448814D03*
%TD*%
%TO.C,R2*%
X142845870Y-55448814D03*
X142845870Y-53623814D03*
%TD*%
D14*
%TO.C,R20*%
X149998821Y-98411314D03*
X149998821Y-100236314D03*
%TD*%
%TO.C,R13*%
X149998821Y-119411314D03*
X149998821Y-121236314D03*
%TD*%
%TO.C,R28*%
X65348822Y-103461314D03*
X65348822Y-105286314D03*
%TD*%
D17*
%TO.C,C20*%
X166930072Y-151011312D03*
X168655072Y-151011312D03*
%TD*%
D23*
%TO.C,R42*%
X45561321Y-94010549D03*
X43736321Y-94010549D03*
%TD*%
D14*
%TO.C,R26*%
X149998821Y-136911314D03*
X149998821Y-138736314D03*
%TD*%
D10*
%TO.C,R30*%
X59948821Y-105286314D03*
X59948821Y-103461314D03*
%TD*%
D23*
%TO.C,R31*%
X65823821Y-172817564D03*
X63998821Y-172817564D03*
%TD*%
M02*
