M48
; DRILL file {KiCad 7.0.10} date Tue Jul 28 14:56:26 2026
; FORMAT={-:-/ absolute / metric / decimal}
; #@! TF.CreationDate,2026-07-28T14:56:26+02:00
; #@! TF.GenerationSoftware,Kicad,Pcbnew,7.0.10
; #@! TF.FileFunction,Plated,1,4,PTH
FMAT,2
METRIC
; #@! TA.AperFunction,Plated,PTH,ViaDrill
T1C0.300
; #@! TA.AperFunction,Plated,PTH,ComponentDrill
T2C0.300
; #@! TA.AperFunction,Plated,PTH,ViaDrill
T3C0.400
; #@! TA.AperFunction,Plated,PTH,ComponentDrill
T4C0.600
; #@! TA.AperFunction,Plated,PTH,ComponentDrill
T5C1.000
; #@! TA.AperFunction,Plated,PTH,ComponentDrill
T6C1.200
; #@! TA.AperFunction,Plated,PTH,ComponentDrill
T7C1.500
; #@! TA.AperFunction,Plated,PTH,ComponentDrill
T8C1.600
; #@! TA.AperFunction,Plated,PTH,ComponentDrill
T9C2.600
; #@! TA.AperFunction,Plated,PTH,ComponentDrill
T10C3.200
; #@! TA.AperFunction,Plated,PTH,ComponentDrill
T11C4.300
%
G90
G05
T1
X43.349Y-115.074
X49.099Y-115.074
X54.699Y-99.724
X55.249Y-104.624
X56.539Y-104.659
X58.0Y-99.675
X58.049Y-111.774
X59.699Y-111.824
X59.699Y-113.424
X65.624Y-98.349
X66.149Y-101.124
X66.899Y-163.161
X67.099Y-174.474
X67.874Y-98.349
X68.349Y-101.074
X71.299Y-163.174
X76.304Y-98.754
X77.099Y-163.211
X78.811Y-174.611
X79.659Y-98.749
X79.961Y-175.961
X81.561Y-175.961
X82.861Y-174.611
X88.974Y-142.099
X90.099Y-143.224
X112.124Y-120.009
X115.324Y-120.009
X121.224Y-99.009
X121.224Y-141.009
X124.424Y-99.009
X124.424Y-141.009
X126.506Y-60.824
X128.423Y-55.6
X131.399Y-59.224
X132.099Y-55.624
X141.746Y-53.224
X141.899Y-56.474
X141.973Y-58.498
X142.621Y-59.602
X144.046Y-53.224
X144.599Y-117.924
X144.599Y-138.924
X144.599Y-96.924
X144.799Y-57.574
X145.531Y-51.786
X145.599Y-58.424
X149.246Y-52.924
X149.999Y-93.024
X149.999Y-101.524
X149.999Y-114.024
X149.999Y-122.524
X149.999Y-135.024
X149.999Y-143.524
X151.699Y-101.524
X151.699Y-122.524
X151.699Y-143.524
T2
X116.949Y-110.034
X116.949Y-111.434
X116.949Y-113.184
X117.949Y-110.034
X117.949Y-111.434
X117.949Y-113.184
X126.049Y-89.034
X126.049Y-90.434
X126.049Y-92.184
X126.049Y-131.034
X126.049Y-132.434
X126.049Y-134.184
X127.049Y-89.034
X127.049Y-90.434
X127.049Y-92.184
X127.049Y-131.034
X127.049Y-132.434
X127.049Y-134.184
T3
X25.362Y-83.872
X25.362Y-87.872
X25.362Y-91.872
X25.362Y-99.872
X25.362Y-103.872
X25.362Y-107.872
X25.362Y-111.872
X25.362Y-115.872
X25.362Y-119.872
X25.362Y-123.872
X25.362Y-127.872
X25.362Y-131.872
X25.362Y-135.872
X25.362Y-139.872
X25.362Y-143.872
X25.362Y-147.872
X25.362Y-151.872
X25.362Y-155.872
X25.362Y-159.872
X25.362Y-163.872
X25.362Y-167.872
X25.362Y-171.872
X29.362Y-83.872
X29.362Y-87.872
X29.362Y-103.872
X29.362Y-111.872
X29.362Y-115.872
X29.362Y-119.872
X29.362Y-123.872
X29.362Y-127.872
X29.362Y-131.872
X29.362Y-135.872
X29.362Y-139.872
X29.362Y-143.872
X29.362Y-147.872
X29.362Y-151.872
X29.362Y-155.872
X29.362Y-159.872
X29.362Y-163.872
X29.362Y-175.872
X33.362Y-99.872
X33.362Y-119.872
X33.362Y-123.872
X33.362Y-127.872
X33.362Y-131.872
X33.362Y-135.872
X33.362Y-139.872
X33.362Y-151.872
X33.362Y-155.872
X33.362Y-159.872
X33.362Y-163.872
X33.362Y-83.872
X33.362Y-111.872
X33.362Y-115.872
X33.362Y-143.872
X33.362Y-147.872
X33.362Y-175.872
X37.362Y-83.872
X37.362Y-87.872
X37.362Y-91.872
X37.362Y-111.872
X37.362Y-115.872
X37.362Y-119.872
X37.362Y-123.872
X37.362Y-127.872
X37.362Y-131.872
X37.362Y-135.872
X37.362Y-139.872
X37.362Y-143.872
X37.362Y-147.872
X37.362Y-151.872
X37.362Y-155.872
X37.362Y-159.872
X37.362Y-175.872
X38.749Y-96.161
X40.399Y-97.961
X41.362Y-91.872
X41.362Y-101.272
X41.362Y-103.872
X41.362Y-111.872
X41.362Y-115.872
X41.362Y-119.872
X41.362Y-123.872
X41.362Y-127.872
X41.362Y-131.872
X41.362Y-135.872
X41.362Y-139.872
X41.362Y-143.872
X41.362Y-175.872
X43.714Y-102.074
X43.899Y-97.011
X45.299Y-97.011
X45.362Y-103.872
X45.362Y-119.872
X45.362Y-123.872
X45.362Y-127.872
X45.362Y-131.872
X45.362Y-135.872
X45.362Y-139.872
X45.362Y-147.872
X45.362Y-151.872
X45.362Y-155.872
X45.362Y-159.872
X45.362Y-163.872
X45.362Y-175.872
X45.514Y-102.074
X46.462Y-115.872
X46.849Y-95.511
X49.362Y-91.872
X49.362Y-101.272
X49.362Y-103.872
X49.362Y-119.872
X49.362Y-123.872
X49.362Y-135.872
X49.362Y-143.872
X49.362Y-147.872
X49.362Y-151.872
X49.362Y-155.872
X49.362Y-175.872
X49.362Y-95.872
X49.362Y-127.872
X49.362Y-131.872
X49.362Y-159.872
X49.362Y-163.872
X53.362Y-83.872
X53.362Y-91.872
X53.362Y-95.872
X53.362Y-119.872
X53.362Y-123.872
X53.362Y-127.872
X53.362Y-131.872
X53.362Y-135.872
X53.362Y-143.872
X53.362Y-147.872
X53.362Y-151.872
X53.362Y-155.872
X53.362Y-159.872
X53.362Y-163.872
X53.362Y-175.872
X57.362Y-83.872
X57.362Y-91.872
X57.362Y-95.872
X57.362Y-119.872
X57.362Y-123.872
X57.362Y-127.872
X57.362Y-131.872
X57.362Y-135.872
X57.362Y-143.872
X57.362Y-147.872
X57.362Y-151.872
X57.362Y-155.872
X57.362Y-159.872
X57.362Y-163.872
X57.362Y-175.872
X59.162Y-97.972
X61.362Y-83.872
X61.362Y-91.872
X61.362Y-111.872
X61.362Y-119.872
X61.362Y-123.872
X61.362Y-127.872
X61.362Y-131.872
X61.362Y-135.872
X61.362Y-143.872
X61.362Y-147.872
X61.362Y-151.872
X61.362Y-155.872
X61.362Y-159.872
X61.362Y-163.872
X61.362Y-175.872
X63.162Y-93.972
X65.362Y-83.872
X65.362Y-87.872
X65.362Y-123.872
X65.362Y-127.872
X65.362Y-131.872
X65.362Y-135.872
X65.362Y-111.872
X65.362Y-175.872
X65.562Y-96.472
X67.162Y-89.972
X69.362Y-103.872
X69.362Y-111.872
X69.362Y-127.872
X69.362Y-131.872
X69.362Y-135.872
X69.362Y-143.872
X69.362Y-147.872
X69.362Y-151.872
X69.362Y-155.872
X69.362Y-159.872
X69.362Y-163.872
X69.362Y-175.872
X69.562Y-92.472
X73.362Y-95.872
X73.362Y-98.172
X73.362Y-111.872
X73.362Y-123.872
X73.362Y-131.872
X73.362Y-143.872
X73.362Y-147.872
X73.362Y-151.872
X73.362Y-175.872
X77.362Y-143.872
X77.362Y-147.872
X77.362Y-151.872
X77.362Y-159.872
X77.362Y-167.872
X77.362Y-171.872
X77.362Y-175.872
X78.299Y-82.874
X79.699Y-81.674
X79.799Y-87.574
X81.362Y-103.872
X81.362Y-107.872
X81.362Y-115.872
X81.362Y-118.872
X81.362Y-123.872
X81.362Y-139.872
X81.362Y-147.872
X81.362Y-155.872
X81.362Y-167.872
X81.362Y-95.872
X81.362Y-131.872
X81.362Y-159.872
X81.362Y-163.872
X84.199Y-94.374
X85.362Y-83.872
X85.362Y-87.872
X85.362Y-103.872
X85.362Y-111.872
X85.362Y-115.872
X85.362Y-118.872
X85.362Y-127.872
X85.362Y-131.872
X85.362Y-135.872
X85.362Y-143.872
X85.362Y-151.872
X85.362Y-155.872
X85.362Y-159.872
X85.362Y-163.872
X85.362Y-167.872
X85.362Y-171.872
X85.362Y-175.872
X87.362Y-159.872
X87.362Y-161.872
X87.362Y-163.872
X87.362Y-165.872
X87.362Y-167.872
X87.362Y-169.872
X87.362Y-171.872
X87.362Y-173.872
X87.362Y-175.872
X89.362Y-83.872
X89.362Y-87.872
X89.362Y-107.872
X89.362Y-111.872
X89.362Y-115.872
X89.362Y-118.872
X89.362Y-123.872
X89.362Y-127.872
X89.362Y-131.872
X89.362Y-135.872
X89.362Y-139.872
X89.362Y-147.872
X89.362Y-155.872
X89.362Y-159.872
X89.362Y-161.872
X89.362Y-163.872
X89.362Y-165.872
X89.362Y-169.872
X89.362Y-171.872
X89.362Y-173.872
X89.362Y-175.872
X89.649Y-91.974
X91.049Y-152.974
X91.362Y-159.872
X91.362Y-163.872
X91.362Y-161.872
X91.362Y-165.872
X91.362Y-169.872
X91.362Y-171.872
X91.362Y-173.872
X91.362Y-175.872
X93.362Y-111.872
X93.362Y-87.872
X93.362Y-91.872
X93.362Y-98.872
X93.362Y-103.872
X93.362Y-107.872
X93.362Y-115.872
X93.362Y-118.872
X93.362Y-121.572
X93.362Y-123.872
X93.362Y-127.872
X93.362Y-131.872
X93.362Y-135.872
X93.362Y-139.872
X93.362Y-147.872
X93.362Y-151.872
X93.362Y-155.872
X93.362Y-159.872
X93.362Y-163.872
X93.362Y-167.872
X93.362Y-171.872
X93.362Y-175.872
X95.601Y-145.472
X97.362Y-91.872
X97.362Y-98.872
X97.362Y-103.872
X97.362Y-107.872
X97.362Y-115.872
X97.362Y-118.872
X97.362Y-121.572
X97.362Y-123.872
X97.362Y-127.872
X97.362Y-131.872
X97.362Y-135.872
X97.362Y-139.872
X97.362Y-142.472
X97.362Y-144.372
X97.362Y-151.872
X97.362Y-155.872
X97.362Y-159.872
X97.362Y-163.872
X97.362Y-171.872
X97.362Y-111.872
X97.362Y-147.872
X97.362Y-175.872
X98.499Y-81.724
X98.499Y-87.074
X99.899Y-84.374
X101.362Y-83.872
X101.362Y-87.872
X101.362Y-91.872
X101.362Y-95.172
X101.362Y-98.872
X101.362Y-103.872
X101.362Y-107.872
X101.362Y-111.872
X101.362Y-115.872
X101.362Y-118.872
X101.362Y-121.572
X101.362Y-123.872
X101.362Y-127.872
X101.362Y-131.872
X101.362Y-135.872
X101.362Y-139.872
X101.362Y-142.472
X101.362Y-144.372
X101.362Y-147.872
X101.362Y-151.872
X101.362Y-155.872
X101.362Y-159.872
X101.362Y-163.872
X101.362Y-167.872
X101.362Y-171.872
X101.362Y-175.872
X105.362Y-83.872
X105.362Y-87.872
X105.362Y-91.872
X105.362Y-95.172
X105.362Y-98.872
X105.362Y-103.872
X105.362Y-107.872
X105.362Y-111.872
X105.362Y-115.872
X105.362Y-118.872
X105.362Y-121.572
X105.362Y-123.872
X105.362Y-127.872
X105.362Y-131.872
X105.362Y-135.872
X105.362Y-139.872
X105.362Y-142.472
X105.362Y-144.372
X105.362Y-147.872
X105.362Y-151.872
X105.362Y-155.872
X105.362Y-159.872
X105.362Y-167.872
X105.362Y-171.872
X109.024Y-105.409
X109.024Y-106.609
X109.024Y-107.809
X109.024Y-109.009
X109.362Y-127.872
X109.362Y-142.472
X109.362Y-83.872
X109.362Y-87.872
X109.362Y-91.872
X109.362Y-95.172
X109.362Y-98.872
X109.362Y-103.872
X109.362Y-121.572
X109.362Y-123.872
X109.362Y-131.872
X109.362Y-135.872
X109.362Y-139.872
X109.362Y-144.372
X109.362Y-147.872
X109.362Y-151.872
X109.362Y-155.872
X109.362Y-159.872
X109.362Y-163.872
X109.362Y-171.872
X109.362Y-175.872
X109.524Y-110.209
X109.524Y-111.409
X112.624Y-101.809
X112.624Y-103.009
X112.624Y-104.209
X113.362Y-83.872
X113.362Y-87.872
X113.362Y-91.872
X113.362Y-95.172
X113.362Y-98.872
X113.362Y-123.872
X113.362Y-131.872
X113.362Y-135.872
X113.362Y-139.872
X113.362Y-144.372
X113.362Y-147.872
X113.362Y-151.872
X113.362Y-155.872
X113.362Y-167.872
X113.362Y-171.872
X113.362Y-175.872
X113.362Y-127.872
X113.362Y-142.472
X113.362Y-159.872
X113.362Y-163.872
X113.824Y-101.809
X113.824Y-103.009
X113.824Y-104.209
X113.824Y-105.409
X113.824Y-106.609
X113.824Y-107.809
X113.824Y-109.009
X113.824Y-110.209
X113.824Y-111.409
X114.899Y-48.322
X115.024Y-101.809
X115.024Y-103.009
X115.024Y-104.209
X116.899Y-40.322
X116.899Y-52.322
X116.899Y-58.322
X117.362Y-91.872
X117.362Y-95.172
X117.362Y-98.872
X117.362Y-123.872
X117.362Y-135.872
X117.362Y-139.872
X117.362Y-142.472
X117.362Y-144.372
X117.362Y-147.872
X117.362Y-151.872
X117.362Y-155.872
X117.362Y-159.872
X117.362Y-167.872
X117.362Y-171.872
X117.362Y-175.872
X117.411Y-121.574
X117.424Y-104.209
X118.124Y-84.409
X118.124Y-85.609
X118.124Y-86.809
X118.124Y-88.009
X118.124Y-126.409
X118.124Y-127.609
X118.124Y-128.809
X118.124Y-130.009
X118.224Y-107.809
X118.624Y-89.209
X118.624Y-90.409
X118.624Y-104.209
X118.624Y-105.409
X118.624Y-106.609
X118.624Y-131.209
X118.624Y-132.409
X118.899Y-44.322
X118.949Y-123.074
X119.824Y-104.209
X119.824Y-105.409
X119.824Y-106.609
X120.449Y-114.674
X120.511Y-121.574
X120.899Y-36.322
X120.899Y-48.322
X120.899Y-54.322
X120.899Y-60.322
X120.899Y-66.322
X121.362Y-103.872
X121.362Y-107.872
X121.362Y-147.872
X121.362Y-151.872
X121.362Y-155.872
X121.362Y-159.872
X121.362Y-163.872
X121.362Y-167.872
X121.362Y-171.872
X121.362Y-175.872
X121.649Y-116.074
X121.724Y-80.809
X121.724Y-82.009
X121.724Y-83.209
X121.724Y-122.809
X121.724Y-124.009
X121.724Y-125.209
X122.899Y-40.322
X122.924Y-80.809
X122.924Y-82.009
X122.924Y-83.209
X122.924Y-84.409
X122.924Y-86.809
X122.924Y-88.009
X122.924Y-89.209
X122.924Y-90.409
X122.924Y-122.809
X122.924Y-124.009
X122.924Y-125.209
X122.924Y-126.409
X122.924Y-127.609
X122.924Y-128.809
X122.924Y-130.009
X122.924Y-131.209
X122.924Y-132.409
X122.924Y-85.609
X123.706Y-65.369
X124.124Y-80.809
X124.124Y-82.009
X124.124Y-83.209
X124.124Y-122.809
X124.124Y-124.009
X124.124Y-125.209
X124.899Y-50.322
X124.899Y-28.322
X124.899Y-34.322
X124.899Y-44.322
X124.899Y-56.322
X124.899Y-68.322
X125.106Y-66.769
X125.362Y-118.072
X125.362Y-103.872
X125.362Y-107.872
X125.362Y-115.872
X125.362Y-147.872
X125.362Y-159.872
X125.362Y-167.872
X125.362Y-171.872
X126.362Y-151.872
X126.511Y-142.574
X126.511Y-100.574
X126.524Y-83.209
X126.524Y-125.209
X126.899Y-38.322
X127.249Y-66.631
X127.324Y-86.809
X127.324Y-128.809
X127.724Y-83.209
X127.724Y-84.409
X127.724Y-85.609
X127.724Y-125.209
X127.724Y-126.409
X127.724Y-127.609
X128.049Y-144.074
X128.049Y-102.074
X128.306Y-65.269
X128.899Y-24.322
X128.899Y-30.322
X128.899Y-42.322
X128.899Y-54.322
X128.899Y-70.322
X128.924Y-83.209
X128.924Y-84.409
X128.924Y-85.609
X128.924Y-125.209
X128.924Y-126.409
X128.924Y-127.609
X129.362Y-103.872
X129.362Y-107.872
X129.362Y-115.872
X129.362Y-155.872
X129.362Y-159.872
X129.362Y-163.872
X129.362Y-171.872
X129.362Y-118.072
X129.362Y-175.872
X129.549Y-93.674
X129.549Y-135.674
X129.611Y-100.574
X129.611Y-142.574
X129.806Y-66.631
X130.362Y-147.872
X130.749Y-95.074
X130.749Y-137.074
X130.899Y-74.322
X130.899Y-34.322
X131.006Y-60.569
X131.106Y-65.231
X131.249Y-63.424
X132.899Y-26.322
X132.899Y-38.322
X132.899Y-44.322
X132.899Y-58.322
X133.362Y-83.872
X133.362Y-103.872
X133.362Y-107.872
X133.362Y-115.872
X133.362Y-118.072
X133.362Y-123.872
X133.362Y-127.872
X133.362Y-135.872
X133.362Y-151.872
X133.362Y-155.872
X133.362Y-159.872
X133.362Y-167.872
X133.362Y-171.872
X134.899Y-30.322
X134.899Y-50.322
X135.562Y-142.572
X136.362Y-95.172
X136.899Y-22.322
X136.899Y-36.322
X136.899Y-42.322
X136.899Y-54.322
X137.249Y-102.374
X137.249Y-119.374
X137.249Y-140.374
X137.362Y-83.872
X137.362Y-99.872
X137.362Y-155.872
X137.362Y-159.872
X137.362Y-171.872
X137.362Y-175.872
X137.399Y-145.472
X137.799Y-152.474
X138.399Y-153.474
X138.899Y-32.322
X138.899Y-26.322
X138.899Y-48.322
X138.899Y-58.322
X138.899Y-66.322
X138.899Y-74.322
X138.999Y-152.474
X140.186Y-155.674
X140.362Y-95.172
X140.749Y-122.574
X140.749Y-101.574
X140.749Y-143.574
X140.899Y-44.322
X141.199Y-134.674
X141.199Y-92.674
X141.199Y-113.674
X141.362Y-127.872
X141.362Y-159.872
X141.362Y-83.872
X141.362Y-103.872
X141.362Y-107.872
X141.362Y-115.872
X141.362Y-119.872
X141.362Y-147.872
X141.362Y-171.872
X141.362Y-175.872
X141.519Y-163.334
X141.749Y-64.874
X141.786Y-155.674
X142.059Y-60.302
X142.449Y-101.574
X142.449Y-122.574
X142.449Y-143.574
X142.596Y-44.564
X142.632Y-42.806
X142.899Y-22.322
X142.899Y-28.322
X142.899Y-50.322
X142.899Y-70.322
X143.299Y-96.874
X143.299Y-117.874
X143.299Y-138.874
X143.552Y-47.685
X143.699Y-157.211
X143.999Y-159.074
X144.149Y-101.574
X144.149Y-122.574
X144.149Y-143.574
X144.362Y-95.172
X144.899Y-74.322
X145.146Y-44.503
X145.178Y-42.824
X145.362Y-83.872
X145.362Y-103.872
X145.362Y-107.872
X145.362Y-115.872
X145.362Y-163.872
X145.362Y-127.872
X145.599Y-156.974
X145.899Y-122.574
X145.899Y-101.574
X145.899Y-143.574
X145.999Y-92.774
X145.999Y-113.774
X145.999Y-134.774
X146.799Y-159.074
X146.899Y-155.474
X146.899Y-24.322
X146.899Y-30.322
X146.899Y-40.322
X146.899Y-54.322
X147.362Y-163.872
X147.362Y-161.872
X148.899Y-34.322
X148.899Y-44.322
X148.899Y-50.322
X148.899Y-66.322
X149.087Y-148.022
X149.087Y-150.572
X149.274Y-59.738
X149.274Y-61.738
X149.274Y-63.738
X149.362Y-83.872
X149.362Y-107.872
X149.362Y-127.872
X149.362Y-159.872
X149.362Y-161.872
X149.362Y-163.872
X149.799Y-155.174
X150.674Y-60.738
X150.674Y-62.738
X150.899Y-22.322
X150.899Y-28.322
X150.899Y-38.322
X151.362Y-159.872
X151.362Y-161.872
X151.362Y-163.872
X151.7Y-153.71
X152.899Y-32.322
X152.899Y-42.322
X152.899Y-68.322
X152.926Y-146.57
X153.237Y-155.21
X153.362Y-83.872
X153.362Y-87.872
X153.362Y-99.872
X153.362Y-103.872
X153.362Y-115.872
X153.362Y-119.872
X153.362Y-131.872
X153.362Y-135.872
X153.362Y-139.872
X153.362Y-143.872
X153.362Y-159.872
X153.362Y-161.872
X153.362Y-163.872
X154.024Y-64.038
X154.024Y-62.438
X154.6Y-147.872
X154.8Y-153.71
X154.899Y-26.322
X154.899Y-36.322
X154.899Y-72.322
X155.362Y-159.872
X155.362Y-163.872
X155.362Y-173.872
X155.362Y-161.872
X155.362Y-165.872
X155.362Y-167.872
X155.362Y-169.872
X155.362Y-171.872
X155.362Y-175.872
X155.674Y-60.688
X156.2Y-147.872
X156.899Y-30.322
X156.899Y-40.322
X156.899Y-54.322
X156.899Y-66.322
X156.999Y-139.974
X157.362Y-161.872
X157.362Y-175.872
X157.362Y-83.872
X157.362Y-87.872
X157.362Y-91.872
X157.362Y-103.872
X157.362Y-107.872
X157.362Y-115.872
X157.362Y-119.872
X157.362Y-127.872
X157.362Y-131.872
X157.362Y-135.872
X157.362Y-151.872
X157.362Y-155.872
X157.362Y-159.872
X157.362Y-163.872
X157.362Y-165.872
X157.362Y-167.872
X157.362Y-169.872
X157.362Y-171.872
X157.362Y-173.872
X158.649Y-138.474
X158.899Y-34.322
X158.899Y-44.322
X158.899Y-70.322
X159.362Y-159.872
X159.362Y-161.872
X159.362Y-163.872
X159.362Y-165.872
X159.362Y-169.872
X159.362Y-171.872
X159.362Y-173.872
X159.362Y-175.872
X160.499Y-139.024
X160.899Y-28.322
X160.899Y-38.322
X160.899Y-50.322
X160.899Y-56.322
X160.899Y-62.322
X161.362Y-83.872
X161.362Y-95.872
X161.362Y-107.872
X161.362Y-115.872
X161.362Y-123.872
X161.362Y-135.872
X161.362Y-151.872
X161.362Y-155.872
X162.449Y-142.274
X162.899Y-32.322
X162.899Y-42.322
X162.899Y-66.322
X164.499Y-142.274
X164.899Y-36.322
X164.899Y-46.322
X164.899Y-52.322
X164.899Y-58.322
X165.362Y-83.872
X165.362Y-95.872
X165.362Y-99.872
X165.362Y-119.872
X165.362Y-123.872
X165.362Y-135.872
X165.362Y-143.872
X165.362Y-147.872
X165.362Y-151.872
X165.362Y-155.872
X166.424Y-146.211
X166.424Y-142.439
X166.899Y-40.322
X166.899Y-62.322
X167.224Y-147.211
X167.224Y-141.439
X168.024Y-146.211
X168.024Y-142.439
X168.824Y-154.511
X168.899Y-44.322
X168.899Y-50.322
X168.899Y-56.322
X169.362Y-83.872
X169.362Y-95.872
X169.362Y-99.872
X169.362Y-103.872
X169.362Y-107.872
X169.362Y-111.872
X169.362Y-115.872
X169.362Y-119.872
X169.362Y-123.872
X169.362Y-135.872
X169.362Y-139.872
X169.362Y-143.872
X169.362Y-147.872
X169.362Y-159.872
X169.362Y-163.872
X169.362Y-167.872
X169.362Y-171.872
X170.193Y-151.011
X170.424Y-152.811
X170.562Y-142.572
T4
X27.024Y-95.374
X27.968Y-93.093
X27.968Y-97.654
X30.249Y-92.149
X30.249Y-98.599
X32.529Y-93.093
X32.529Y-97.654
X33.474Y-95.374
X126.524Y-48.924
X127.468Y-46.643
X127.468Y-51.204
X129.749Y-45.699
X129.749Y-52.149
X132.029Y-46.643
X132.029Y-51.204
X132.974Y-48.924
X139.024Y-36.424
X139.968Y-34.143
X139.968Y-38.704
X142.249Y-33.199
X142.249Y-39.649
X144.529Y-34.143
X144.529Y-38.704
X145.474Y-36.424
X151.524Y-48.924
X152.468Y-46.643
X152.468Y-51.204
X154.749Y-45.699
X154.749Y-52.149
X157.029Y-46.643
X157.029Y-51.204
X157.974Y-48.924
X162.024Y-90.374
X162.024Y-130.374
X162.968Y-88.093
X162.968Y-92.654
X162.968Y-128.093
X162.968Y-132.654
X165.249Y-87.149
X165.249Y-93.599
X165.249Y-127.149
X165.249Y-133.599
X167.529Y-88.093
X167.529Y-92.654
X167.529Y-128.093
X167.529Y-132.654
X168.474Y-90.374
X168.474Y-130.374
T5
X29.769Y-107.264
X29.769Y-109.804
X29.769Y-168.224
X29.769Y-170.764
X32.309Y-107.264
X32.309Y-109.804
X32.309Y-168.224
X32.309Y-170.764
X34.849Y-107.264
X34.849Y-109.804
X34.849Y-168.224
X34.849Y-170.764
X37.389Y-107.264
X37.389Y-109.804
X37.389Y-168.224
X37.389Y-170.764
X39.929Y-107.264
X39.929Y-109.804
X39.929Y-168.224
X39.929Y-170.764
X41.374Y-87.474
X42.469Y-107.264
X42.469Y-109.804
X42.469Y-168.224
X42.469Y-170.764
X42.759Y-84.634
X44.144Y-87.474
X45.009Y-107.264
X45.009Y-109.804
X45.009Y-168.224
X45.009Y-170.764
X45.529Y-84.634
X46.914Y-87.474
X47.549Y-107.264
X47.549Y-109.804
X47.549Y-168.224
X47.549Y-170.764
X48.299Y-84.634
X49.684Y-87.474
X50.089Y-107.264
X50.089Y-109.804
X50.089Y-168.224
X50.089Y-170.764
X51.069Y-84.634
X52.454Y-87.474
X52.629Y-107.264
X52.629Y-109.804
X52.629Y-168.224
X52.629Y-170.764
X55.169Y-107.264
X55.169Y-109.804
X55.169Y-168.224
X55.169Y-170.764
X57.709Y-107.264
X57.709Y-109.804
X57.709Y-168.224
X57.709Y-170.764
X60.249Y-107.264
X60.249Y-109.804
X60.249Y-168.224
X60.249Y-170.764
X62.789Y-107.264
X62.789Y-109.804
X62.789Y-168.224
X62.789Y-170.764
X65.329Y-107.264
X65.329Y-109.804
X65.329Y-168.224
X65.329Y-170.764
X67.869Y-107.264
X67.869Y-109.804
X67.869Y-168.224
X67.869Y-170.764
X69.449Y-83.674
X69.449Y-86.214
X70.409Y-107.264
X70.409Y-109.804
X70.409Y-168.224
X70.409Y-170.764
X71.989Y-83.674
X71.989Y-86.214
X72.949Y-107.264
X72.949Y-109.804
X72.949Y-168.224
X72.949Y-170.764
X74.529Y-83.674
X74.529Y-86.214
X75.489Y-107.264
X75.489Y-109.804
X75.489Y-168.224
X75.489Y-170.764
T6
X90.049Y-167.874
X97.549Y-167.874
X159.236Y-167.874
X166.736Y-167.874
T7
X165.799Y-105.494
X165.799Y-110.574
X165.799Y-115.654
T8
X105.419Y-164.074
X105.419Y-174.234
X115.579Y-164.074
X115.579Y-174.234
X124.469Y-164.074
X124.469Y-174.234
X134.629Y-164.074
X134.629Y-174.234
T9
X110.499Y-167.874
X129.549Y-167.874
T10
X34.414Y-87.174
X59.414Y-87.174
T11
X30.249Y-95.374
X129.749Y-48.924
X142.249Y-36.424
X154.749Y-48.924
X165.249Y-90.374
X165.249Y-130.374
M30
