%TF.GenerationSoftware,KiCad,Pcbnew,7.0.10*%
%TF.CreationDate,2026-07-28T14:56:23+02:00*%
%TF.ProjectId,Testplatine,54657374-706c-4617-9469-6e652e6b6963,rev?*%
%TF.SameCoordinates,Original*%
%TF.FileFunction,Paste,Top*%
%TF.FilePolarity,Positive*%
%FSLAX46Y46*%
G04 Gerber Fmt 4.6, Leading zero omitted, Abs format (unit mm)*
G04 Created by KiCad (PCBNEW 7.0.10) date 2026-07-28 14:56:23*
%MOMM*%
%LPD*%
G01*
G04 APERTURE LIST*
G04 Aperture macros list*
%AMRoundRect*
0 Rectangle with rounded corners*
0 $1 Rounding radius*
0 $2 $3 $4 $5 $6 $7 $8 $9 X,Y pos of 4 corners*
0 Add a 4 corners polygon primitive as box body*
4,1,4,$2,$3,$4,$5,$6,$7,$8,$9,$2,$3,0*
0 Add four circle primitives for the rounded corners*
1,1,$1+$1,$2,$3*
1,1,$1+$1,$4,$5*
1,1,$1+$1,$6,$7*
1,1,$1+$1,$8,$9*
0 Add four rect primitives between the rounded corners*
20,1,$1+$1,$2,$3,$4,$5,0*
20,1,$1+$1,$4,$5,$6,$7,0*
20,1,$1+$1,$6,$7,$8,$9,0*
20,1,$1+$1,$8,$9,$2,$3,0*%
%AMFreePoly0*
4,1,13,0.175001,0.525000,0.175001,-0.124998,0.125001,-0.174998,-0.475000,-0.174998,-0.525000,-0.124998,-0.525000,0.025001,-0.475000,0.075001,-0.175001,0.075001,-0.075001,0.175001,-0.075001,0.525000,-0.025001,0.575000,0.124999,0.575000,0.175001,0.525000,0.175001,0.525000,$1*%
%AMFreePoly1*
4,1,13,0.075001,0.524997,0.075001,0.174998,0.175001,0.074998,0.475000,0.074998,0.525000,0.024998,0.525000,-0.125001,0.475000,-0.175001,-0.125001,-0.175001,-0.174998,-0.125001,-0.175001,0.524997,-0.125001,0.574997,0.025001,0.574997,0.075001,0.524997,0.075001,0.524997,$1*%
G04 Aperture macros list end*
%ADD10FreePoly0,180.000000*%
%ADD11R,0.700001X0.249999*%
%ADD12FreePoly1,180.000000*%
%ADD13R,0.249999X0.700001*%
%ADD14RoundRect,0.250000X-0.412500X-1.100000X0.412500X-1.100000X0.412500X1.100000X-0.412500X1.100000X0*%
%ADD15RoundRect,0.250000X-0.475000X0.337500X-0.475000X-0.337500X0.475000X-0.337500X0.475000X0.337500X0*%
%ADD16RoundRect,0.250000X-0.337500X-0.475000X0.337500X-0.475000X0.337500X0.475000X-0.337500X0.475000X0*%
%ADD17RoundRect,0.215000X0.215000X1.310000X-0.215000X1.310000X-0.215000X-1.310000X0.215000X-1.310000X0*%
%ADD18RoundRect,0.270000X-1.080000X-1.800000X1.080000X-1.800000X1.080000X1.800000X-1.080000X1.800000X0*%
%ADD19RoundRect,0.237500X-0.237500X0.300000X-0.237500X-0.300000X0.237500X-0.300000X0.237500X0.300000X0*%
%ADD20RoundRect,0.249999X-0.450001X-1.425001X0.450001X-1.425001X0.450001X1.425001X-0.450001X1.425001X0*%
%ADD21RoundRect,0.250000X0.337500X0.475000X-0.337500X0.475000X-0.337500X-0.475000X0.337500X-0.475000X0*%
%ADD22RoundRect,0.237500X-0.237500X0.250000X-0.237500X-0.250000X0.237500X-0.250000X0.237500X0.250000X0*%
%ADD23RoundRect,0.250000X0.450000X-0.325000X0.450000X0.325000X-0.450000X0.325000X-0.450000X-0.325000X0*%
%ADD24RoundRect,0.100000X-0.100000X0.637500X-0.100000X-0.637500X0.100000X-0.637500X0.100000X0.637500X0*%
%ADD25RoundRect,0.237500X0.300000X0.237500X-0.300000X0.237500X-0.300000X-0.237500X0.300000X-0.237500X0*%
%ADD26RoundRect,0.237500X-0.300000X-0.237500X0.300000X-0.237500X0.300000X0.237500X-0.300000X0.237500X0*%
%ADD27RoundRect,0.237500X0.237500X-0.250000X0.237500X0.250000X-0.237500X0.250000X-0.237500X-0.250000X0*%
%ADD28RoundRect,0.250000X0.450000X-0.350000X0.450000X0.350000X-0.450000X0.350000X-0.450000X-0.350000X0*%
%ADD29RoundRect,0.250000X-2.025000X-2.375000X2.025000X-2.375000X2.025000X2.375000X-2.025000X2.375000X0*%
%ADD30RoundRect,0.250000X-2.050000X-0.300000X2.050000X-0.300000X2.050000X0.300000X-2.050000X0.300000X0*%
%ADD31RoundRect,0.237500X0.250000X0.237500X-0.250000X0.237500X-0.250000X-0.237500X0.250000X-0.237500X0*%
%ADD32RoundRect,0.250000X1.100000X-0.412500X1.100000X0.412500X-1.100000X0.412500X-1.100000X-0.412500X0*%
%ADD33RoundRect,0.237500X0.237500X-0.300000X0.237500X0.300000X-0.237500X0.300000X-0.237500X-0.300000X0*%
%ADD34RoundRect,0.237500X-0.250000X-0.237500X0.250000X-0.237500X0.250000X0.237500X-0.250000X0.237500X0*%
%ADD35RoundRect,0.087500X-0.225000X-0.087500X0.225000X-0.087500X0.225000X0.087500X-0.225000X0.087500X0*%
%ADD36RoundRect,0.087500X-0.087500X-0.225000X0.087500X-0.225000X0.087500X0.225000X-0.087500X0.225000X0*%
%ADD37RoundRect,0.215000X-0.215000X-1.310000X0.215000X-1.310000X0.215000X1.310000X-0.215000X1.310000X0*%
%ADD38RoundRect,0.270000X1.080000X1.800000X-1.080000X1.800000X-1.080000X-1.800000X1.080000X-1.800000X0*%
%ADD39RoundRect,0.250000X-1.100000X0.412500X-1.100000X-0.412500X1.100000X-0.412500X1.100000X0.412500X0*%
%ADD40R,3.700000X0.980000*%
%ADD41RoundRect,0.150000X-0.725000X-0.150000X0.725000X-0.150000X0.725000X0.150000X-0.725000X0.150000X0*%
%ADD42RoundRect,0.250000X0.475000X-0.337500X0.475000X0.337500X-0.475000X0.337500X-0.475000X-0.337500X0*%
G04 APERTURE END LIST*
%TO.C,U9*%
G36*
X127903823Y-133727316D02*
G01*
X127903823Y-134077315D01*
X127853823Y-134127315D01*
X127653821Y-134127315D01*
X127603821Y-134077315D01*
X127603821Y-133727316D01*
X127653821Y-133677316D01*
X127853823Y-133677316D01*
X127903823Y-133727316D01*
G37*
G36*
X127903823Y-134377314D02*
G01*
X127903823Y-134727316D01*
X127853823Y-134777316D01*
X127653821Y-134777316D01*
X127603821Y-134727316D01*
X127603821Y-134377314D01*
X127653821Y-134327315D01*
X127853823Y-134327315D01*
X127903823Y-134377314D01*
G37*
G36*
X127403822Y-131907314D02*
G01*
X127403822Y-132957315D01*
X127353822Y-133007315D01*
X125743822Y-133007315D01*
X125693822Y-132957315D01*
X125693822Y-131907314D01*
X125743822Y-131857314D01*
X127353822Y-131857314D01*
X127403822Y-131907314D01*
G37*
G36*
X127403822Y-133614316D02*
G01*
X127403822Y-134724314D01*
X127353822Y-134774314D01*
X125743822Y-134774314D01*
X125693822Y-134724314D01*
X125693822Y-133614316D01*
X125743822Y-133564314D01*
X127353822Y-133564314D01*
X127403822Y-133614316D01*
G37*
G36*
X126348825Y-130034316D02*
G01*
X126348822Y-130457315D01*
X126398825Y-130507315D01*
X126548819Y-130507315D01*
X126598822Y-130457315D01*
X126598822Y-130034316D01*
X126648819Y-129984316D01*
X126798822Y-129984316D01*
X126848821Y-130034316D01*
X126848821Y-130457315D01*
X126898821Y-130507315D01*
X127048821Y-130507315D01*
X127098821Y-130457315D01*
X127098821Y-130034316D01*
X127148821Y-129984316D01*
X127298823Y-129984316D01*
X127348823Y-130034316D01*
X127348823Y-130468315D01*
X127376821Y-130512316D01*
X127403819Y-130557314D01*
X127403822Y-131607315D01*
X127353822Y-131657315D01*
X125743822Y-131657315D01*
X125693822Y-131607315D01*
X125693822Y-130557314D01*
X125743822Y-130507315D01*
X126048820Y-130507315D01*
X126098828Y-130457315D01*
X126098823Y-130034316D01*
X126148823Y-129984316D01*
X126298822Y-129984316D01*
X126348825Y-130034316D01*
G37*
G36*
X128673822Y-130384315D02*
G01*
X128673822Y-130672315D01*
X128723821Y-130722315D01*
X128948822Y-130722315D01*
X128998822Y-130772315D01*
X128998822Y-130922315D01*
X128948822Y-130972317D01*
X128723821Y-130972315D01*
X128673822Y-131022315D01*
X128673822Y-131172314D01*
X128723821Y-131222317D01*
X128948822Y-131222314D01*
X128998822Y-131272314D01*
X128998822Y-131422314D01*
X128948822Y-131472316D01*
X128723821Y-131472316D01*
X128673822Y-131522314D01*
X128673822Y-131672316D01*
X128723821Y-131722316D01*
X128948822Y-131722316D01*
X128998822Y-131772316D01*
X128998822Y-131922316D01*
X128948822Y-131972318D01*
X128723821Y-131972315D01*
X128673822Y-132022315D01*
X128673822Y-132172315D01*
X128723821Y-132222315D01*
X128948822Y-132222315D01*
X128998822Y-132272315D01*
X128998822Y-132422315D01*
X128948822Y-132472317D01*
X128723821Y-132472317D01*
X128673822Y-132522319D01*
X128673822Y-132784315D01*
X128623822Y-132834318D01*
X128473822Y-132834320D01*
X128423822Y-132784320D01*
X128423822Y-130384315D01*
X128473822Y-130334315D01*
X128623822Y-130334315D01*
X128673822Y-130384315D01*
G37*
G36*
X124673822Y-130384315D02*
G01*
X124673822Y-132784320D01*
X124623822Y-132834320D01*
X124473822Y-132834318D01*
X124423822Y-132784315D01*
X124423822Y-132522319D01*
X124373823Y-132472317D01*
X124148822Y-132472317D01*
X124098822Y-132422315D01*
X124098822Y-132272315D01*
X124148822Y-132222315D01*
X124373823Y-132222315D01*
X124423822Y-132172315D01*
X124423822Y-132022315D01*
X124373823Y-131972315D01*
X124148822Y-131972318D01*
X124098822Y-131922316D01*
X124098822Y-131772316D01*
X124148822Y-131722316D01*
X124373823Y-131722316D01*
X124423822Y-131672316D01*
X124423822Y-131522314D01*
X124373823Y-131472316D01*
X124148822Y-131472316D01*
X124098822Y-131422314D01*
X124098822Y-131272314D01*
X124148822Y-131222314D01*
X124373823Y-131222317D01*
X124423822Y-131172314D01*
X124423822Y-131022315D01*
X124373823Y-130972315D01*
X124148822Y-130972317D01*
X124098822Y-130922315D01*
X124098822Y-130772315D01*
X124148822Y-130722315D01*
X124373823Y-130722315D01*
X124423822Y-130672315D01*
X124423822Y-130384315D01*
X124473822Y-130334315D01*
X124623822Y-130334315D01*
X124673822Y-130384315D01*
G37*
%TO.C,U7*%
G36*
X127903822Y-91727317D02*
G01*
X127903822Y-92077316D01*
X127853822Y-92127316D01*
X127653820Y-92127316D01*
X127603820Y-92077316D01*
X127603820Y-91727317D01*
X127653820Y-91677317D01*
X127853822Y-91677317D01*
X127903822Y-91727317D01*
G37*
G36*
X127903822Y-92377315D02*
G01*
X127903822Y-92727317D01*
X127853822Y-92777317D01*
X127653820Y-92777317D01*
X127603820Y-92727317D01*
X127603820Y-92377315D01*
X127653820Y-92327316D01*
X127853822Y-92327316D01*
X127903822Y-92377315D01*
G37*
G36*
X127403821Y-89907315D02*
G01*
X127403821Y-90957316D01*
X127353821Y-91007316D01*
X125743821Y-91007316D01*
X125693821Y-90957316D01*
X125693821Y-89907315D01*
X125743821Y-89857315D01*
X127353821Y-89857315D01*
X127403821Y-89907315D01*
G37*
G36*
X127403821Y-91614317D02*
G01*
X127403821Y-92724315D01*
X127353821Y-92774315D01*
X125743821Y-92774315D01*
X125693821Y-92724315D01*
X125693821Y-91614317D01*
X125743821Y-91564315D01*
X127353821Y-91564315D01*
X127403821Y-91614317D01*
G37*
G36*
X126348824Y-88034317D02*
G01*
X126348821Y-88457316D01*
X126398824Y-88507316D01*
X126548818Y-88507316D01*
X126598821Y-88457316D01*
X126598821Y-88034317D01*
X126648818Y-87984317D01*
X126798821Y-87984317D01*
X126848820Y-88034317D01*
X126848820Y-88457316D01*
X126898820Y-88507316D01*
X127048820Y-88507316D01*
X127098820Y-88457316D01*
X127098820Y-88034317D01*
X127148820Y-87984317D01*
X127298822Y-87984317D01*
X127348822Y-88034317D01*
X127348822Y-88468316D01*
X127376820Y-88512317D01*
X127403818Y-88557315D01*
X127403821Y-89607316D01*
X127353821Y-89657316D01*
X125743821Y-89657316D01*
X125693821Y-89607316D01*
X125693821Y-88557315D01*
X125743821Y-88507316D01*
X126048819Y-88507316D01*
X126098827Y-88457316D01*
X126098822Y-88034317D01*
X126148822Y-87984317D01*
X126298821Y-87984317D01*
X126348824Y-88034317D01*
G37*
G36*
X128673821Y-88384316D02*
G01*
X128673821Y-88672316D01*
X128723820Y-88722316D01*
X128948821Y-88722316D01*
X128998821Y-88772316D01*
X128998821Y-88922316D01*
X128948821Y-88972318D01*
X128723820Y-88972316D01*
X128673821Y-89022316D01*
X128673821Y-89172315D01*
X128723820Y-89222318D01*
X128948821Y-89222315D01*
X128998821Y-89272315D01*
X128998821Y-89422315D01*
X128948821Y-89472317D01*
X128723820Y-89472317D01*
X128673821Y-89522315D01*
X128673821Y-89672317D01*
X128723820Y-89722317D01*
X128948821Y-89722317D01*
X128998821Y-89772317D01*
X128998821Y-89922317D01*
X128948821Y-89972319D01*
X128723820Y-89972316D01*
X128673821Y-90022316D01*
X128673821Y-90172316D01*
X128723820Y-90222316D01*
X128948821Y-90222316D01*
X128998821Y-90272316D01*
X128998821Y-90422316D01*
X128948821Y-90472318D01*
X128723820Y-90472318D01*
X128673821Y-90522320D01*
X128673821Y-90784316D01*
X128623821Y-90834319D01*
X128473821Y-90834321D01*
X128423821Y-90784321D01*
X128423821Y-88384316D01*
X128473821Y-88334316D01*
X128623821Y-88334316D01*
X128673821Y-88384316D01*
G37*
G36*
X124673821Y-88384316D02*
G01*
X124673821Y-90784321D01*
X124623821Y-90834321D01*
X124473821Y-90834319D01*
X124423821Y-90784316D01*
X124423821Y-90522320D01*
X124373822Y-90472318D01*
X124148821Y-90472318D01*
X124098821Y-90422316D01*
X124098821Y-90272316D01*
X124148821Y-90222316D01*
X124373822Y-90222316D01*
X124423821Y-90172316D01*
X124423821Y-90022316D01*
X124373822Y-89972316D01*
X124148821Y-89972319D01*
X124098821Y-89922317D01*
X124098821Y-89772317D01*
X124148821Y-89722317D01*
X124373822Y-89722317D01*
X124423821Y-89672317D01*
X124423821Y-89522315D01*
X124373822Y-89472317D01*
X124148821Y-89472317D01*
X124098821Y-89422315D01*
X124098821Y-89272315D01*
X124148821Y-89222315D01*
X124373822Y-89222318D01*
X124423821Y-89172315D01*
X124423821Y-89022316D01*
X124373822Y-88972316D01*
X124148821Y-88972318D01*
X124098821Y-88922316D01*
X124098821Y-88772316D01*
X124148821Y-88722316D01*
X124373822Y-88722316D01*
X124423821Y-88672316D01*
X124423821Y-88384316D01*
X124473821Y-88334316D01*
X124623821Y-88334316D01*
X124673821Y-88384316D01*
G37*
%TO.C,U5*%
G36*
X118803821Y-112727316D02*
G01*
X118803821Y-113077315D01*
X118753821Y-113127315D01*
X118553819Y-113127315D01*
X118503819Y-113077315D01*
X118503819Y-112727316D01*
X118553819Y-112677316D01*
X118753821Y-112677316D01*
X118803821Y-112727316D01*
G37*
G36*
X118803821Y-113377314D02*
G01*
X118803821Y-113727316D01*
X118753821Y-113777316D01*
X118553819Y-113777316D01*
X118503819Y-113727316D01*
X118503819Y-113377314D01*
X118553819Y-113327315D01*
X118753821Y-113327315D01*
X118803821Y-113377314D01*
G37*
G36*
X118303820Y-110907314D02*
G01*
X118303820Y-111957315D01*
X118253820Y-112007315D01*
X116643820Y-112007315D01*
X116593820Y-111957315D01*
X116593820Y-110907314D01*
X116643820Y-110857314D01*
X118253820Y-110857314D01*
X118303820Y-110907314D01*
G37*
G36*
X118303820Y-112614316D02*
G01*
X118303820Y-113724314D01*
X118253820Y-113774314D01*
X116643820Y-113774314D01*
X116593820Y-113724314D01*
X116593820Y-112614316D01*
X116643820Y-112564314D01*
X118253820Y-112564314D01*
X118303820Y-112614316D01*
G37*
G36*
X117248823Y-109034316D02*
G01*
X117248820Y-109457315D01*
X117298823Y-109507315D01*
X117448817Y-109507315D01*
X117498820Y-109457315D01*
X117498820Y-109034316D01*
X117548817Y-108984316D01*
X117698820Y-108984316D01*
X117748819Y-109034316D01*
X117748819Y-109457315D01*
X117798819Y-109507315D01*
X117948819Y-109507315D01*
X117998819Y-109457315D01*
X117998819Y-109034316D01*
X118048819Y-108984316D01*
X118198821Y-108984316D01*
X118248821Y-109034316D01*
X118248821Y-109468315D01*
X118276819Y-109512316D01*
X118303817Y-109557314D01*
X118303820Y-110607315D01*
X118253820Y-110657315D01*
X116643820Y-110657315D01*
X116593820Y-110607315D01*
X116593820Y-109557314D01*
X116643820Y-109507315D01*
X116948818Y-109507315D01*
X116998826Y-109457315D01*
X116998821Y-109034316D01*
X117048821Y-108984316D01*
X117198820Y-108984316D01*
X117248823Y-109034316D01*
G37*
G36*
X119573820Y-109384315D02*
G01*
X119573820Y-109672315D01*
X119623819Y-109722315D01*
X119848820Y-109722315D01*
X119898820Y-109772315D01*
X119898820Y-109922315D01*
X119848820Y-109972317D01*
X119623819Y-109972315D01*
X119573820Y-110022315D01*
X119573820Y-110172314D01*
X119623819Y-110222317D01*
X119848820Y-110222314D01*
X119898820Y-110272314D01*
X119898820Y-110422314D01*
X119848820Y-110472316D01*
X119623819Y-110472316D01*
X119573820Y-110522314D01*
X119573820Y-110672316D01*
X119623819Y-110722316D01*
X119848820Y-110722316D01*
X119898820Y-110772316D01*
X119898820Y-110922316D01*
X119848820Y-110972318D01*
X119623819Y-110972315D01*
X119573820Y-111022315D01*
X119573820Y-111172315D01*
X119623819Y-111222315D01*
X119848820Y-111222315D01*
X119898820Y-111272315D01*
X119898820Y-111422315D01*
X119848820Y-111472317D01*
X119623819Y-111472317D01*
X119573820Y-111522319D01*
X119573820Y-111784315D01*
X119523820Y-111834318D01*
X119373820Y-111834320D01*
X119323820Y-111784320D01*
X119323820Y-109384315D01*
X119373820Y-109334315D01*
X119523820Y-109334315D01*
X119573820Y-109384315D01*
G37*
G36*
X115573820Y-109384315D02*
G01*
X115573820Y-111784320D01*
X115523820Y-111834320D01*
X115373820Y-111834318D01*
X115323820Y-111784315D01*
X115323820Y-111522319D01*
X115273821Y-111472317D01*
X115048820Y-111472317D01*
X114998820Y-111422315D01*
X114998820Y-111272315D01*
X115048820Y-111222315D01*
X115273821Y-111222315D01*
X115323820Y-111172315D01*
X115323820Y-111022315D01*
X115273821Y-110972315D01*
X115048820Y-110972318D01*
X114998820Y-110922316D01*
X114998820Y-110772316D01*
X115048820Y-110722316D01*
X115273821Y-110722316D01*
X115323820Y-110672316D01*
X115323820Y-110522314D01*
X115273821Y-110472316D01*
X115048820Y-110472316D01*
X114998820Y-110422314D01*
X114998820Y-110272314D01*
X115048820Y-110222314D01*
X115273821Y-110222317D01*
X115323820Y-110172314D01*
X115323820Y-110022315D01*
X115273821Y-109972315D01*
X115048820Y-109972317D01*
X114998820Y-109922315D01*
X114998820Y-109772315D01*
X115048820Y-109722315D01*
X115273821Y-109722315D01*
X115323820Y-109672315D01*
X115323820Y-109384315D01*
X115373820Y-109334315D01*
X115523820Y-109334315D01*
X115573820Y-109384315D01*
G37*
%TD*%
D10*
%TO.C,U9*%
X128473822Y-135309314D03*
D11*
X128648823Y-134759315D03*
X128648823Y-134259316D03*
X128648823Y-133759315D03*
X124448821Y-133759315D03*
X124448821Y-134259316D03*
X124448821Y-134759315D03*
D12*
X124623822Y-135309317D03*
D13*
X125723822Y-135534315D03*
X126223821Y-135534315D03*
X126723823Y-135534315D03*
X127223822Y-135534315D03*
X127723821Y-135534315D03*
%TD*%
D14*
%TO.C,C78*%
X152311320Y-63288312D03*
X155436320Y-63288312D03*
%TD*%
D10*
%TO.C,U7*%
X128473821Y-93309315D03*
D11*
X128648822Y-92759316D03*
X128648822Y-92259317D03*
X128648822Y-91759316D03*
X124448820Y-91759316D03*
X124448820Y-92259317D03*
X124448820Y-92759316D03*
D12*
X124623821Y-93309318D03*
D13*
X125723821Y-93534316D03*
X126223820Y-93534316D03*
X126723822Y-93534316D03*
X127223821Y-93534316D03*
X127723820Y-93534316D03*
%TD*%
D15*
%TO.C,C10*%
X143698820Y-153836314D03*
X143698820Y-155911314D03*
%TD*%
D16*
%TO.C,C8*%
X147861321Y-153773814D03*
X149936321Y-153773814D03*
%TD*%
D17*
%TO.C,J7*%
X85538821Y-94353814D03*
X86558821Y-94353814D03*
X87578821Y-94353814D03*
X88598821Y-94353814D03*
X89618821Y-94353814D03*
X90638821Y-94353814D03*
X91658821Y-94353814D03*
X92678821Y-94353814D03*
D18*
X97768821Y-84373814D03*
X80448821Y-84373814D03*
%TD*%
D19*
%TO.C,C49*%
X122848821Y-92311315D03*
X122848821Y-94036315D03*
%TD*%
D20*
%TO.C,R11*%
X140598822Y-110573814D03*
X146698822Y-110573814D03*
%TD*%
D21*
%TO.C,C31*%
X112461321Y-108059317D03*
X110386321Y-108059317D03*
%TD*%
D22*
%TO.C,R14*%
X127748821Y-95061314D03*
X127748821Y-96886314D03*
%TD*%
D23*
%TO.C,D4*%
X154673821Y-58863312D03*
X154673821Y-56813312D03*
%TD*%
D19*
%TO.C,C33*%
X115348821Y-117011314D03*
X115348821Y-118736314D03*
%TD*%
D24*
%TO.C,U10*%
X144623821Y-134711314D03*
X143973821Y-134711314D03*
X143323821Y-134711314D03*
X142673821Y-134711314D03*
X142673821Y-140436314D03*
X143323821Y-140436314D03*
X143973821Y-140436314D03*
X144623821Y-140436314D03*
%TD*%
D25*
%TO.C,C57*%
X121623821Y-130859317D03*
X119898821Y-130859317D03*
%TD*%
D26*
%TO.C,C35*%
X110386320Y-115073814D03*
X112111320Y-115073814D03*
%TD*%
D25*
%TO.C,C36*%
X142461321Y-121273814D03*
X140736321Y-121273814D03*
%TD*%
D26*
%TO.C,C43*%
X124311321Y-86823814D03*
X126036321Y-86823814D03*
%TD*%
D19*
%TO.C,C47*%
X121248821Y-96011314D03*
X121248821Y-97736314D03*
%TD*%
D26*
%TO.C,C53*%
X144136321Y-100273814D03*
X145861321Y-100273814D03*
%TD*%
D27*
%TO.C,R16*%
X126048821Y-97798814D03*
X126048821Y-95973814D03*
%TD*%
%TO.C,R22*%
X122848821Y-139798814D03*
X122848821Y-137973814D03*
%TD*%
D28*
%TO.C,R46*%
X152373821Y-58838312D03*
X152373821Y-56838312D03*
%TD*%
D29*
%TO.C,Q1*%
X146278821Y-168708814D03*
X146278821Y-174258814D03*
X151128821Y-168708814D03*
X151128821Y-174258814D03*
D30*
X139553821Y-168943814D03*
X139553821Y-174023814D03*
%TD*%
D16*
%TO.C,C30*%
X115186321Y-105973814D03*
X117261321Y-105973814D03*
%TD*%
D26*
%TO.C,C50*%
X119486321Y-94073814D03*
X121211321Y-94073814D03*
%TD*%
D19*
%TO.C,C7*%
X152937361Y-147909524D03*
X152937361Y-149634524D03*
%TD*%
%TO.C,C63*%
X124448820Y-138011314D03*
X124448820Y-139736314D03*
%TD*%
D22*
%TO.C,R21*%
X127748821Y-137061314D03*
X127748821Y-138886314D03*
%TD*%
D27*
%TO.C,R15*%
X122848822Y-97798814D03*
X122848822Y-95973814D03*
%TD*%
D26*
%TO.C,C4*%
X146074861Y-146372025D03*
X147799861Y-146372025D03*
%TD*%
D10*
%TO.C,U5*%
X119373820Y-114309314D03*
D11*
X119548821Y-113759315D03*
X119548821Y-113259316D03*
X119548821Y-112759315D03*
X115348819Y-112759315D03*
X115348819Y-113259316D03*
X115348819Y-113759315D03*
D12*
X115523820Y-114309317D03*
D13*
X116623820Y-114534315D03*
X117123819Y-114534315D03*
X117623821Y-114534315D03*
X118123820Y-114534315D03*
X118623819Y-114534315D03*
%TD*%
D16*
%TO.C,C60*%
X124286321Y-126973814D03*
X126361321Y-126973814D03*
%TD*%
D23*
%TO.C,D3*%
X164498821Y-140648814D03*
X164498821Y-138598814D03*
%TD*%
D16*
%TO.C,C45*%
X124286321Y-84973814D03*
X126361321Y-84973814D03*
%TD*%
D31*
%TO.C,R10*%
X112161321Y-113273813D03*
X110336321Y-113273813D03*
%TD*%
D26*
%TO.C,C65*%
X119486322Y-136073814D03*
X121211322Y-136073814D03*
%TD*%
D25*
%TO.C,C42*%
X121623821Y-88859317D03*
X119898821Y-88859317D03*
%TD*%
D31*
%TO.C,R1*%
X147958370Y-52923814D03*
X146133370Y-52923814D03*
%TD*%
D32*
%TO.C,C5*%
X155437361Y-149734524D03*
X155437361Y-146609524D03*
%TD*%
D19*
%TO.C,C62*%
X121248821Y-138011314D03*
X121248821Y-139736314D03*
%TD*%
D33*
%TO.C,C1*%
X143905066Y-44517086D03*
X143905066Y-42792086D03*
%TD*%
D21*
%TO.C,C44*%
X121561321Y-84959317D03*
X119486321Y-84959317D03*
%TD*%
D33*
%TO.C,C55*%
X129348821Y-138836313D03*
X129348821Y-137111313D03*
%TD*%
D34*
%TO.C,R29*%
X63086321Y-102773814D03*
X64911321Y-102773814D03*
%TD*%
D35*
%TO.C,U2*%
X125986321Y-62173814D03*
X125986321Y-62673814D03*
X125986321Y-63173814D03*
X125986321Y-63673814D03*
D36*
X126648821Y-63836314D03*
X127148821Y-63836314D03*
X127648821Y-63836314D03*
D35*
X128311321Y-63673814D03*
X128311321Y-63173814D03*
X128311321Y-62673814D03*
X128311321Y-62173814D03*
D36*
X127648821Y-62011314D03*
X127148821Y-62011314D03*
X126648821Y-62011314D03*
%TD*%
D25*
%TO.C,C2*%
X126868824Y-65368814D03*
X125143824Y-65368814D03*
%TD*%
D31*
%TO.C,R37*%
X35961321Y-102823814D03*
X34136321Y-102823814D03*
%TD*%
D37*
%TO.C,J1*%
X145776321Y-62673814D03*
X144756321Y-62673814D03*
X143736321Y-62673814D03*
X142716321Y-62673814D03*
X141696321Y-62673814D03*
X140676321Y-62673814D03*
X139656321Y-62673814D03*
X138636321Y-62673814D03*
D38*
X133546321Y-72653814D03*
X150866321Y-72653814D03*
%TD*%
D26*
%TO.C,C69*%
X63136320Y-101123814D03*
X64861320Y-101123814D03*
%TD*%
%TO.C,C58*%
X124311321Y-128823814D03*
X126036321Y-128823814D03*
%TD*%
D34*
%TO.C,R3*%
X127936321Y-60568813D03*
X129761321Y-60568813D03*
%TD*%
D15*
%TO.C,C24*%
X118898821Y-119636314D03*
X118898821Y-121711314D03*
%TD*%
D33*
%TO.C,C80*%
X145398821Y-160836315D03*
X145398821Y-159111315D03*
%TD*%
D19*
%TO.C,C3*%
X129806321Y-63468813D03*
X129806321Y-65193813D03*
%TD*%
D24*
%TO.C,U8*%
X144623821Y-92711314D03*
X143973821Y-92711314D03*
X143323821Y-92711314D03*
X142673821Y-92711314D03*
X142673821Y-98436314D03*
X143323821Y-98436314D03*
X143973821Y-98436314D03*
X144623821Y-98436314D03*
%TD*%
D15*
%TO.C,C54*%
X127998821Y-140636313D03*
X127998821Y-142711313D03*
%TD*%
D21*
%TO.C,C61*%
X121561321Y-129059317D03*
X119486321Y-129059317D03*
%TD*%
D15*
%TO.C,C39*%
X127998821Y-98636314D03*
X127998821Y-100711314D03*
%TD*%
D26*
%TO.C,C79*%
X152411321Y-60688312D03*
X154136321Y-60688312D03*
%TD*%
D24*
%TO.C,U6*%
X144623821Y-113711314D03*
X143973821Y-113711314D03*
X143323821Y-113711314D03*
X142673821Y-113711314D03*
X142673821Y-119436314D03*
X143323821Y-119436314D03*
X143973821Y-119436314D03*
X144623821Y-119436314D03*
%TD*%
D26*
%TO.C,C68*%
X144136321Y-142273814D03*
X145861321Y-142273814D03*
%TD*%
D21*
%TO.C,C59*%
X121561321Y-126959317D03*
X119486321Y-126959317D03*
%TD*%
D26*
%TO.C,C38*%
X144136321Y-121273814D03*
X145861321Y-121273814D03*
%TD*%
D21*
%TO.C,C46*%
X121561321Y-87059317D03*
X119486321Y-87059317D03*
%TD*%
D27*
%TO.C,R9*%
X116948821Y-118798814D03*
X116948821Y-116973814D03*
%TD*%
D25*
%TO.C,C26*%
X112523821Y-111409316D03*
X110798821Y-111409316D03*
%TD*%
%TO.C,C51*%
X142461321Y-100273814D03*
X140736321Y-100273814D03*
%TD*%
D19*
%TO.C,C34*%
X113748821Y-113311314D03*
X113748821Y-115036314D03*
%TD*%
D33*
%TO.C,C40*%
X129348822Y-96836314D03*
X129348822Y-95111314D03*
%TD*%
D31*
%TO.C,R17*%
X121261322Y-92273814D03*
X119436322Y-92273814D03*
%TD*%
D39*
%TO.C,C11*%
X140948821Y-153873814D03*
X140948821Y-156998814D03*
%TD*%
D25*
%TO.C,C41*%
X121623822Y-90409317D03*
X119898822Y-90409317D03*
%TD*%
D27*
%TO.C,R8*%
X113748821Y-118798814D03*
X113748821Y-116973814D03*
%TD*%
D20*
%TO.C,R25*%
X140598821Y-131573814D03*
X146698821Y-131573814D03*
%TD*%
D22*
%TO.C,R4*%
X124548820Y-61911314D03*
X124548820Y-63736314D03*
%TD*%
D40*
%TO.C,L1*%
X142187361Y-149537024D03*
X142187361Y-151907024D03*
%TD*%
D25*
%TO.C,C66*%
X142461321Y-142273814D03*
X140736321Y-142273814D03*
%TD*%
D41*
%TO.C,U3*%
X145712361Y-148017024D03*
X145712361Y-149287024D03*
X145712361Y-150557024D03*
X145712361Y-151827024D03*
X150862361Y-151827024D03*
X150862361Y-150557024D03*
X150862361Y-149287024D03*
X150862361Y-148017024D03*
%TD*%
D27*
%TO.C,R23*%
X126048821Y-139798814D03*
X126048821Y-137973814D03*
%TD*%
D25*
%TO.C,C27*%
X112523821Y-109859317D03*
X110798821Y-109859317D03*
%TD*%
D19*
%TO.C,C9*%
X145598821Y-153773812D03*
X145598821Y-155498812D03*
%TD*%
D21*
%TO.C,C29*%
X112461322Y-105959317D03*
X110386322Y-105959317D03*
%TD*%
D31*
%TO.C,R24*%
X121261321Y-134273814D03*
X119436321Y-134273814D03*
%TD*%
D26*
%TO.C,C28*%
X115211322Y-107823814D03*
X116936322Y-107823814D03*
%TD*%
D33*
%TO.C,C25*%
X120248820Y-117836314D03*
X120248820Y-116111314D03*
%TD*%
D41*
%TO.C,U13*%
X138143821Y-160778814D03*
X138143821Y-162048814D03*
X138143821Y-163318814D03*
X138143821Y-164588814D03*
X143293821Y-164588814D03*
X143293821Y-163318814D03*
X143293821Y-162048814D03*
X143293821Y-160778814D03*
%TD*%
D22*
%TO.C,R7*%
X118648822Y-116061314D03*
X118648822Y-117886314D03*
%TD*%
D25*
%TO.C,C56*%
X121623821Y-132409317D03*
X119898821Y-132409317D03*
%TD*%
D20*
%TO.C,R18*%
X140598821Y-89573814D03*
X146698821Y-89573814D03*
%TD*%
D19*
%TO.C,C48*%
X124448821Y-96011314D03*
X124448821Y-97736314D03*
%TD*%
%TO.C,C32*%
X112148821Y-117011315D03*
X112148821Y-118736315D03*
%TD*%
D42*
%TO.C,C6*%
X153237361Y-153747024D03*
X153237361Y-151672024D03*
%TD*%
D28*
%TO.C,R45*%
X162473821Y-140613312D03*
X162473821Y-138613312D03*
%TD*%
D19*
%TO.C,C64*%
X122848821Y-134311313D03*
X122848821Y-136036313D03*
%TD*%
M02*
