%TF.GenerationSoftware,KiCad,Pcbnew,7.0.10*%
%TF.CreationDate,2026-07-28T14:56:30+02:00*%
%TF.ProjectId,Testplatine,54657374-706c-4617-9469-6e652e6b6963,rev?*%
%TF.SameCoordinates,Original*%
%TF.FileFunction,Drillmap*%
%TF.FilePolarity,Positive*%
%FSLAX45Y45*%
G04 Gerber Fmt 4.5, Leading zero omitted, Abs format (unit mm)*
G04 Created by KiCad (PCBNEW 7.0.10) date 2026-07-28 14:56:30*
%MOMM*%
%LPD*%
G01*
G04 APERTURE LIST*
%ADD10C,0.100000*%
%ADD11C,0.200000*%
%ADD12C,0.345000*%
G04 APERTURE END LIST*
D10*
X13350005Y-7761979D02*
X13349882Y-7827381D01*
X16724882Y-17827380D02*
G75*
G03*
X17224882Y-17327381I3J499997D01*
G01*
X2224886Y-17327381D02*
G75*
G03*
X2724882Y-17827381I499999J-1D01*
G01*
X17224886Y-8327381D02*
G75*
G03*
X16724882Y-7827381I-500011J-12D01*
G01*
X15093736Y-7827202D02*
X16724882Y-7827381D01*
D11*
X2724882Y-7827380D02*
G75*
G03*
X2224882Y-8327381I3J-500003D01*
G01*
X15094215Y-7763663D02*
G75*
G03*
X13350005Y-7761979I-869333J2871282D01*
G01*
D10*
X2724882Y-17827381D02*
X16724882Y-17827381D01*
X2224882Y-8327381D02*
X2224882Y-17327381D01*
X2724882Y-7827381D02*
X13349882Y-7827381D01*
X17224882Y-8327381D02*
X17224882Y-17327381D01*
X15094215Y-7763663D02*
X15093736Y-7827202D01*
D11*
D12*
X8103382Y-8264881D02*
X8448382Y-8609881D01*
X8448382Y-8264881D02*
X8103382Y-8609881D01*
X9373382Y-8264881D02*
X9718382Y-8609881D01*
X9718382Y-8264881D02*
X9373382Y-8609881D01*
X13413132Y-7092881D02*
X13758132Y-7437881D01*
X13758132Y-7092881D02*
X13413132Y-7437881D01*
X14683132Y-7092881D02*
X15028132Y-7437881D01*
X15028132Y-7092881D02*
X14683132Y-7437881D01*
D11*
X2475659Y-18143865D02*
X2475659Y-17943865D01*
X2475659Y-17943865D02*
X2523278Y-17943865D01*
X2523278Y-17943865D02*
X2551849Y-17953389D01*
X2551849Y-17953389D02*
X2570897Y-17972437D01*
X2570897Y-17972437D02*
X2580421Y-17991484D01*
X2580421Y-17991484D02*
X2589945Y-18029579D01*
X2589945Y-18029579D02*
X2589945Y-18058151D01*
X2589945Y-18058151D02*
X2580421Y-18096246D01*
X2580421Y-18096246D02*
X2570897Y-18115294D01*
X2570897Y-18115294D02*
X2551849Y-18134341D01*
X2551849Y-18134341D02*
X2523278Y-18143865D01*
X2523278Y-18143865D02*
X2475659Y-18143865D01*
X2675659Y-18143865D02*
X2675659Y-18010532D01*
X2675659Y-18048627D02*
X2685183Y-18029579D01*
X2685183Y-18029579D02*
X2694706Y-18020056D01*
X2694706Y-18020056D02*
X2713754Y-18010532D01*
X2713754Y-18010532D02*
X2732802Y-18010532D01*
X2799468Y-18143865D02*
X2799468Y-18010532D01*
X2799468Y-17943865D02*
X2789945Y-17953389D01*
X2789945Y-17953389D02*
X2799468Y-17962913D01*
X2799468Y-17962913D02*
X2808992Y-17953389D01*
X2808992Y-17953389D02*
X2799468Y-17943865D01*
X2799468Y-17943865D02*
X2799468Y-17962913D01*
X2923278Y-18143865D02*
X2904230Y-18134341D01*
X2904230Y-18134341D02*
X2894706Y-18115294D01*
X2894706Y-18115294D02*
X2894706Y-17943865D01*
X3028040Y-18143865D02*
X3008992Y-18134341D01*
X3008992Y-18134341D02*
X2999468Y-18115294D01*
X2999468Y-18115294D02*
X2999468Y-17943865D01*
X3256611Y-18143865D02*
X3256611Y-17943865D01*
X3256611Y-17943865D02*
X3323278Y-18086722D01*
X3323278Y-18086722D02*
X3389944Y-17943865D01*
X3389944Y-17943865D02*
X3389944Y-18143865D01*
X3570897Y-18143865D02*
X3570897Y-18039103D01*
X3570897Y-18039103D02*
X3561373Y-18020056D01*
X3561373Y-18020056D02*
X3542325Y-18010532D01*
X3542325Y-18010532D02*
X3504230Y-18010532D01*
X3504230Y-18010532D02*
X3485183Y-18020056D01*
X3570897Y-18134341D02*
X3551849Y-18143865D01*
X3551849Y-18143865D02*
X3504230Y-18143865D01*
X3504230Y-18143865D02*
X3485183Y-18134341D01*
X3485183Y-18134341D02*
X3475659Y-18115294D01*
X3475659Y-18115294D02*
X3475659Y-18096246D01*
X3475659Y-18096246D02*
X3485183Y-18077199D01*
X3485183Y-18077199D02*
X3504230Y-18067675D01*
X3504230Y-18067675D02*
X3551849Y-18067675D01*
X3551849Y-18067675D02*
X3570897Y-18058151D01*
X3666135Y-18010532D02*
X3666135Y-18210532D01*
X3666135Y-18020056D02*
X3685183Y-18010532D01*
X3685183Y-18010532D02*
X3723278Y-18010532D01*
X3723278Y-18010532D02*
X3742325Y-18020056D01*
X3742325Y-18020056D02*
X3751849Y-18029579D01*
X3751849Y-18029579D02*
X3761373Y-18048627D01*
X3761373Y-18048627D02*
X3761373Y-18105770D01*
X3761373Y-18105770D02*
X3751849Y-18124818D01*
X3751849Y-18124818D02*
X3742325Y-18134341D01*
X3742325Y-18134341D02*
X3723278Y-18143865D01*
X3723278Y-18143865D02*
X3685183Y-18143865D01*
X3685183Y-18143865D02*
X3666135Y-18134341D01*
X3847087Y-18124818D02*
X3856611Y-18134341D01*
X3856611Y-18134341D02*
X3847087Y-18143865D01*
X3847087Y-18143865D02*
X3837564Y-18134341D01*
X3837564Y-18134341D02*
X3847087Y-18124818D01*
X3847087Y-18124818D02*
X3847087Y-18143865D01*
X3847087Y-18020056D02*
X3856611Y-18029579D01*
X3856611Y-18029579D02*
X3847087Y-18039103D01*
X3847087Y-18039103D02*
X3837564Y-18029579D01*
X3837564Y-18029579D02*
X3847087Y-18020056D01*
X3847087Y-18020056D02*
X3847087Y-18039103D01*
X2014882Y-18372381D02*
X2214882Y-18572381D01*
X2214882Y-18372381D02*
X2014882Y-18572381D01*
X2456611Y-18363865D02*
X2580421Y-18363865D01*
X2580421Y-18363865D02*
X2513754Y-18440056D01*
X2513754Y-18440056D02*
X2542326Y-18440056D01*
X2542326Y-18440056D02*
X2561373Y-18449579D01*
X2561373Y-18449579D02*
X2570897Y-18459103D01*
X2570897Y-18459103D02*
X2580421Y-18478151D01*
X2580421Y-18478151D02*
X2580421Y-18525770D01*
X2580421Y-18525770D02*
X2570897Y-18544818D01*
X2570897Y-18544818D02*
X2561373Y-18554341D01*
X2561373Y-18554341D02*
X2542326Y-18563865D01*
X2542326Y-18563865D02*
X2485183Y-18563865D01*
X2485183Y-18563865D02*
X2466135Y-18554341D01*
X2466135Y-18554341D02*
X2456611Y-18544818D01*
X2666135Y-18544818D02*
X2675659Y-18554341D01*
X2675659Y-18554341D02*
X2666135Y-18563865D01*
X2666135Y-18563865D02*
X2656611Y-18554341D01*
X2656611Y-18554341D02*
X2666135Y-18544818D01*
X2666135Y-18544818D02*
X2666135Y-18563865D01*
X2847087Y-18430532D02*
X2847087Y-18563865D01*
X2799468Y-18354341D02*
X2751849Y-18497199D01*
X2751849Y-18497199D02*
X2875659Y-18497199D01*
X3047087Y-18363865D02*
X2951849Y-18363865D01*
X2951849Y-18363865D02*
X2942325Y-18459103D01*
X2942325Y-18459103D02*
X2951849Y-18449579D01*
X2951849Y-18449579D02*
X2970897Y-18440056D01*
X2970897Y-18440056D02*
X3018516Y-18440056D01*
X3018516Y-18440056D02*
X3037564Y-18449579D01*
X3037564Y-18449579D02*
X3047087Y-18459103D01*
X3047087Y-18459103D02*
X3056611Y-18478151D01*
X3056611Y-18478151D02*
X3056611Y-18525770D01*
X3056611Y-18525770D02*
X3047087Y-18544818D01*
X3047087Y-18544818D02*
X3037564Y-18554341D01*
X3037564Y-18554341D02*
X3018516Y-18563865D01*
X3018516Y-18563865D02*
X2970897Y-18563865D01*
X2970897Y-18563865D02*
X2951849Y-18554341D01*
X2951849Y-18554341D02*
X2942325Y-18544818D01*
X3180421Y-18363865D02*
X3199468Y-18363865D01*
X3199468Y-18363865D02*
X3218516Y-18373389D01*
X3218516Y-18373389D02*
X3228040Y-18382913D01*
X3228040Y-18382913D02*
X3237564Y-18401960D01*
X3237564Y-18401960D02*
X3247087Y-18440056D01*
X3247087Y-18440056D02*
X3247087Y-18487675D01*
X3247087Y-18487675D02*
X3237564Y-18525770D01*
X3237564Y-18525770D02*
X3228040Y-18544818D01*
X3228040Y-18544818D02*
X3218516Y-18554341D01*
X3218516Y-18554341D02*
X3199468Y-18563865D01*
X3199468Y-18563865D02*
X3180421Y-18563865D01*
X3180421Y-18563865D02*
X3161373Y-18554341D01*
X3161373Y-18554341D02*
X3151849Y-18544818D01*
X3151849Y-18544818D02*
X3142325Y-18525770D01*
X3142325Y-18525770D02*
X3132802Y-18487675D01*
X3132802Y-18487675D02*
X3132802Y-18440056D01*
X3132802Y-18440056D02*
X3142325Y-18401960D01*
X3142325Y-18401960D02*
X3151849Y-18382913D01*
X3151849Y-18382913D02*
X3161373Y-18373389D01*
X3161373Y-18373389D02*
X3180421Y-18363865D01*
X3332802Y-18563865D02*
X3332802Y-18430532D01*
X3332802Y-18449579D02*
X3342325Y-18440056D01*
X3342325Y-18440056D02*
X3361373Y-18430532D01*
X3361373Y-18430532D02*
X3389945Y-18430532D01*
X3389945Y-18430532D02*
X3408992Y-18440056D01*
X3408992Y-18440056D02*
X3418516Y-18459103D01*
X3418516Y-18459103D02*
X3418516Y-18563865D01*
X3418516Y-18459103D02*
X3428040Y-18440056D01*
X3428040Y-18440056D02*
X3447087Y-18430532D01*
X3447087Y-18430532D02*
X3475659Y-18430532D01*
X3475659Y-18430532D02*
X3494706Y-18440056D01*
X3494706Y-18440056D02*
X3504230Y-18459103D01*
X3504230Y-18459103D02*
X3504230Y-18563865D01*
X3599468Y-18563865D02*
X3599468Y-18430532D01*
X3599468Y-18449579D02*
X3608992Y-18440056D01*
X3608992Y-18440056D02*
X3628040Y-18430532D01*
X3628040Y-18430532D02*
X3656611Y-18430532D01*
X3656611Y-18430532D02*
X3675659Y-18440056D01*
X3675659Y-18440056D02*
X3685183Y-18459103D01*
X3685183Y-18459103D02*
X3685183Y-18563865D01*
X3685183Y-18459103D02*
X3694706Y-18440056D01*
X3694706Y-18440056D02*
X3713754Y-18430532D01*
X3713754Y-18430532D02*
X3742325Y-18430532D01*
X3742325Y-18430532D02*
X3761373Y-18440056D01*
X3761373Y-18440056D02*
X3770897Y-18459103D01*
X3770897Y-18459103D02*
X3770897Y-18563865D01*
X4161373Y-18354341D02*
X3989945Y-18611484D01*
X4418516Y-18363865D02*
X4437564Y-18363865D01*
X4437564Y-18363865D02*
X4456611Y-18373389D01*
X4456611Y-18373389D02*
X4466135Y-18382913D01*
X4466135Y-18382913D02*
X4475659Y-18401960D01*
X4475659Y-18401960D02*
X4485183Y-18440056D01*
X4485183Y-18440056D02*
X4485183Y-18487675D01*
X4485183Y-18487675D02*
X4475659Y-18525770D01*
X4475659Y-18525770D02*
X4466135Y-18544818D01*
X4466135Y-18544818D02*
X4456611Y-18554341D01*
X4456611Y-18554341D02*
X4437564Y-18563865D01*
X4437564Y-18563865D02*
X4418516Y-18563865D01*
X4418516Y-18563865D02*
X4399469Y-18554341D01*
X4399469Y-18554341D02*
X4389945Y-18544818D01*
X4389945Y-18544818D02*
X4380421Y-18525770D01*
X4380421Y-18525770D02*
X4370897Y-18487675D01*
X4370897Y-18487675D02*
X4370897Y-18440056D01*
X4370897Y-18440056D02*
X4380421Y-18401960D01*
X4380421Y-18401960D02*
X4389945Y-18382913D01*
X4389945Y-18382913D02*
X4399469Y-18373389D01*
X4399469Y-18373389D02*
X4418516Y-18363865D01*
X4570897Y-18544818D02*
X4580421Y-18554341D01*
X4580421Y-18554341D02*
X4570897Y-18563865D01*
X4570897Y-18563865D02*
X4561373Y-18554341D01*
X4561373Y-18554341D02*
X4570897Y-18544818D01*
X4570897Y-18544818D02*
X4570897Y-18563865D01*
X4770897Y-18563865D02*
X4656611Y-18563865D01*
X4713754Y-18563865D02*
X4713754Y-18363865D01*
X4713754Y-18363865D02*
X4694707Y-18392437D01*
X4694707Y-18392437D02*
X4675659Y-18411484D01*
X4675659Y-18411484D02*
X4656611Y-18421008D01*
X4837564Y-18363865D02*
X4961373Y-18363865D01*
X4961373Y-18363865D02*
X4894707Y-18440056D01*
X4894707Y-18440056D02*
X4923278Y-18440056D01*
X4923278Y-18440056D02*
X4942326Y-18449579D01*
X4942326Y-18449579D02*
X4951850Y-18459103D01*
X4951850Y-18459103D02*
X4961373Y-18478151D01*
X4961373Y-18478151D02*
X4961373Y-18525770D01*
X4961373Y-18525770D02*
X4951850Y-18544818D01*
X4951850Y-18544818D02*
X4942326Y-18554341D01*
X4942326Y-18554341D02*
X4923278Y-18563865D01*
X4923278Y-18563865D02*
X4866135Y-18563865D01*
X4866135Y-18563865D02*
X4847088Y-18554341D01*
X4847088Y-18554341D02*
X4837564Y-18544818D01*
X5142326Y-18363865D02*
X5047088Y-18363865D01*
X5047088Y-18363865D02*
X5037564Y-18459103D01*
X5037564Y-18459103D02*
X5047088Y-18449579D01*
X5047088Y-18449579D02*
X5066135Y-18440056D01*
X5066135Y-18440056D02*
X5113754Y-18440056D01*
X5113754Y-18440056D02*
X5132802Y-18449579D01*
X5132802Y-18449579D02*
X5142326Y-18459103D01*
X5142326Y-18459103D02*
X5151850Y-18478151D01*
X5151850Y-18478151D02*
X5151850Y-18525770D01*
X5151850Y-18525770D02*
X5142326Y-18544818D01*
X5142326Y-18544818D02*
X5132802Y-18554341D01*
X5132802Y-18554341D02*
X5113754Y-18563865D01*
X5113754Y-18563865D02*
X5066135Y-18563865D01*
X5066135Y-18563865D02*
X5047088Y-18554341D01*
X5047088Y-18554341D02*
X5037564Y-18544818D01*
X5266135Y-18449579D02*
X5247088Y-18440056D01*
X5247088Y-18440056D02*
X5237564Y-18430532D01*
X5237564Y-18430532D02*
X5228040Y-18411484D01*
X5228040Y-18411484D02*
X5228040Y-18401960D01*
X5228040Y-18401960D02*
X5237564Y-18382913D01*
X5237564Y-18382913D02*
X5247088Y-18373389D01*
X5247088Y-18373389D02*
X5266135Y-18363865D01*
X5266135Y-18363865D02*
X5304231Y-18363865D01*
X5304231Y-18363865D02*
X5323278Y-18373389D01*
X5323278Y-18373389D02*
X5332802Y-18382913D01*
X5332802Y-18382913D02*
X5342326Y-18401960D01*
X5342326Y-18401960D02*
X5342326Y-18411484D01*
X5342326Y-18411484D02*
X5332802Y-18430532D01*
X5332802Y-18430532D02*
X5323278Y-18440056D01*
X5323278Y-18440056D02*
X5304231Y-18449579D01*
X5304231Y-18449579D02*
X5266135Y-18449579D01*
X5266135Y-18449579D02*
X5247088Y-18459103D01*
X5247088Y-18459103D02*
X5237564Y-18468627D01*
X5237564Y-18468627D02*
X5228040Y-18487675D01*
X5228040Y-18487675D02*
X5228040Y-18525770D01*
X5228040Y-18525770D02*
X5237564Y-18544818D01*
X5237564Y-18544818D02*
X5247088Y-18554341D01*
X5247088Y-18554341D02*
X5266135Y-18563865D01*
X5266135Y-18563865D02*
X5304231Y-18563865D01*
X5304231Y-18563865D02*
X5323278Y-18554341D01*
X5323278Y-18554341D02*
X5332802Y-18544818D01*
X5332802Y-18544818D02*
X5342326Y-18525770D01*
X5342326Y-18525770D02*
X5342326Y-18487675D01*
X5342326Y-18487675D02*
X5332802Y-18468627D01*
X5332802Y-18468627D02*
X5323278Y-18459103D01*
X5323278Y-18459103D02*
X5304231Y-18449579D01*
X5418516Y-18363865D02*
X5418516Y-18401960D01*
X5494707Y-18363865D02*
X5494707Y-18401960D01*
X5789945Y-18640056D02*
X5780421Y-18630532D01*
X5780421Y-18630532D02*
X5761373Y-18601960D01*
X5761373Y-18601960D02*
X5751850Y-18582913D01*
X5751850Y-18582913D02*
X5742326Y-18554341D01*
X5742326Y-18554341D02*
X5732802Y-18506722D01*
X5732802Y-18506722D02*
X5732802Y-18468627D01*
X5732802Y-18468627D02*
X5742326Y-18421008D01*
X5742326Y-18421008D02*
X5751850Y-18392437D01*
X5751850Y-18392437D02*
X5761373Y-18373389D01*
X5761373Y-18373389D02*
X5780421Y-18344818D01*
X5780421Y-18344818D02*
X5789945Y-18335294D01*
X5951850Y-18430532D02*
X5951850Y-18563865D01*
X5904230Y-18354341D02*
X5856611Y-18497199D01*
X5856611Y-18497199D02*
X5980421Y-18497199D01*
X6208992Y-18563865D02*
X6208992Y-18363865D01*
X6294707Y-18563865D02*
X6294707Y-18459103D01*
X6294707Y-18459103D02*
X6285183Y-18440056D01*
X6285183Y-18440056D02*
X6266135Y-18430532D01*
X6266135Y-18430532D02*
X6237564Y-18430532D01*
X6237564Y-18430532D02*
X6218516Y-18440056D01*
X6218516Y-18440056D02*
X6208992Y-18449579D01*
X6418516Y-18563865D02*
X6399469Y-18554341D01*
X6399469Y-18554341D02*
X6389945Y-18544818D01*
X6389945Y-18544818D02*
X6380421Y-18525770D01*
X6380421Y-18525770D02*
X6380421Y-18468627D01*
X6380421Y-18468627D02*
X6389945Y-18449579D01*
X6389945Y-18449579D02*
X6399469Y-18440056D01*
X6399469Y-18440056D02*
X6418516Y-18430532D01*
X6418516Y-18430532D02*
X6447088Y-18430532D01*
X6447088Y-18430532D02*
X6466135Y-18440056D01*
X6466135Y-18440056D02*
X6475659Y-18449579D01*
X6475659Y-18449579D02*
X6485183Y-18468627D01*
X6485183Y-18468627D02*
X6485183Y-18525770D01*
X6485183Y-18525770D02*
X6475659Y-18544818D01*
X6475659Y-18544818D02*
X6466135Y-18554341D01*
X6466135Y-18554341D02*
X6447088Y-18563865D01*
X6447088Y-18563865D02*
X6418516Y-18563865D01*
X6599469Y-18563865D02*
X6580421Y-18554341D01*
X6580421Y-18554341D02*
X6570897Y-18535294D01*
X6570897Y-18535294D02*
X6570897Y-18363865D01*
X6751850Y-18554341D02*
X6732802Y-18563865D01*
X6732802Y-18563865D02*
X6694707Y-18563865D01*
X6694707Y-18563865D02*
X6675659Y-18554341D01*
X6675659Y-18554341D02*
X6666135Y-18535294D01*
X6666135Y-18535294D02*
X6666135Y-18459103D01*
X6666135Y-18459103D02*
X6675659Y-18440056D01*
X6675659Y-18440056D02*
X6694707Y-18430532D01*
X6694707Y-18430532D02*
X6732802Y-18430532D01*
X6732802Y-18430532D02*
X6751850Y-18440056D01*
X6751850Y-18440056D02*
X6761373Y-18459103D01*
X6761373Y-18459103D02*
X6761373Y-18478151D01*
X6761373Y-18478151D02*
X6666135Y-18497199D01*
X6837564Y-18554341D02*
X6856612Y-18563865D01*
X6856612Y-18563865D02*
X6894707Y-18563865D01*
X6894707Y-18563865D02*
X6913754Y-18554341D01*
X6913754Y-18554341D02*
X6923278Y-18535294D01*
X6923278Y-18535294D02*
X6923278Y-18525770D01*
X6923278Y-18525770D02*
X6913754Y-18506722D01*
X6913754Y-18506722D02*
X6894707Y-18497199D01*
X6894707Y-18497199D02*
X6866135Y-18497199D01*
X6866135Y-18497199D02*
X6847088Y-18487675D01*
X6847088Y-18487675D02*
X6837564Y-18468627D01*
X6837564Y-18468627D02*
X6837564Y-18459103D01*
X6837564Y-18459103D02*
X6847088Y-18440056D01*
X6847088Y-18440056D02*
X6866135Y-18430532D01*
X6866135Y-18430532D02*
X6894707Y-18430532D01*
X6894707Y-18430532D02*
X6913754Y-18440056D01*
X6989945Y-18640056D02*
X6999469Y-18630532D01*
X6999469Y-18630532D02*
X7018516Y-18601960D01*
X7018516Y-18601960D02*
X7028040Y-18582913D01*
X7028040Y-18582913D02*
X7037564Y-18554341D01*
X7037564Y-18554341D02*
X7047088Y-18506722D01*
X7047088Y-18506722D02*
X7047088Y-18468627D01*
X7047088Y-18468627D02*
X7037564Y-18421008D01*
X7037564Y-18421008D02*
X7028040Y-18392437D01*
X7028040Y-18392437D02*
X7018516Y-18373389D01*
X7018516Y-18373389D02*
X6999469Y-18344818D01*
X6999469Y-18344818D02*
X6989945Y-18335294D01*
X7351850Y-18640056D02*
X7342326Y-18630532D01*
X7342326Y-18630532D02*
X7323278Y-18601960D01*
X7323278Y-18601960D02*
X7313754Y-18582913D01*
X7313754Y-18582913D02*
X7304231Y-18554341D01*
X7304231Y-18554341D02*
X7294707Y-18506722D01*
X7294707Y-18506722D02*
X7294707Y-18468627D01*
X7294707Y-18468627D02*
X7304231Y-18421008D01*
X7304231Y-18421008D02*
X7313754Y-18392437D01*
X7313754Y-18392437D02*
X7323278Y-18373389D01*
X7323278Y-18373389D02*
X7342326Y-18344818D01*
X7342326Y-18344818D02*
X7351850Y-18335294D01*
X7428040Y-18430532D02*
X7428040Y-18563865D01*
X7428040Y-18449579D02*
X7437564Y-18440056D01*
X7437564Y-18440056D02*
X7456612Y-18430532D01*
X7456612Y-18430532D02*
X7485183Y-18430532D01*
X7485183Y-18430532D02*
X7504231Y-18440056D01*
X7504231Y-18440056D02*
X7513754Y-18459103D01*
X7513754Y-18459103D02*
X7513754Y-18563865D01*
X7637564Y-18563865D02*
X7618516Y-18554341D01*
X7618516Y-18554341D02*
X7608993Y-18544818D01*
X7608993Y-18544818D02*
X7599469Y-18525770D01*
X7599469Y-18525770D02*
X7599469Y-18468627D01*
X7599469Y-18468627D02*
X7608993Y-18449579D01*
X7608993Y-18449579D02*
X7618516Y-18440056D01*
X7618516Y-18440056D02*
X7637564Y-18430532D01*
X7637564Y-18430532D02*
X7666135Y-18430532D01*
X7666135Y-18430532D02*
X7685183Y-18440056D01*
X7685183Y-18440056D02*
X7694707Y-18449579D01*
X7694707Y-18449579D02*
X7704231Y-18468627D01*
X7704231Y-18468627D02*
X7704231Y-18525770D01*
X7704231Y-18525770D02*
X7694707Y-18544818D01*
X7694707Y-18544818D02*
X7685183Y-18554341D01*
X7685183Y-18554341D02*
X7666135Y-18563865D01*
X7666135Y-18563865D02*
X7637564Y-18563865D01*
X7761374Y-18430532D02*
X7837564Y-18430532D01*
X7789945Y-18363865D02*
X7789945Y-18535294D01*
X7789945Y-18535294D02*
X7799469Y-18554341D01*
X7799469Y-18554341D02*
X7818516Y-18563865D01*
X7818516Y-18563865D02*
X7837564Y-18563865D01*
X8056612Y-18430532D02*
X8056612Y-18630532D01*
X8056612Y-18440056D02*
X8075659Y-18430532D01*
X8075659Y-18430532D02*
X8113755Y-18430532D01*
X8113755Y-18430532D02*
X8132802Y-18440056D01*
X8132802Y-18440056D02*
X8142326Y-18449579D01*
X8142326Y-18449579D02*
X8151850Y-18468627D01*
X8151850Y-18468627D02*
X8151850Y-18525770D01*
X8151850Y-18525770D02*
X8142326Y-18544818D01*
X8142326Y-18544818D02*
X8132802Y-18554341D01*
X8132802Y-18554341D02*
X8113755Y-18563865D01*
X8113755Y-18563865D02*
X8075659Y-18563865D01*
X8075659Y-18563865D02*
X8056612Y-18554341D01*
X8266135Y-18563865D02*
X8247088Y-18554341D01*
X8247088Y-18554341D02*
X8237564Y-18535294D01*
X8237564Y-18535294D02*
X8237564Y-18363865D01*
X8428040Y-18563865D02*
X8428040Y-18459103D01*
X8428040Y-18459103D02*
X8418517Y-18440056D01*
X8418517Y-18440056D02*
X8399469Y-18430532D01*
X8399469Y-18430532D02*
X8361374Y-18430532D01*
X8361374Y-18430532D02*
X8342326Y-18440056D01*
X8428040Y-18554341D02*
X8408993Y-18563865D01*
X8408993Y-18563865D02*
X8361374Y-18563865D01*
X8361374Y-18563865D02*
X8342326Y-18554341D01*
X8342326Y-18554341D02*
X8332802Y-18535294D01*
X8332802Y-18535294D02*
X8332802Y-18516246D01*
X8332802Y-18516246D02*
X8342326Y-18497199D01*
X8342326Y-18497199D02*
X8361374Y-18487675D01*
X8361374Y-18487675D02*
X8408993Y-18487675D01*
X8408993Y-18487675D02*
X8428040Y-18478151D01*
X8494707Y-18430532D02*
X8570897Y-18430532D01*
X8523278Y-18363865D02*
X8523278Y-18535294D01*
X8523278Y-18535294D02*
X8532802Y-18554341D01*
X8532802Y-18554341D02*
X8551850Y-18563865D01*
X8551850Y-18563865D02*
X8570897Y-18563865D01*
X8713755Y-18554341D02*
X8694707Y-18563865D01*
X8694707Y-18563865D02*
X8656612Y-18563865D01*
X8656612Y-18563865D02*
X8637564Y-18554341D01*
X8637564Y-18554341D02*
X8628040Y-18535294D01*
X8628040Y-18535294D02*
X8628040Y-18459103D01*
X8628040Y-18459103D02*
X8637564Y-18440056D01*
X8637564Y-18440056D02*
X8656612Y-18430532D01*
X8656612Y-18430532D02*
X8694707Y-18430532D01*
X8694707Y-18430532D02*
X8713755Y-18440056D01*
X8713755Y-18440056D02*
X8723278Y-18459103D01*
X8723278Y-18459103D02*
X8723278Y-18478151D01*
X8723278Y-18478151D02*
X8628040Y-18497199D01*
X8894707Y-18563865D02*
X8894707Y-18363865D01*
X8894707Y-18554341D02*
X8875659Y-18563865D01*
X8875659Y-18563865D02*
X8837564Y-18563865D01*
X8837564Y-18563865D02*
X8818517Y-18554341D01*
X8818517Y-18554341D02*
X8808993Y-18544818D01*
X8808993Y-18544818D02*
X8799469Y-18525770D01*
X8799469Y-18525770D02*
X8799469Y-18468627D01*
X8799469Y-18468627D02*
X8808993Y-18449579D01*
X8808993Y-18449579D02*
X8818517Y-18440056D01*
X8818517Y-18440056D02*
X8837564Y-18430532D01*
X8837564Y-18430532D02*
X8875659Y-18430532D01*
X8875659Y-18430532D02*
X8894707Y-18440056D01*
X8970898Y-18640056D02*
X8980421Y-18630532D01*
X8980421Y-18630532D02*
X8999469Y-18601960D01*
X8999469Y-18601960D02*
X9008993Y-18582913D01*
X9008993Y-18582913D02*
X9018517Y-18554341D01*
X9018517Y-18554341D02*
X9028040Y-18506722D01*
X9028040Y-18506722D02*
X9028040Y-18468627D01*
X9028040Y-18468627D02*
X9018517Y-18421008D01*
X9018517Y-18421008D02*
X9008993Y-18392437D01*
X9008993Y-18392437D02*
X8999469Y-18373389D01*
X8999469Y-18373389D02*
X8980421Y-18344818D01*
X8980421Y-18344818D02*
X8970898Y-18335294D01*
M02*
